<?xml version="1.0" encoding="UTF-8" standalone="no"?>
<!-- Created with Inkscape (http://www.inkscape.org/) -->

<svg
   xmlns:dc="http://purl.org/dc/elements/1.1/"
   xmlns:cc="http://creativecommons.org/ns#"
   xmlns:rdf="http://www.w3.org/1999/02/22-rdf-syntax-ns#"
   xmlns:svg="http://www.w3.org/2000/svg"
   xmlns="http://www.w3.org/2000/svg"
   xmlns:xlink="http://www.w3.org/1999/xlink"
   xmlns:sodipodi="http://sodipodi.sourceforge.net/DTD/sodipodi-0.dtd"
   xmlns:inkscape="http://www.inkscape.org/namespaces/inkscape"
   width="492.30612mm"
   height="274.78165mm"
   viewBox="0 0 492.30612 274.78165"
   version="1.1"
   id="svg8"
   inkscape:version="0.92.4 5da689c313, 2019-01-14"
   sodipodi:docname="clouds.svg">
  <defs
     id="defs2">
    <linearGradient
       id="linearGradient890"
       inkscape:collect="always">
      <stop
         id="stop886"
         offset="0"
         style="stop-color:#da7885;stop-opacity:1" />
      <stop
         id="stop888"
         offset="1"
         style="stop-color:#ff5a2e;stop-opacity:1" />
    </linearGradient>
    <linearGradient
       inkscape:collect="always"
       id="linearGradient834">
      <stop
         style="stop-color:#da7885;stop-opacity:1"
         offset="0"
         id="stop830" />
      <stop
         style="stop-color:#ffca8c;stop-opacity:1"
         offset="1"
         id="stop832" />
    </linearGradient>
    <linearGradient
       inkscape:collect="always"
       xlink:href="#linearGradient834"
       id="linearGradient836"
       x1="52.652954"
       y1="252.32816"
       x2="8.2305803"
       y2="149.98833"
       gradientUnits="userSpaceOnUse" />
    <linearGradient
       inkscape:collect="always"
       xlink:href="#linearGradient834"
       id="linearGradient844"
       x1="-133.36295"
       y1="266.76154"
       x2="-115.17297"
       y2="124.64249"
       gradientUnits="userSpaceOnUse" />
    <linearGradient
       inkscape:collect="always"
       xlink:href="#linearGradient834"
       id="linearGradient852"
       x1="-420.90503"
       y1="793.59253"
       x2="-139.43135"
       y2="518.87891"
       gradientUnits="userSpaceOnUse" />
    <linearGradient
       inkscape:collect="always"
       xlink:href="#linearGradient834"
       id="linearGradient860"
       x1="841.81909"
       y1="813.448"
       x2="418.83203"
       y2="585.15356"
       gradientUnits="userSpaceOnUse" />
    <linearGradient
       inkscape:collect="always"
       xlink:href="#linearGradient834"
       id="linearGradient868"
       x1="193.2912"
       y1="-29.737301"
       x2="99.973518"
       y2="105.57817"
       gradientUnits="userSpaceOnUse" />
    <linearGradient
       inkscape:collect="always"
       xlink:href="#linearGradient834"
       id="linearGradient876"
       x1="282.41534"
       y1="-51.305058"
       x2="-107.46455"
       y2="58.432026"
       gradientUnits="userSpaceOnUse" />
    <linearGradient
       inkscape:collect="always"
       xlink:href="#linearGradient890"
       id="linearGradient884"
       x1="8.1371479"
       y1="172.43994"
       x2="6.5801311"
       y2="108.31526"
       gradientUnits="userSpaceOnUse" />
  </defs>
  <sodipodi:namedview
     id="base"
     pagecolor="#ffffff"
     bordercolor="#666666"
     borderopacity="1.0"
     inkscape:pageopacity="0.0"
     inkscape:pageshadow="2"
     inkscape:zoom="1.4"
     inkscape:cx="771.45094"
     inkscape:cy="370.0723"
     inkscape:document-units="mm"
     inkscape:current-layer="layer1"
     showgrid="false"
     inkscape:window-width="1080"
     inkscape:window-height="1891"
     inkscape:window-x="1080"
     inkscape:window-y="0"
     inkscape:window-maximized="1"
     inkscape:pagecheckerboard="true" />
  <metadata
     id="metadata5">
    <rdf:RDF>
      <cc:Work
         rdf:about="">
        <dc:format>image/svg+xml</dc:format>
        <dc:type
           rdf:resource="http://purl.org/dc/dcmitype/StillImage" />
        <dc:title />
      </cc:Work>
    </rdf:RDF>
  </metadata>
  <g
     inkscape:label="Ebene 1"
     inkscape:groupmode="layer"
     id="layer1"
     style="display:inline"
     transform="translate(174.52684,34.839959)">
    <circle
       style="opacity:1;fill:url(#linearGradient884);fill-opacity:1;fill-rule:nonzero;stroke:none;stroke-width:0.07183441;stroke-miterlimit:4;stroke-dasharray:none;stroke-opacity:1"
       id="path826"
       cx="6.4729857"
       cy="157.45216"
       r="49.964085" />
    <path
       style="opacity:1;fill:url(#linearGradient836);fill-opacity:1;fill-rule:nonzero;stroke:none;stroke-width:0.06689479;stroke-miterlimit:4;stroke-dasharray:none;stroke-opacity:1"
       d="m 6.6269831,134.48666 a 28.927472,31.302454 0 0 0 -27.5523161,21.80487 18.992998,19.351356 0 0 0 -9.89397,-2.86132 18.992998,19.351356 0 0 0 -10.12807,2.99 19.342331,23.14171 67.491262 0 0 -26.00254,-4.53099 19.342331,23.14171 67.491262 0 0 -15.20166,20.71966 18.992998,19.351356 0 0 0 -2.47065,-0.185 18.992998,19.351356 0 0 0 -18.992597,19.35127 18.992998,19.351356 0 0 0 18.992597,19.35128 18.992998,19.351356 0 0 0 13.18731,-5.42861 25.514032,26.931445 0 0 0 24.55199,19.62309 25.514032,26.931445 0 0 0 10.60969,-2.47479 32.027786,28.347267 0 0 0 29.0338782,16.45843 32.027786,28.347267 0 0 0 25.1442018,-10.84016 31.833793,26.467331 67.710684 0 0 34.03927,8.19123 31.833793,26.467331 67.710684 0 0 11.90056,-26.40046 20.995981,21.359625 0 0 0 9.64334,2.40709 20.995981,21.359625 0 0 0 20.99614,-21.35942 20.995981,21.359625 0 0 0 -1.23507,-7.1515 8.5459109,8.7071543 0 0 0 3.83388,0.93638 8.5459109,8.7071543 0 0 0 8.545763,-8.70697 8.5459109,8.7071543 0 0 0 -8.545763,-8.70748 8.5459109,8.7071543 0 0 0 -3.96565,0.99943 15.366568,14.765213 0 0 0 2.22725,-7.62073 15.366568,14.765213 0 0 0 -15.36702,-14.7655 15.366568,14.765213 0 0 0 -15.3665,14.7655 15.366568,14.765213 0 0 0 0.61546,4.10983 7.0826425,7.216277 0 0 0 -2.75487,-0.56844 7.0826425,7.216277 0 0 0 -7.08277,7.2161 7.0826425,7.216277 0 0 0 2.36833,5.37538 20.995981,21.359625 0 0 0 -0.0672,0.0729 7.0826425,7.216277 0 0 0 -5.24102,-2.37453 7.0826425,7.216277 0 0 0 -1.84072,0.25063 13.324348,13.57575 0 0 0 0.72192,-4.36717 13.324348,13.57575 0 0 0 -13.32425,-13.57592 13.324348,13.57575 0 0 0 -3.45508,0.47026 28.927472,31.302454 0 0 0 -27.9238839,-23.1743 z m 82.6926339,38.2757 a 8.5459109,8.7071543 0 0 0 -0.78239,3.61838 8.5459109,8.7071543 0 0 0 0.001,0.0295 20.995981,21.359625 0 0 0 -2.17558,-1.94769 15.366568,14.765213 0 0 0 2.95693,-1.70015 z"
       id="path828"
       inkscape:connector-curvature="0" />
    <path
       style="opacity:1;fill:url(#linearGradient844);fill-opacity:1;fill-rule:nonzero;stroke:none;stroke-width:0.06908109;stroke-miterlimit:4;stroke-dasharray:none;stroke-opacity:1"
       d="m -78.115564,121.73417 a 14.165285,11.960311 0 0 0 -13.089637,7.40007 18.650156,23.601524 86.976466 0 0 -6.76548,-0.43357 18.650156,23.601524 86.976466 0 0 -14.557769,4.91546 14.457088,18.295252 78.337098 0 0 -16.23157,-3.25768 14.457088,18.295252 78.337098 0 0 -15.16961,16.60054 12.118813,17.620155 86.289135 0 0 -14.45545,-3.42667 12.118813,17.620155 86.289135 0 0 -16.08119,13.64465 12.118813,17.620155 86.289135 0 0 18.99935,10.43657 12.118813,17.620155 86.289135 0 0 1.9141,-0.26303 14.361055,11.348247 0 0 0 -1.95389,5.69267 14.361055,11.348247 0 0 0 14.36089,11.34815 14.361055,11.348247 0 0 0 13.56661,-7.6631 14.457088,18.295252 71.644552 0 0 21.57698,7.11843 14.457088,18.295252 71.644552 0 0 11.733129,-9.44852 11.960312,14.165285 65.166859 0 0 12.624027,-0.24908 11.960312,14.165285 65.166859 0 0 8.473389,-9.89087 13.831198,12.294398 0 0 0 7.95197,2.24327 13.831198,12.294398 0 0 0 13.57023,-9.93892 6.2320188,4.9959148 10.379515 0 0 4.950087,3.64112 6.2320188,4.9959148 10.379515 0 0 5.823416,-1.5503 9.4489068,8.4567211 0 0 0 7.311699,3.10834 9.4489068,8.4567211 0 0 0 9.449036,-8.45685 9.4489068,8.4567211 0 0 0 -3.871598,-6.81457 4.9959148,6.2320188 12.218604 0 0 0.486791,-1.48311 4.9959148,6.2320188 12.218604 0 0 -3.564122,-7.14788 4.9959148,6.2320188 12.218604 0 0 -2.900082,0.42581 2.2735035,1.9981274 0 0 0 -2.056723,-1.15239 2.2735035,1.9981274 0 0 0 -0.870231,0.154 9.6847341,8.4563121 0 0 0 -9.523965,-6.94273 9.6847341,8.4563121 0 0 0 -9.361704,6.3314 9.6847341,8.4563121 0 0 0 -3.986837,-2.96674 2.8063298,1.5367998 0 0 0 0.357084,-0.74932 2.8063298,1.5367998 0 0 0 -1.382345,-1.32239 2.5056519,2.3720171 0 0 0 0.580327,-1.51722 2.5056519,2.3720171 0 0 0 -2.505273,-2.37195 2.5056519,2.3720171 0 0 0 -1.347203,0.37207 2.5056519,2.3720171 0 0 0 0.07752,-0.57258 2.5056519,2.3720171 0 0 0 -2.505792,-2.37195 2.5056519,2.3720171 0 0 0 -1.298112,0.34572 14.165285,11.960311 0 0 0 -10.328052,-3.78685 z"
       id="path1131"
       inkscape:connector-curvature="0" />
    <path
       style="opacity:1;fill:url(#linearGradient852);fill-opacity:1;fill-rule:nonzero;stroke:none;stroke-width:0.24566928;stroke-miterlimit:4;stroke-dasharray:none;stroke-opacity:1"
       d="m -175.71484,491.8125 a 36.421383,35.349956 0 0 0 -34.73828,24.75586 51.776532,51.062251 0 0 0 -37.76172,-16.18164 51.776532,51.062251 0 0 0 -50.72657,40.84766 39.642857,37.857142 0 0 0 -18.55859,-4.42969 39.642857,37.857142 0 0 0 -39.64258,37.85742 39.642857,37.857142 0 0 0 39.64258,37.85742 39.642857,37.857142 0 0 0 35.95117,-22.00195 51.776532,51.062251 0 0 0 33.33399,11.99219 51.776532,51.062251 0 0 0 33.79492,-12.45704 23.928572,21.607143 0 0 0 15.49219,5.14649 23.928572,21.607143 0 0 0 4.6582,-0.43555 23.928572,21.607143 0 0 0 20.3418,10.25586 23.928572,21.607143 0 0 0 10.51562,-2.21484 14.107142,8.3928572 0 0 0 13.58984,6.14453 14.107142,8.3928572 0 0 0 11.15039,-3.26758 45.379879,22.781799 73.587153 0 0 13.99415,3.57031 45.379879,22.781799 73.587153 0 0 5.94726,-3.98437 4.1071431,3.75 0 0 0 3.9082,2.60937 4.1071431,3.75 0 0 0 4.10743,-3.75 4.1071431,3.75 0 0 0 -0.49414,-1.77929 3.75,9.4642855 13.957439 0 0 3.59765,-7.31641 3.75,9.4642855 13.957439 0 0 0.52344,-6.89453 3.2142856,4.4642857 0 0 0 1.37305,-3.65234 3.2142856,4.4642857 0 0 0 -3.21289,-4.46485 3.2142856,4.4642857 0 0 0 -3.21485,4.46485 3.2142856,4.4642857 0 0 0 0.33789,1.98632 3.75,9.4642855 13.957439 0 0 -0.59765,0.8125 45.379879,22.781799 73.587153 0 0 -3.24414,-27.99804 45.379879,22.781799 73.587153 0 0 -3.61329,-9.95508 18.928571,17.500001 0 0 0 10.6875,-15.73828 18.928571,17.500001 0 0 0 -18.92773,-17.5 18.928571,17.500001 0 0 0 -12.48242,4.37304 36.421383,35.349956 0 0 0 -35.73242,-28.65234 z m 13.6914,68.08203 a 45.379879,22.781799 73.587153 0 0 0.95117,5.32422 23.928572,21.607143 0 0 0 -9.20117,-3.13281 36.421383,35.349956 0 0 0 8.25,-2.19141 z m 10.58789,30.8125 a 45.379879,22.781799 73.587153 0 0 0.89649,1.4707 14.107142,8.3928572 0 0 0 -1.5918,0.10157 23.928572,21.607143 0 0 0 0.69531,-1.57227 z m 36.00586,9.30664 a 3.75,9.4642855 13.957439 0 0 0.0645,0.40039 4.1071431,3.75 0 0 0 -0.26758,0.041 45.379879,22.781799 73.587153 0 0 0.20312,-0.44141 z"
       transform="scale(0.26458333)"
       id="path1328"
       inkscape:connector-curvature="0" />
    <path
       style="opacity:1;fill:url(#linearGradient868);fill-opacity:1;fill-rule:nonzero;stroke:none;stroke-width:0.10493515;stroke-miterlimit:4;stroke-dasharray:none;stroke-opacity:1"
       d="m 165.54124,47.997385 c -8.70854,0.01111 -15.89187,6.888586 -16.3649,15.668281 -1.83014,-0.977397 -3.89912,-1.492488 -6.0048,-1.495001 -6.72281,2.6e-5 -12.17276,5.114951 -12.17291,11.424628 0.004,0.943638 0.132,1.883226 0.38189,2.797256 -0.31141,0.02408 -0.62347,0.05945 -0.93431,0.105939 -1.99121,0.309165 -3.82585,1.057778 -5.0834,2.07428 -2.75495,-1.13329 -7.92869,-1.835203 -13.5413,-1.837081 -1.62395,0.0026 -3.23681,0.06212 -4.78007,0.179308 0.12329,-0.264901 0.19588,-0.536231 0.21705,-0.811318 0.16962,-2.796726 -4.88839,-5.379166 -11.297501,-5.76813 -2.995197,-0.181292 -5.904669,0.149781 -8.11992,0.923978 -1.096245,-2.803392 -5.637778,-4.808643 -10.898558,-4.812109 -2.934919,0 -5.750896,0.632116 -7.837765,1.756489 -1.376913,-2.952326 -8.004559,-4.826053 -15.622819,-4.416795 -8.253184,0.449712 -14.874478,3.415506 -15.04766,6.740155 -5.278529,0.401372 -9.131487,2.40067 -9.132259,4.738741 3.83e-4,2.656813 4.936139,4.810495 11.02465,4.810548 5.240259,-1.06e-4 9.756264,-1.609778 10.802441,-3.850402 0.670523,0.01826 1.348094,0.01852 2.0283,0 -2.596186,0.77007 -4.073128,1.850152 -4.07727,2.981749 2.4e-4,2.250969 5.713899,4.075694 12.762011,4.075721 1.387176,-0.0026 2.764158,-0.0758 4.076756,-0.219128 0.501578,0.467571 1.156634,0.846534 1.911511,1.105879 -0.202337,0.400207 -0.30697,0.823807 -0.309025,1.251077 -2.65e-4,1.99293 2.183619,3.6086 4.877736,3.60858 1.306724,0 2.558111,-0.39037 3.473691,-1.08003 1.415516,0.56091 5.488546,0.55986 10.036596,-0.003 4.744026,-0.58844 8.809392,-1.63883 9.862447,-2.54818 0.08362,-0.0233 0.166822,-0.0469 0.249597,-0.0708 3.673844,0.87397 10.374801,1.10577 17.552931,0.60719 4.61722,-0.32287 9.05663,-0.92294 12.56305,-1.698092 1.39721,0.571762 3.2248,0.766652 5.1077,0.544672 -0.25031,0.77211 -0.37852,1.57218 -0.38085,2.37659 -2.2e-4,4.72371 4.24795,8.55311 9.48832,8.55298 5.02446,-0.006 9.1728,-3.5414 9.4604,-8.06308 0.23054,0.0281 0.46287,0.0431 0.69556,0.045 2.19936,-5e-5 4.18553,-1.17086 5.04414,-2.97346 0.36301,0.0665 0.73267,0.10014 1.10329,0.10025 0.56815,-0.003 1.13249,-0.0828 1.67277,-0.23926 1.26808,3.92041 4.93804,6.58103 9.08471,6.58616 0.42107,-0.004 0.84143,-0.0352 1.25833,-0.094 2.53878,7.02096 9.2831,11.71252 16.8491,11.72075 5.31508,-0.003 10.35478,-2.32902 13.75575,-6.35262 1.31085,0.68623 2.78548,1.0467 4.28501,1.04749 1.23694,-0.004 2.45928,-0.25207 3.58789,-0.72917 0.48164,4.22571 4.26335,7.43116 8.77311,7.43627 3.29574,-0.003 6.3158,-1.73426 7.83363,-4.491225 1.65728,1.574005 3.91236,2.459945 6.26525,2.461365 3.64028,-0.004 6.90519,-2.1121 8.22379,-5.30975 0.90164,0.70032 2.03344,1.08376 3.20187,1.08468 2.78408,3e-5 5.04104,-2.1269 5.04103,-4.75062 -0.002,-1.78001 -1.05976,-3.4096 -2.7404,-4.22195 0.29781,-0.84207 0.45081,-1.72361 0.45321,-2.61123 -0.002,-0.10737 -0.006,-0.21471 -0.0119,-0.32194 3.31444,-0.51623 6.28869,-2.033063 8.36073,-4.263818 -0.18551,3.126788 0.77631,5.588288 2.57348,6.586168 2.37691,1.30934 5.72966,-0.17904 8.30337,-3.6861 0.31178,0.62802 0.72874,1.14065 1.23662,1.52033 2.11648,1.57125 5.51193,0.65495 8.4925,-2.291851 0.64944,0.37637 1.49313,0.585121 2.36833,0.586021 0.60708,0 1.20356,-0.10205 1.7322,-0.293524 0.68635,2.217474 3.83433,3.861564 7.62279,3.981154 3.31506,0.10211 6.41854,-0.99007 7.87084,-2.76987 1.63268,-0.0995 2.93409,-0.64846 3.2246,-1.360112 1.5081,-0.0367 3.09277,-0.296678 4.64934,-0.762741 4.18732,-1.263359 7.67292,-3.861038 8.99065,-6.700362 1.09217,-0.138059 1.99194,-1.051692 2.24949,-2.284095 3.26884,-0.618834 5.56177,-2.374636 5.75778,-4.409043 0.25783,-2.700894 -3.214,-5.004091 -7.75457,-5.1444 -2.52016,-0.0757 -4.96509,0.540253 -6.63369,1.671214 -0.13628,-1.133263 -1.04349,-1.982682 -2.11875,-1.983846 -0.11565,2.38e-4 -0.23109,0.01032 -0.34518,0.03048 -1.96456,-2.566405 -5.69388,-4.160123 -9.74412,-4.164092 -6.1635,-5.2e-5 -11.16004,3.620347 -11.16004,8.086329 0.001,0.209576 0.0136,0.41902 0.0372,0.627882 -0.12258,-0.01667 -0.24596,-0.0254 -0.36949,-0.02646 -0.85305,0.0026 -1.66885,0.379412 -2.25981,1.046956 -0.30424,-0.580469 -0.70118,-1.05746 -1.17874,-1.416447 -1.31129,-0.977291 -3.15455,-1.017561 -5.1356,-0.11213 -1.71697,-0.286994 -3.64996,-0.232013 -5.57796,0.158644 -0.6312,0.130016 -1.25602,0.294878 -1.86655,0.492469 -2.47305,-0.88437 -5.71285,0.882941 -8.10803,4.422987 -0.66781,-5.938229 -6.6076,-10.477262 -13.71751,-10.482554 -3.18462,0.0026 -6.27,0.929799 -8.73228,2.624111 -0.87904,-5.936853 -6.26331,-10.357062 -12.62404,-10.363703 -2.66427,0.0056 -5.25988,0.79682 -7.4228,2.262902 -3.78664,-5.335614 -11.09097,-8.661611 -19.03657,-8.668199 -5.91177,0.0071 -11.56338,1.857851 -15.64607,5.123735 -3.11349,-3.842147 -7.76926,-6.072267 -12.68605,-6.076632 z"
       id="path2978-1-2"
       inkscape:connector-curvature="0"
       sodipodi:nodetypes="ccccccccccccccccccccccccccccccccccccccccccccccccccccccccccccccccccccccccccccccccccccccccccc" />
    <path
       style="opacity:1;fill:url(#linearGradient876);fill-opacity:1;fill-rule:nonzero;stroke:none;stroke-width:0.0631155;stroke-miterlimit:4;stroke-dasharray:none;stroke-opacity:1"
       d="m 27.784863,-16.418308 c 1.98287,-1.23635 2.75118,-2.974051 2.75288,-5.21634 -2e-4,-3.690961 -3.17194,-6.68295 -7.08432,-6.68282 -0.8101,0.003 -1.61378,0.135679 -2.37608,0.394309 -1.37955,-4.11896 -5.32028,-6.90809 -9.7684,-6.9138 v -0.003 c -3.8863599,0.005 -7.4383999,2.14185 -9.1823799,5.52474 -2.68919,-1.93665 -5.99697,-2.99096 -9.40356,-2.99726 -6.5723201,0.007 -12.4127201,3.882761 -14.5314101,9.644381 -1.08589,-0.366181 -2.22644,-0.554931 -3.37551,-0.55861 -5.75791,-2.4e-4 -10.42574,4.54774 -10.42572,10.15804 0.002,3.6891398 2.05599,7.0873878 5.3666,8.8774798 l -1.60559,6.366039 c -3.23722,0.79489 -6.257,2.29656 -8.84132,4.39661 -0.9155,-6.50558002 -6.557804,-11.352 -13.225544,-11.36002 -3.54071,0.003 -6.93561,1.389401 -9.43974,3.85506098 -1.60848,-0.85178098 -3.41894,-1.29945098 -5.26015,-1.30069098 -5.57239,0 -10.23366,4.02314 -10.77246,9.29555 -1.01363,0.0384 -2.02003,0.18156 -3.00189,0.42685 -0.3348,-0.31591 -0.76509,-0.54919 -1.24488,-0.674899 -0.47751,-6.63822902 -4.88713,-11.7231 -10.17096,-11.728471 -2.66811,0 -5.23023,1.317442 -7.139099,3.66903 -1.15745,-0.908929 -2.5377,-1.3974 -3.95274,-1.398879 -3.80069,1.8e-4 -6.88168,3.44026901 -6.88173,7.683759 0.003,0.51647 0.0514,1.03137 0.14623,1.536862 -0.39576,-0.174922 -0.83579,-0.266571 -1.28262,-0.267182 -1.01544,1.62e-4 -1.94955,0.468421 -2.43498,1.22061 -1.75194,-0.671539 -3.64049,-1.018698 -5.54953,-1.020098 -4.11396,0 -8.01931,1.603708 -10.67843,4.3831882 -1.1593,-0.16169 -2.42062,-0.16293 -3.67678,-0.004 -4.31004,0.550698 -7.52443,2.819738 -7.17939,5.067908 0.24934,1.608641 2.29209,2.833341 5.21208,3.12488 -0.64807,1.2114 -0.9874,2.46896 -1.00769,3.73465 -7.68424,0.971954 -13.23277,5.338632 -13.23951,10.419534 -2.4e-4,5.868059 7.3294,10.62517 16.37109,10.625199 4.10699,-0.004 8.0618,-1.009179 11.07996,-2.816889 1.46065,5.596249 8.97855,9.694889 17.78494,9.69605 9.962489,5.8e-5 18.038729,-5.204251 18.038709,-11.624101 -0.008,-2.013079 -0.82704,-3.99034 -2.37712,-5.738151 0.53837,-0.440399 0.84226,-1.04593 0.84233,-1.678458 -5.3e-4,-0.0324 -0.002,-0.0648 -0.004,-0.0971 0.84956,0.328478 1.7587,0.49802 2.67684,0.49919 0.16413,1.8e-5 0.32822,-0.005 0.49196,-0.01611 0.035,0.0209 0.0702,0.0415 0.10542,0.062 2.63395,3.72753 7.01259,5.96106 11.69696,5.966561 4.13187,-0.003 8.05675,-1.740432 10.74612,-4.75887 1.71038,1.323258 3.89647,2.05237 6.15879,2.054119 3.59326,-0.005 6.87087,-1.834811 8.45013,-4.71909 0.47417,0.331711 1.06581,0.52078 1.68155,0.53743 3.116524,9.06544 11.660894,15.159119 21.272624,15.171179 2.28817,-0.008 4.56168,-0.36467 6.74221,-1.056269 1.37138,0.92797 3.01671,1.42817 4.70514,1.43039 1.3522,-0.003 2.6821,-0.32475 3.86798,-0.93689 4.0206601,10.934251 14.6028501,18.22736 26.46402,18.238679 0.11181,-0.003 0.22361,-0.007 0.33538,-0.01191 1.53355,1.760301 3.80159,2.779081 6.19393,2.782251 1.50395,-0.003 2.97751,-0.40606 4.25504,-1.16684 5.32928,5.79104 12.91049,9.10209 20.8685,9.11416 6.22069,-0.006 12.26426,-2.03028 17.18706,-5.75675 1.32142,0.82523 2.87121,1.26624 4.45657,1.26814 2.36482,-0.003 4.6095,-0.98216 6.14278,-2.6784 5.28975,5.26584 12.51393,8.23272 20.05459,8.23621 8.387747,-0.004 16.337047,-3.6717 21.683427,-10.00458 1.074,0.47876 2.24679,0.72858 3.43493,0.73176 2.55286,-0.004 4.9539,-1.14324 6.4766,-3.073712 1.89796,0.516199 3.85562,0.78219 5.8229,0.791159 10.18646,-0.01241 19.09591,-6.841469 21.72634,-16.653248 0.54634,0.276728 1.15686,0.421749 1.77715,0.422198 1.37928,-2.19e-4 2.64769,-0.712049 3.30471,-1.854649 1.76571,0.67574 3.6401,1.02526 5.53143,1.031451 7.0303,-0.008 13.18394,-4.710091 15.01976,-11.476312 0.0733,0.006 0.14669,0.009 0.22016,0.01029 1.52845,0 2.90415,-0.873649 3.47988,-2.207628 3.67477,-0.332322 6.98865,-2.323462 8.97983,-5.395542 0.70879,0.891622 1.82155,1.417111 3.00394,1.41854 1.12752,0 2.19509,-0.478499 2.90835,-1.301218 1.71569,0.859599 3.60608,1.439119 5.55934,1.704279 1.21596,0.161499 2.44327,0.199501 3.65353,0.113159 2.15876,0.912101 4.58401,1.360972 7.0528,1.305351 0.66788,1.1058 1.91399,1.789121 3.2644,1.790071 0.23728,0 0.47397,-0.0222 0.70694,-0.0646 0.70702,0.691301 1.68164,1.082569 2.7006,1.084181 0.66903,-0.003 1.32551,-0.17113 1.90168,-0.491461 0.71099,0.73702 1.71848,1.157951 2.77556,1.15961 0.51959,0 1.03338,-0.10297 1.50895,-0.30022 0.50599,1.4537 1.94548,2.436969 3.56928,2.43808 0.27294,0 0.54499,-0.0295 0.81133,-0.0858 2.17804,1.047779 4.97625,1.626928 7.87498,1.629889 2.55497,-0.003 5.04129,-0.453279 7.09517,-1.285719 1.55813,0.955918 3.50081,1.669468 5.55883,2.041739 5.00108,0.89498 9.58215,-0.389149 10.68876,-2.996189 0.53345,0.103788 1.08852,0.157078 1.64692,0.15811 3.10745,-5.1e-5 5.6265,-1.584172 5.62652,-3.538271 -0.003,-0.769519 -0.40409,-1.51752 -1.14358,-2.130639 0.0201,0 0.0403,0.003 0.0605,0.003 1.64407,-0.003 3.20659,-0.675079 4.28498,-1.844329 2.7228,0.558401 5.84356,0.713291 8.97464,0.445429 3.23043,-0.277979 6.32132,-0.993119 8.86513,-2.051029 2.36382,0.773221 5.06439,1.18309 7.81759,1.1865 6.42813,-0.005 12.16689,-2.20776 14.36862,-5.515951 0.0769,0.006 0.15391,0.009 0.23101,0.01079 2.28404,2.1e-5 4.13565,-1.744448 4.13565,-3.896389 5e-5,-2.151941 -1.85158,-3.896439 -4.13565,-3.89641 -0.20315,0 -0.40595,0.01669 -0.60669,0.046 -0.41386,-1.580491 -1.91794,-2.691662 -3.64575,-2.693381 -0.70146,0 -1.38863,0.186711 -1.98387,0.536411 -2.48613,-0.891382 -5.39197,-1.367359 -8.36332,-1.369931 -3.69292,0.004 -7.25889,0.738481 -10.04123,2.068589 -2.10624,-3.560127 -7.43037,-6.3003082 -13.57389,-6.9861372 -3.98317,-0.4401 -7.91189,0.0323 -10.9714,1.319299 0.0127,-0.136292 0.0201,-0.27297 0.0217,-0.409792 -8e-5,-2.960179 -2.54712,-5.359849 -5.68904,-5.359878 -0.0201,0 -0.0403,0 -0.0605,0.003 0.7393,-0.61314 1.1406,-1.361151 1.14308,-2.13061002 -2e-5,-1.95410098 -2.51907,-3.53824098 -5.62652,-3.53829898 -0.55824,0 -1.11313,0.0544 -1.64642,0.158149 -0.86072,-2.032161 -3.87803,-3.31542 -7.71321,-3.28041 -0.97854,0.01 -1.98157,0.105561 -2.97554,0.28421 -2.06954,0.37351 -4.02259,1.092121 -5.58572,2.055149 -1.78596,-0.650288 -3.84122,-1.060789 -5.95312,-1.189059 -3.41297,-0.201239 -6.70291,0.34938 -9.02785,1.511009 -0.25453,-0.0508 -0.51396,-0.0767 -0.77412,-0.077 -1.62362,0.003 -3.06287,0.984559 -3.56878,2.438109 -0.47572,-0.197329 -0.9897,-0.299559 -1.50947,-0.300249 -1.05691,0.003 -2.06418,0.422719 -2.77503,1.15960998 -0.57635,-0.32041 -1.23301,-0.490061 -1.9022,-0.491429 -1.01915,0.003 -1.99398,0.392769 -2.70113,1.084178 -0.23278,-0.0425 -0.46932,-0.0641 -0.70641,-0.0646 -2.07592,1.08e-4 -3.75878,1.58556802 -3.75896,3.54139002 0.003,0.996 0.4482,1.94533 1.23042,2.615329 -0.1061,-0.005 -0.21223,-0.009 -0.31833,-0.01191 -2.22824,-1.610199 -8.451,-2.087848 -15.31585,-1.175621 -4.92181,0.656612 -9.46192,1.937732 -12.24267,3.454562 -2.22514,-1.173721 -5.19258,-1.830681 -8.28167,-1.833491 -2.39212,0.003 -4.72813,0.397221 -6.70655,1.1338 -0.85955,-3.436329 -4.11274,-5.865871 -7.86,-5.86994 -0.56494,0.003 -1.12803,0.0616 -1.68,0.175181 0.65579,-1.68740902 0.99496,-3.47499 1.0015,-5.278231 -6e-5,-8.3495398 -6.98032,-15.1181098 -15.59079,-15.1179498 -8.61028,1.3e-4 -15.59023,6.7686 -15.59025,15.1179498 0.004,0.961731 0.10297,1.920901 0.29506,2.86443198 -0.23537,-0.0209 -0.47157,-0.0318 -0.70797,-0.0331 -4.46508,6.1e-5 -8.08474,3.41034902 -8.08477,7.61712102 0,1.44581 0.43794,2.8615982 1.2609,4.0819102 -1.32395,-0.82989 -2.87825,-1.273519 -4.46845,-1.275371 -0.57205,0.003 -1.14213,0.0634 -1.70067,0.17984 0.76217,-1.5797982 1.16018,-3.3072212 1.1653,-5.0575902 1.7e-4,-6.531348 -5.35432,-11.82614 -11.959467,-11.82614 -1.85744,0.003 -3.68902,0.43066 -5.34955,1.253652 -0.97685,-14.4995628 -13.2631,-25.7717028 -28.09287,-25.7740638 -15.19751,0.0161 -27.64009,11.845871 -28.11457,26.7301408 0.98471,-2.47433 0.3063,-11.3020198 -8.752,-11.9768898 z"
       id="path1364-8-2-9"
       inkscape:connector-curvature="0"
       sodipodi:nodetypes="ccccccccccccccccccccccccccccccccccccccccccccccccccccccccccccccccccccccccccccccccccccccccccccccccccccccccccccccccccccccccccccccccccccccccccccccccccccccccc" />
    <path
       style="opacity:1;fill:url(#linearGradient860);fill-opacity:1;fill-rule:nonzero;stroke:none;stroke-width:0.24188724;stroke-miterlimit:4;stroke-dasharray:none;stroke-opacity:1"
       d="m 701.34766,599.16602 a 19.039362,31.524642 86.962027 0 0 -3.14454,0.0117 19.039362,31.524642 86.962027 0 0 -28.49804,11.9668 19.787251,40.415116 81.80682 0 0 -39.29492,-7.19336 19.787251,40.415116 81.80682 0 0 -34.75586,16.9375 38.964882,19.077216 2.2457039 0 0 -4.34766,-0.29297 38.964882,19.077216 2.2457039 0 0 -39.55273,17.60547 38.964882,19.077216 2.2457039 0 0 21.92382,18.09961 69.277961,44.381307 3.5480954 0 0 -8.36914,0.41602 57.568167,24.726959 0.08105156 0 0 -56.66015,-18.03321 57.568167,24.726959 0.08105156 0 0 -50.63477,14.07813 20.540263,12.504546 0 0 0 -6.22851,-0.60352 20.540263,12.504546 0 0 0 -9.14649,1.32422 16.97422,30.332401 84.924482 0 0 -25.02539,-4.42773 16.97422,30.332401 84.924482 0 0 -28.15234,19.83593 16.97422,30.332401 84.924482 0 0 18.08008,13.3418 60.904358,15.899674 3.2011251 0 0 55.3789,12.77344 60.904358,15.899674 3.2011251 0 0 25.02344,-0.0312 20.540263,12.504546 0 0 1 0.002,0.002 20.540263,12.504546 0 0 0 18.30469,6.83399 20.540263,12.504546 0 0 0 3.12109,-0.1543 69.277961,44.381307 3.5480954 0 0 67.91407,43.51367 69.277961,44.381307 3.5480954 0 0 48.44531,-10.30078 69.277961,44.381307 3.5480954 0 0 65.99023,35.80664 69.277961,44.381307 3.5480954 0 0 40.5293,-6.5332 103.81899,58.77266 0 0 0 93.45508,33.29101 103.81899,58.77266 0 0 0 103.6875,-57.29882 66.419418,36.619919 0 0 0 55.0039,-36.07032 66.419418,36.619919 0 0 0 -66.41992,-36.62109 66.419418,36.619919 0 0 0 -44.75586,9.61523 69.277961,44.381307 9.8350982 0 0 -51.13476,-24.83203 69.277961,44.381307 9.8350982 0 0 -41.95313,2.32813 34.82143,34.464288 0 0 0 -25.76562,-12.00391 26.988528,9.309957 73.45423 0 0 -5.98242,-10.88672 18.283461,11.042329 9.6605809 0 0 11.53515,-7.68359 18.283461,11.042329 9.6605809 0 0 -15.5332,-14.19336 18.283461,11.042329 9.6605809 0 0 -16.02149,1.97266 19.039362,31.524642 86.962027 0 0 -27.01757,-12.59375 z m 34.9414,31.36914 a 18.283461,11.042329 9.6605809 0 0 0.82227,0.23632 26.988528,9.309957 73.45423 0 0 -0.0918,0.35743 84.285711,48.928564 0 0 0 -0.73047,-0.59375 z"
       transform="scale(0.26458333)"
       id="path966"
       inkscape:connector-curvature="0" />
  </g>
</svg>
