<?xml version="1.0" encoding="UTF-8" standalone="no"?>
<!-- Created with Inkscape (http://www.inkscape.org/) -->

<svg
   xmlns:osb="http://www.openswatchbook.org/uri/2009/osb"
   xmlns:dc="http://purl.org/dc/elements/1.1/"
   xmlns:cc="http://creativecommons.org/ns#"
   xmlns:rdf="http://www.w3.org/1999/02/22-rdf-syntax-ns#"
   xmlns:svg="http://www.w3.org/2000/svg"
   xmlns="http://www.w3.org/2000/svg"
   xmlns:xlink="http://www.w3.org/1999/xlink"
   xmlns:sodipodi="http://sodipodi.sourceforge.net/DTD/sodipodi-0.dtd"
   xmlns:inkscape="http://www.inkscape.org/namespaces/inkscape"
   width="1081.89mm"
   height="220.9917mm"
   viewBox="0 0 1081.89 220.9917"
   version="1.1"
   id="svg1533"
   inkscape:version="0.92.4 5da689c313, 2019-01-14"
   sodipodi:docname="foreground.svg"
   inkscape:export-filename="/home/james/dev/a-d.github.io/2020/images/foreground.01.png"
   inkscape:export-xdpi="100.13"
   inkscape:export-ydpi="100.13">
  <defs
     id="defs1527">
    <linearGradient
       id="linearGradient7213"
       inkscape:collect="always">
      <stop
         id="stop7209"
         offset="0"
         style="stop-color:#0c0000;stop-opacity:0.125" />
      <stop
         id="stop7211"
         offset="1"
         style="stop-color:#00091f;stop-opacity:1" />
    </linearGradient>
    <linearGradient
       id="linearGradient7207"
       inkscape:collect="always">
      <stop
         id="stop7203"
         offset="0"
         style="stop-color:#0c0000;stop-opacity:0.125" />
      <stop
         id="stop7205"
         offset="1"
         style="stop-color:#00091f;stop-opacity:1" />
    </linearGradient>
    <linearGradient
       id="linearGradient7201"
       inkscape:collect="always">
      <stop
         id="stop7197"
         offset="0"
         style="stop-color:#0c0000;stop-opacity:0.125" />
      <stop
         id="stop7199"
         offset="1"
         style="stop-color:#00091f;stop-opacity:1" />
    </linearGradient>
    <linearGradient
       id="linearGradient7195"
       inkscape:collect="always">
      <stop
         id="stop7191"
         offset="0"
         style="stop-color:#0c0000;stop-opacity:0.125" />
      <stop
         id="stop7193"
         offset="1"
         style="stop-color:#000b25;stop-opacity:1" />
    </linearGradient>
    <linearGradient
       inkscape:collect="always"
       id="linearGradient7112">
      <stop
         style="stop-color:#0c0000;stop-opacity:0.125"
         offset="0"
         id="stop7108" />
      <stop
         style="stop-color:#000f34;stop-opacity:1"
         offset="1"
         id="stop7110" />
    </linearGradient>
    <linearGradient
       id="linearGradient7094"
       inkscape:collect="always">
      <stop
         id="stop7090"
         offset="0"
         style="stop-color:#000000;stop-opacity:1" />
      <stop
         id="stop7092"
         offset="1"
         style="stop-color:#460000;stop-opacity:1" />
    </linearGradient>
    <linearGradient
       id="linearGradient7088"
       inkscape:collect="always">
      <stop
         id="stop7084"
         offset="0"
         style="stop-color:#0c0000;stop-opacity:1" />
      <stop
         id="stop7086"
         offset="1"
         style="stop-color:#3d0000;stop-opacity:1" />
    </linearGradient>
    <linearGradient
       id="linearGradient7076"
       inkscape:collect="always">
      <stop
         id="stop7072"
         offset="0"
         style="stop-color:#150000;stop-opacity:1" />
      <stop
         id="stop7074"
         offset="1"
         style="stop-color:#2a0000;stop-opacity:1" />
    </linearGradient>
    <linearGradient
       id="linearGradient7064"
       inkscape:collect="always">
      <stop
         id="stop7060"
         offset="0"
         style="stop-color:#330101;stop-opacity:1" />
      <stop
         id="stop7062"
         offset="1"
         style="stop-color:#030000;stop-opacity:1" />
    </linearGradient>
    <linearGradient
       inkscape:collect="always"
       id="gradient">
      <stop
         style="stop-color:#030000;stop-opacity:1"
         offset="0"
         id="stop7040" />
      <stop
         style="stop-color:#2a0000;stop-opacity:1"
         offset="1"
         id="stop7042" />
    </linearGradient>
    <linearGradient
       id="linearGradient6886"
       osb:paint="solid">
      <stop
         style="stop-color:#ff0000;stop-opacity:1;"
         offset="0"
         id="stop6884" />
    </linearGradient>
    <linearGradient
       inkscape:collect="always"
       xlink:href="#linearGradient7094"
       id="linearGradient6998"
       x1="355.97775"
       y1="50.014629"
       x2="358.70779"
       y2="216.92645"
       gradientUnits="userSpaceOnUse"
       gradientTransform="translate(0,2.1166667)" />
    <linearGradient
       inkscape:collect="always"
       xlink:href="#gradient"
       id="linearGradient7000"
       x1="-251.12086"
       y1="68.575035"
       x2="-254.49217"
       y2="160.69901"
       gradientUnits="userSpaceOnUse" />
    <linearGradient
       inkscape:collect="always"
       xlink:href="#linearGradient7088"
       id="linearGradient7002"
       x1="128.35558"
       y1="78.635651"
       x2="126.77839"
       y2="234.44194"
       gradientUnits="userSpaceOnUse"
       gradientTransform="matrix(1,0,0,1.0573464,-3.3333333e-8,-4.6989853)" />
    <linearGradient
       inkscape:collect="always"
       xlink:href="#linearGradient7076"
       id="linearGradient7004"
       x1="-198.83499"
       y1="31.065012"
       x2="-195.95947"
       y2="159.97263"
       gradientUnits="userSpaceOnUse" />
    <linearGradient
       inkscape:collect="always"
       xlink:href="#linearGradient7064"
       id="linearGradient7052"
       x1="212.19531"
       y1="241.67522"
       x2="212.02826"
       y2="63.08905"
       gradientUnits="userSpaceOnUse" />
    <linearGradient
       inkscape:collect="always"
       xlink:href="#linearGradient7213"
       id="linearGradient7106"
       x1="-172.78236"
       y1="204.49033"
       x2="-172.79417"
       y2="228.22014"
       gradientUnits="userSpaceOnUse"
       gradientTransform="matrix(1,0,0,1.4139165,0,-100.63897)" />
    <linearGradient
       inkscape:collect="always"
       xlink:href="#linearGradient7207"
       id="linearGradient7164"
       x1="-533.08813"
       y1="176.95795"
       x2="-363.80209"
       y2="176.95795"
       gradientUnits="userSpaceOnUse" />
    <linearGradient
       inkscape:collect="always"
       xlink:href="#linearGradient7112"
       id="linearGradient7166"
       x1="-397.44196"
       y1="178.99483"
       x2="-311.73587"
       y2="178.99483"
       gradientUnits="userSpaceOnUse" />
    <linearGradient
       inkscape:collect="always"
       xlink:href="#linearGradient7201"
       id="linearGradient7168"
       x1="-385.44122"
       y1="169.86201"
       x2="-167.49071"
       y2="169.86201"
       gradientUnits="userSpaceOnUse" />
    <linearGradient
       inkscape:collect="always"
       xlink:href="#linearGradient7112"
       id="linearGradient7170"
       x1="-317.22739"
       y1="194.06476"
       x2="-285.84473"
       y2="194.06476"
       gradientUnits="userSpaceOnUse" />
    <linearGradient
       inkscape:collect="always"
       xlink:href="#linearGradient7112"
       id="linearGradient7172"
       x1="-299.20825"
       y1="187.61993"
       x2="-138.57925"
       y2="187.61993"
       gradientUnits="userSpaceOnUse" />
    <linearGradient
       inkscape:collect="always"
       xlink:href="#linearGradient7112"
       id="linearGradient7174"
       x1="-360.94748"
       y1="199.93224"
       x2="-337.02689"
       y2="199.93224"
       gradientUnits="userSpaceOnUse" />
    <linearGradient
       inkscape:collect="always"
       xlink:href="#linearGradient7195"
       id="linearGradient7176"
       x1="-16.036173"
       y1="177.35158"
       x2="547.10071"
       y2="177.35158"
       gradientUnits="userSpaceOnUse" />
    <linearGradient
       inkscape:collect="always"
       xlink:href="#linearGradient7112"
       id="linearGradient7178"
       x1="-218.09225"
       y1="170.62352"
       x2="0.18898809"
       y2="170.62352"
       gradientUnits="userSpaceOnUse" />
  </defs>
  <sodipodi:namedview
     id="base"
     pagecolor="#ffffff"
     bordercolor="#666666"
     borderopacity="1.0"
     inkscape:pageopacity="0.0"
     inkscape:pageshadow="2"
     inkscape:zoom="2.8"
     inkscape:cx="-4.712628"
     inkscape:cy="37.081549"
     inkscape:document-units="mm"
     inkscape:current-layer="layer2"
     showgrid="false"
     showborder="false"
     inkscape:pagecheckerboard="true"
     showguides="true"
     inkscape:guide-bbox="true"
     inkscape:window-width="1080"
     inkscape:window-height="1129"
     inkscape:window-x="0"
     inkscape:window-y="735"
     inkscape:window-maximized="0">
    <sodipodi:guide
       position="9.1778613,85.422611"
       orientation="0,1"
       id="guide2089"
       inkscape:locked="false" />
    <sodipodi:guide
       position="21.651071,-8.7448324e-06"
       orientation="0,1"
       id="guide2091"
       inkscape:locked="false" />
    <sodipodi:guide
       position="0.011929999,20.354036"
       orientation="1,0"
       id="guide7215"
       inkscape:locked="false" />
    <sodipodi:guide
       position="1081.89,101.80791"
       orientation="1,0"
       id="guide7217"
       inkscape:locked="false" />
  </sodipodi:namedview>
  <metadata
     id="metadata1530">
    <rdf:RDF>
      <cc:Work
         rdf:about="">
        <dc:format>image/svg+xml</dc:format>
        <dc:type
           rdf:resource="http://purl.org/dc/dcmitype/StillImage" />
        <dc:title></dc:title>
      </cc:Work>
    </rdf:RDF>
  </metadata>
  <g
     inkscape:groupmode="layer"
     id="layer2"
     inkscape:label="FG1"
     style="display:inline"
     transform="translate(533.33633,-22.146684)">
    <path
       style="fill:url(#linearGradient7052);fill-opacity:1;stroke:none;stroke-width:0.26458332px;stroke-linecap:butt;stroke-linejoin:miter;stroke-opacity:1"
       d="m -533.33633,157.71577 0.0119,-33.4387 4.99939,-0.0334 0.0334,6.71515 2.97339,-0.0334 0.0334,17.84024 1.36977,-0.0334 -0.0668,-12.26099 1.1693,-0.7684 9.48809,0.0334 v 16.70434 h 0.43431 l 0.0334,-27.59558 12.92918,-0.10022 -0.0334,8.01808 8.05148,-0.0668 v 4.47676 l 2.60588,0.0334 V 115.0897 l 2.80633,0.0668 -0.0334,-4.14267 h 7.34991 l 0.0668,4.14267 h 3.0402 v 15.93595 h 13.99823 l -0.10023,-56.327054 3.50793,0.03341 0.0334,-7.784224 h 0.53454 l -0.0334,-3.875408 c -1.60289,-0.691772 -0.72004,-2.191718 0.36747,-2.246735 0.99256,-0.0107 2.21512,1.323192 0.46774,2.271789 l 0.0334,3.883763 0.53454,-0.03341 0.0334,7.851042 7.24969,-0.03341 0.0334,13.998241 8.61943,-0.03341 -0.0668,42.128366 h 10.55714 l -0.0668,-10.82442 23.1522,0.0334 -0.0334,-35.480032 22.58425,0.06682 -0.0334,34.544582 2.23838,-0.0334 v 5.07812 l 5.67947,-0.0668 0.0334,-16.33685 2.83975,0.10022 -0.0334,-13.263242 3.24064,-1.302941 7.55037,0.03341 v -18.97616 l 7.61719,0.03341 -0.0334,10.724189 1.8709,-0.968851 12.19417,0.03341 -0.0668,63.844005 0.50114,-0.0668 -0.0334,-26.19241 8.75307,-0.73499 h 11.55941 l 0.0334,27.09445 2.67269,0.0334 V 121.3371 l 5.07812,0.0334 -0.0668,-6.04697 3.40768,-0.63477 25.14359,0.26845 V 64.190289 l 3.80338,0.07087 0.0236,-12.236979 1.37017,0.04725 c -0.0173,-3.65542 3.19217,-4.432099 4.76098,-4.488468 -0.68644,-0.621016 -0.22385,-1.671942 0.69723,-1.661998 l 0.002,-0.855339 c -1.39413,-0.549026 -0.52446,-1.759807 0.0919,-1.770331 0.59425,0.009 1.59023,1.080772 0.0827,1.771763 l 0.0354,0.885884 c 0.73607,-0.0035 1.52136,0.825274 0.72051,1.677267 1.81902,-8.68e-4 4.7059,0.856938 4.99655,4.484087 l 2.10473,-0.03341 0.0334,12.127357 6.64962,-0.01794 V 85.16798 l 18.73344,-0.685081 0.14118,43.736401 h 23.78699 l 3.00678,-4.61039 21.38156,0.20045 0.0668,6.68174 3.0736,0.0668 0.13363,13.29666 h 1.20271 l -0.0668,-7.55036 1.46998,-0.93545 8.71967,0.0334 0.0334,-9.38784 13.16302,0.0334 0.0334,7.88445 7.81763,-0.10022 v 4.6438 h 2.6727 l -0.0668,-22.14996 h 2.80633 v -4.04245 h 7.45014 v 4.04245 h 3.14042 l -0.13364,15.96936 h 13.96483 V 89.398392 l 7.98468,0.167045 -0.0334,-13.563928 8.18513,0.100224 0.0334,-7.817633 0.54074,-0.0069 -0.0118,-0.59059 h 0.72052 v 0.59059 l 0.53153,0.02363 0.0472,7.79576 3.21649,0.0052 0.0668,56.16001 10.623962,-0.0334 -0.06682,-10.7576 23.118815,0.10023 V 55.856068 h 3.775181 l -0.03341,-11.292139 2.973374,0.03341 0.03341,-9.053753 3.407688,0.06681 0.03702,-7.13886 0.581038,-0.01061 0.03341,-3.925521 c -1.884818,-1.429516 -0.339244,-2.362537 0.350793,-2.388721 0.646167,0.006 2.560679,0.967468 0.400904,2.388721 l 0.0167,3.908818 0.618062,0.03341 0.01669,7.149459 h 3.57473 l 0.03341,9.003641 h 2.722808 l 0.05011,11.25873 h 3.791887 l 0.03341,64.645817 2.238383,0.0167 0.06682,5.06141 5.712886,-0.0167 -0.0167,-16.1531 2.722806,-0.0167 -0.0167,-13.313365 3.624842,-1.436574 7.249686,0.03341 -0.03341,-18.775685 h 7.717409 l -0.06682,10.857825 1.971113,-1.002263 12.0605374,0.03341 -0.066817,63.543332 0.4343128,-0.0334 0.066818,-26.02537 8.519216,-0.80181 11.6930418,-0.0668 0.133635,27.06105 2.53906,0.0334 0.03341,-26.79377 5.11153,-0.0334 -0.03341,-6.1472 3.240643,-0.66818 25.290379,0.0334 -0.06321,-50.482559 h 3.874257 v -7.654017 l 13.86215,0.03886 0.03341,-4.443355 1.035669,0.03341 -0.03341,12.060537 h 6.781964 l -0.03341,20.847023 3.908817,-0.567947 14.833459,0.100224 0.06681,63.910824 0.534541,-0.0334 0.06682,-26.52651 10.05601,-0.7684 -0.0612,13.82953 54.82891,0.27998 19.76705,0.35645 v -19.74454 h 2.67269 l -0.0334,-4.10927 7.51695,0.0334 v 4.14268 l 3.00678,-0.0334 v 15.86913 H 207.5348 V 76.903542 l 3.57473,0.03341 -0.0334,-7.817633 h 0.55124 l 0.0334,-3.825296 c -1.84249,-1.073782 -0.63171,-2.157694 0.36749,-2.204974 0.87831,0.06081 2.18573,0.983096 0.26728,2.238383 l 0.0501,3.758478 h 0.43431 l 0.0835,7.851042 10.79101,-0.03341 -0.0167,-7.617182 h 0.61807 l 0.0334,-4.025747 c -1.72267,-0.914887 -0.72381,-2.122471 0.28397,-2.138156 0.93911,0.0017 2.29618,0.830935 0.3842,2.154862 l 0.0501,3.958929 h 0.53454 l 0.0334,7.700703 3.19053,-0.01669 0.0334,56.226829 10.70748,0.0501 -0.0167,-10.90793 23.0687,0.0501 -0.0668,-8.28535 22.55087,0.0334 -0.0334,7.21628 h 2.17157 v 5.11153 l 5.71288,-0.10023 -0.0334,-16.1698 2.70608,0.0334 0.16706,-13.330075 3.24064,-1.302941 7.51695,0.03341 0.0334,-18.8425 h 7.51695 l -0.0668,10.557145 h 0.50112 l 1.60364,-0.768401 h 12.06053 v 63.676962 h 0.46773 v -26.1256 l 8.25193,-0.73499 12.02714,-0.0334 -0.0334,27.09445 h 2.67269 V 123.6423 h 5.07812 l 0.10022,-6.1472 3.57474,-0.63476 24.88948,0.0668 -0.0334,-50.614162 3.74179,0.03341 -0.0334,-10.958052 6.11378,0.06682 V 61.001 h 8.92014 v 5.378799 l 6.54809,-0.03341 0.0668,20.88043 0.83523,-0.06682 3.80857,-0.56795 h 14.19871 l -0.0334,63.877421 h 0.53454 l 0.0668,-26.49309 10.49034,-0.83522 9.88896,0.0334 0.0334,8.71967 11.09168,0.0334 -0.0668,10.59055 h 1.90429 v -4.6104 l 9.05375,0.10023 0.0334,-12.02713 5.47902,-0.0334 v 6.58151 h 2.97338 v 17.87365 l 1.20269,0.0668 -0.0334,-12.12736 1.30294,-0.70158 5.24516,-0.0334 0.0334,-10.25646 h 13.12961 l -0.0334,7.91786 7.91784,-0.10023 -0.0668,4.67722 2.63927,-0.0668 v -21.94951 l 2.80636,0.0334 0.0334,-4.24291 7.41674,0.0334 v 4.00905 l 2.90656,2.03793 -0.0334,13.96483 14.03165,0.0334 -0.0334,-8.61945 9.304,0.0334 v 32.60353 85.42262 l -1081.723,-4e-5 z"
       id="path2096"
       inkscape:connector-curvature="0"
       sodipodi:nodetypes="ccccccccccccccccccccccccccccccccccccccccccccccccccccccccccccccccccccccccccccccccccccccccccccccccccccccccccccccccccccccccccccccccccccccccccccccccccccccccccccccccccccccccccccccccccccccccccccccccccccccccccccccccccccccccccccccccccccccccccccccccccccccccccccccccccccccccccccccccccccccccccccccccccccccccccccccccc" />
  </g>
  <g
     inkscape:groupmode="layer"
     id="layer3"
     inkscape:label="FG2"
     style="display:inline"
     transform="translate(533.33633,-22.146684)">
    <path
       style="fill:url(#linearGradient6998);fill-opacity:1;fill-rule:nonzero;stroke:none;stroke-width:0.20593901px;stroke-linecap:butt;stroke-linejoin:miter;stroke-opacity:1"
       d="m 315.39766,161.05396 82.86064,-0.0408 v -2.28536 l -5.6651,0.0606 v -14.89031 l 1.70993,-0.0577 -0.0535,-5.82915 c 4.92728,-1.46523 9.71912,-3.1548 12.54785,-8.09554 l 2.79603,-4.32588 -1.24689,-0.28566 -1.398,1.14268 c -8.84406,3.15788 -15.47976,2.454 -21.34806,0.4081 v -2.97917 l 0.90684,-0.12244 0.0756,-2.89752 -0.68011,-0.0409 -0.0378,-7.10096 h -0.41562 l 0.0378,-5.87667 h 2.72046 l -0.0378,-4.97886 c 4.23099,-1.29076 8.46615,-2.57627 10.54179,-6.570449 l 2.68268,-4.081018 -1.39801,-0.326481 -1.05797,1.305921 c -7.83143,2.872783 -12.93638,2.043495 -17.26735,0.16324 l -0.0756,-2.77509 c 4.72314,-1.137649 6.91756,-2.850286 7.82133,-4.856417 l 2.75823,-3.876969 -1.20908,-0.326479 -1.17131,1.387549 c -4.96338,1.499802 -9.62839,2.032824 -13.48894,-0.04085 v -2.73428 c 2.53114,-0.501644 4.69321,-1.449723 5.9699,-3.468869 l 2.72045,-3.713728 -1.32245,-0.28567 -1.13352,1.55078 c -5.29109,1.666531 -8.37565,0.711584 -11.18417,-0.571341 C 365.7059,69.932 360.73721,65.683502 356.99793,60.456575 l -0.18891,-8.325277 c -0.31901,-0.712919 -0.58299,-0.490214 -0.83127,0 l -0.26448,8.325277 c -3.95651,5.751285 -9.0739,9.573604 -14.32019,13.181694 -5.05545,2.477675 -8.04926,1.205066 -11.25968,0.326482 l -1.13352,-1.305921 -1.36024,0.326479 2.04036,3.142381 c 1.17314,1.77685 3.28544,3.269987 6.65,3.876969 v 2.938337 c -5.84487,1.999029 -9.72873,0.876652 -13.71565,-0.08162 l -0.94461,-1.224309 -1.32244,0.24486 1.96477,3.387249 c 1.25129,3.223482 4.78035,4.432083 8.61481,5.223708 l -0.0378,3.224 c -6.30881,2.170147 -11.67523,1.101652 -16.8895,-0.489721 l -0.94461,-1.26511 -1.13353,0.08162 1.58693,3.224011 c 1.3479,3.758672 5.2268,6.321336 11.41082,7.794756 l -0.0378,4.734 1.85143,0.0409 v 5.87666 h -0.37785 l 0.0756,7.10097 h -0.52899 l 0.0378,3.06077 0.75568,-0.0408 v 3.42806 c -5.76296,1.86324 -12.56237,1.7008 -20.44122,-0.57134 l -0.94461,-1.34675 -1.28466,0.12244 1.28466,2.97913 c 3.0007,6.4805 8.58069,8.21471 14.24463,9.79445 l -0.0755,5.5502 h 1.54915 l -0.0378,14.77328 -5.4787,0.0409 z"
       id="path6763"
       inkscape:connector-curvature="0"
       sodipodi:nodetypes="ccccccccccccccccccccccccccccccccccccccccccccccccccccccccccccccccccccccccccccccc" />
    <path
       style="fill:url(#linearGradient7000);fill-opacity:1;fill-rule:nonzero;stroke:none;stroke-width:0.20674291px;stroke-linecap:butt;stroke-linejoin:miter;stroke-opacity:1"
       d="m -300.12965,153.30404 0.0547,8.01745 h 97.13181 v -8.07432 h -10.65882 l -0.0546,-19.44663 h 1.47584 v -2.33133 l -1.20253,-0.0569 -0.0547,-7.2214 c 5.28321,-1.94971 10.87216,-1.84657 15.08632,-10.97427 l 1.31185,-2.84306 c -9.58261,4.42307 -16.65796,3.35023 -23.39473,1.53525 -10.38144,-7.24725 -19.11135,-15.754402 -26.40106,-25.360217 l 0.005,-3.780459 h -2.7442 l 0.0386,-14.19312 c -0.44935,-0.738566 -0.93147,-1.170194 -1.58469,0 v 14.273534 l -2.62826,0.04025 -0.0386,3.658849 c -8.16247,11.21537 -17.13748,19.237503 -26.61004,25.304343 -7.70714,2.86602 -15.41429,1.87576 -23.12142,-1.25095 l 1.20253,2.89993 c 2.59626,6.65029 7.73386,8.7686 13.17319,10.34879 v 7.39199 h -0.98388 v 2.72936 h 1.42117 l -0.0546,19.04861 z"
       id="path6788"
       inkscape:connector-curvature="0"
       sodipodi:nodetypes="ccccccccccccccccccccccccccccccc" />
    <path
       style="fill:url(#linearGradient7002);fill-opacity:1;fill-rule:nonzero;stroke:none;stroke-width:0.20462283px;stroke-linecap:butt;stroke-linejoin:miter;stroke-opacity:1"
       d="m 98.534809,161.95918 -0.0389,-15.13336 c -9.678439,-0.95645 -12.698982,-3.36284 -15.027001,-5.92004 7.95542,2.10465 19.753332,2.08639 27.335942,-10.35026 h 0.69893 l 0.0777,-13.09465 c -7.15654,-1.49455 -8.74999,-3.83165 -10.17332,-6.19452 8.52936,3.21521 14.89899,-0.33715 19.18176,-10.42875 l 1.74733,1.09776 v -9.801391 c -4.53469,-1.038412 -6.03258,-3.002475 -6.7175,-5.214344 5.17779,2.900214 9.3883,-0.137667 12.73579,-8.47348 0.38439,0.850156 1.13488,1.293716 2.25144,1.330683 h 23.7225 c 1.66037,0.05362 2.30647,-0.831551 3.13003,-1.552464 1.40839,5.429308 4.75809,11.952604 12.52022,8.760314 -0.69366,1.6956 -1.74118,3.409059 -6.75432,5.322727 l 0.01,4.380139 0.013,5.821756 -1.56033,0.33268 -0.0161,-10.293189 -4.97042,0.01648 -0.0193,10.546309 h -1.1843 l 0.0193,-10.507105 -5.43612,0.01958 0.0388,10.467895 -2.01913,0.0196 -0.0194,-10.507102 -4.67895,0.01958 -0.0971,10.467912 -1.12605,-0.0196 V 92.624053 h -5.02842 l -0.0777,10.409087 -1.92205,0.0196 0.0389,-10.350278 h -4.97018 l -0.0777,10.330688 h -1.24253 l 0.11648,-10.36991 -5.009,0.05882 0.0777,10.11505 37.56751,-0.0589 c 1.37784,-0.21981 2.6939,-0.53322 3.49465,-1.62704 3.74744,8.68402 9.55247,13.18639 19.00058,10.28477 -0.92164,2.66745 -4.07618,4.85799 -10.37859,6.37619 v 13.41771 l -1.97694,0.55447 -0.14119,-13.69621 -2.83455,-0.0392 -0.0388,14.27083 h -1.0484 l 0.0388,-14.23162 h -2.71806 l 0.0388,14.46684 -1.1649,-0.0392 0.0777,-14.50607 -2.52392,0.0785 -0.0389,14.42764 h -1.00956 v -14.34925 h -2.60157 l -0.0777,14.38844 h -0.97073 l -0.0777,-14.0748 H 153.595 l -0.15532,13.99638 h -2.40743 l 0.0388,-13.72192 -2.6404,-0.0784 v 13.83956 h -1.35904 l -0.0389,-13.95717 -2.44626,-0.0392 0.11649,14.03561 -1.16489,-0.0392 0.0389,-13.91798 -2.52392,-0.0391 v 13.91798 l -1.0484,-0.0392 -0.0388,-13.80036 -2.60158,-0.0392 -0.0389,13.83959 h -1.08722 l 0.0777,-13.87878 -2.52392,-0.0392 -0.0388,13.95715 -2.60157,-0.0392 0.0777,-13.83956 -2.60158,-0.0784 -0.0388,13.99637 -1.16488,-0.0392 0.0777,-14.07479 -2.44626,0.0392 -0.11649,14.23162 -1.04839,-0.0392 0.0777,-14.19243 h -2.64041 v 14.11402 l -1.12605,-0.0782 0.11649,-13.99639 h -2.56275 l -0.0777,13.87879 -1.12605,-0.0784 0.0389,-13.83957 h -2.60158 l -0.0777,13.48671 2.64041,0.31366 53.27403,-0.0393 c 1.70742,-0.40446 3.68185,-0.57299 4.85368,-1.45061 2.93244,5.87621 12.8415,14.33669 27.29712,10.07581 -1.67135,1.96802 -2.64501,3.92637 -14.67755,6.03767 l 0.0777,15.13336 z"
       id="path6790"
       inkscape:connector-curvature="0"
       sodipodi:nodetypes="ccccccccccccccccccccccccccccccccccccccccccccccccccccccccccccccccccccccccccccccccccccccccccccccccccccccccccccccccccc" />
    <path
       style="fill:url(#linearGradient7004);fill-opacity:1;fill-rule:nonzero;stroke:none;stroke-width:0.23306356px;stroke-linecap:butt;stroke-linejoin:miter;stroke-opacity:1"
       d="m -232.63638,163.9656 0.1009,-4.03205 12.20895,0.11746 0.0504,-3.24913 h -1.1099 l 0.0504,-1.72241 h 0.95856 v -5.9502 c -11.43535,0.10208 -18.79864,-1.7474 -21.08819,-6.02847 -0.86792,-1.20155 -1.84626,-2.35971 -1.71531,-3.95374 7.9258,1.66435 15.78173,2.69622 23.308,0.74377 l 0.1009,-1.52668 h 1.3117 l 0.15135,-4.54094 2.37116,0.15658 0.1009,-2.97509 -0.6054,-0.0392 0.0504,-1.4484 h 0.35315 l 0.0504,-3.56228 c -11.67758,-0.15958 -22.22854,-0.99159 -25.27555,-6.3025 -1.4653,-1.78163 -1.96524,-3.16378 -1.41261,-4.11033 7.43076,1.73494 14.96026,2.91824 23.05575,0.93951 l 0.0504,-1.48755 0.75675,-0.0783 0.1009,-4.42349 5.29727,0.0391 0.0504,-2.11388 -0.65585,-0.11744 v -1.17437 l 0.7063,-0.0392 v -3.4448 c -21.88426,-0.6122 -26.94713,-3.32959 -28.17492,-6.526953 -1.00768,-1.106836 -2.13632,-2.162484 -1.71234,-3.875254 6.8924,1.405043 13.66964,2.9747 23.04521,0.830411 l 0.0714,-1.494741 1.42694,-0.16608 v -4.428859 l 7.49148,0.0554 0.14269,-1.384015 -0.42375,-0.194945 v -0.978653 l 0.4036,-0.03911 v -2.270463 c -13.28549,-0.286358 -24.7911,-1.279303 -26.63771,-6.106766 -1.9999,-1.850482 -2.04466,-2.834054 -2.21981,-3.875456 7.65591,2.390904 15.43956,3.552878 23.76205,-0.469749 6.81015,-5.191748 11.95451,-10.72818 14.73146,-16.754471 l 0.5045,-24.857674 c 0.65904,-0.769197 1.34229,-0.937156 2.06846,-0.03918 l 0.60541,24.975112 c 2.93311,5.038203 6.90141,10.138197 13.31885,15.384361 5.30112,2.972061 9.62411,6.674616 25.32601,1.879013 -0.80417,1.384791 0.25922,1.69618 -3.83422,4.97153 -1.88446,3.852636 -13.17775,4.404983 -24.66667,4.888722 l -0.0357,2.352829 h 0.42809 v 0.941136 l -0.46376,0.05532 v 1.716184 l -9.6319,0.0277 V 85.29512 c -1.44678,-2.007112 -2.73693,-1.279598 -3.99545,0 l -0.0357,2.726929 20.83344,0.04112 -0.0357,4.567262 h 1.28425 l -0.10702,1.522418 c 6.93971,0.653001 13.80008,1.448052 22.43874,-0.941128 0.3851,1.402505 -1.2096,3.170769 -3.63871,5.093188 -4.25855,5.448891 -15.68788,4.130691 -24.43647,5.342311 v 3.21093 l 0.49943,0.0277 v 1.21793 l -0.53511,0.11073 v 2.49123 l -11.5226,-0.33216 0.0357,-3.23861 c -1.42738,-2.05247 -3.0594,-2.795 -5.24403,0 v 3.12788 l 21.65393,0.083 0.0713,4.6503 h 1.10588 c 0,0 0.24795,1.60311 0,1.71619 -2.09243,0.95436 17.16609,1.34314 22.83116,-0.9965 -0.53719,1.70696 -1.31419,3.41392 -3.71007,5.12087 -4.11282,4.93668 -14.22187,4.4231 -22.72413,5.37 l -0.0357,3.37701 0.46376,0.0553 v 1.24563 l -0.46376,0.0831 0.0713,3.26628 -13.80572,-0.19376 0.0713,-4.31816 c -2.01112,-2.82356 -4.11287,-2.86905 -6.31424,0.13842 l 0.0357,3.90491 22.47442,0.16409 v 4.70567 h 1.24858 l -0.14269,1.4117 c 4.66476,1.02849 10.58129,1.49462 22.40307,-0.692 -0.34856,1.34808 -1.10086,2.80056 -3.71006,4.73333 -3.32217,4.365 -10.82285,4.46389 -17.58713,5.31462 l -0.0916,5.67654 h 1.00901 l 0.10089,1.8007 -1.2108,0.0783 0.1009,3.09254 -17.55667,-0.0783 0.15135,-5.16727 c -2.43031,-3.44751 -5.64207,-3.20894 -8.12249,0.15659 l -0.0505,4.65837 37.38361,0.11743 v 4.07117 z"
       id="path6794"
       inkscape:connector-curvature="0"
       sodipodi:nodetypes="cccccccccccccccccccccccccccccccccccccccccccccccccccccccccccccccccccccccccccccccccccsccccccccccccccccccccccccccccccc" />
  </g>
  <g
     inkscape:groupmode="layer"
     id="layer4"
     inkscape:label="FG3"
     style="display:inline"
     transform="translate(533.33633,-22.146684)">
    <path
       style="fill:url(#linearGradient7106);fill-opacity:1;stroke:none;stroke-width:0.31461132px;stroke-linecap:butt;stroke-linejoin:miter;stroke-opacity:1"
       d="m -532.94642,160.97029 -0.37798,81.04578 1081.87808,1.12231 -0.28239,-81.80728 z"
       id="path7098"
       inkscape:connector-curvature="0"
       sodipodi:nodetypes="ccccc" />
    <path
       style="fill:#000000;fill-opacity:1;stroke:none;stroke-width:0.26458332px;stroke-linecap:butt;stroke-linejoin:miter;stroke-opacity:1"
       d="m 548.55368,222.35054 c -26.58035,0.1158 -125.39563,-6.51681 -188.80891,-6.01762 -112.05035,-1.05723 -151.74663,10.10346 -187.00965,10.13669 -169.9485542,0.5415 -241.440625,-13.35918 -306.16071,-13.22917 -105.24649,-0.13493 -238.99397,15.08709 -321.65774,15.49703 -25.0325,-0.1918 -65.15476,-5.65353 -78.24107,-5.95313 l 0.15508,20.354 1081.723,4e-5 z"
       id="path7096"
       inkscape:connector-curvature="0"
       sodipodi:nodetypes="ccccccccc" />
    <path
       style="fill:none;stroke:#000000;stroke-width:0.26458332px;stroke-linecap:butt;stroke-linejoin:miter;stroke-opacity:1"
       d="m -361.41523,201.31751 c 8.90557,-1.97713 16.5661,-2.08668 24.45517,-2.53906 -5.10336,1.1292 -9.94878,1.8715 -15.368,3.4745 -2.53613,-0.84955 -5.89465,-0.80195 -9.08717,-0.93544 z"
       id="path7119"
       inkscape:connector-curvature="0"
       sodipodi:nodetypes="cccc" />
  </g>
  <g
     inkscape:groupmode="layer"
     id="layer7"
     inkscape:label="FG4"
     style="display:inline"
     transform="translate(533.33633,-22.146684)">
    <path
       style="fill:url(#linearGradient7164);fill-opacity:1;stroke:none;stroke-width:0.26458332px;stroke-linecap:butt;stroke-linejoin:miter;stroke-opacity:1"
       d="m -528.79275,182.47501 -4.29541,2.07707 c 2.18178,-1.95288 4.44392,-3.90575 7.37053,-5.85863 4.29516,-6.0505 16.01949,-8.01685 24.23774,-10.58333 27.30079,-8.0931 59.61989,-5.92647 83.06024,-5.19718 l 3.96875,0.28349 c 11.71203,-3.73771 24.37548,-2.52805 36.94719,-1.79539 5.54438,0.42119 10.71031,0.95984 13.70163,2.17336 l -16.25298,1.41741 c -4.81966,0.24709 -9.62799,0.50389 -13.22917,1.79539 5.44916,0.85402 10.89831,2.12939 16.34747,3.87425 l -8.40997,2.74033 0.47247,0.66146 -2.74032,0.47247 c -10.1759,4.16096 -18.14249,8.32192 -30.5286,12.48288 -10.332,3.17619 -15.81121,6.34997 -39.28862,6.28083 -18.90048,0.0663 -31.9096,-2.07669 -46.9058,-3.4745 -7.31571,-0.19933 -5.62735,-1.07397 -21.94712,-0.598 -3.31681,-0.52084 -4.66097,-1.26086 -6.47053,-1.94917 1.75991,-1.43386 2.9918,-3.06534 3.9625,-4.80274 z"
       id="path7115"
       inkscape:connector-curvature="0"
       sodipodi:nodetypes="cccccccccccccccccccc" />
    <path
       style="fill:url(#linearGradient7166);fill-opacity:1;stroke:none;stroke-width:0.26458332px;stroke-linecap:butt;stroke-linejoin:miter;stroke-opacity:1"
       d="m -375.37759,174.20499 c -9.36566,3.46964 -16.85556,7.50768 -22.06438,12.23697 11.28154,-4.96489 22.2953,-7.31889 33.07292,-7.37053 l -0.85043,3.1183 c 13.76365,1.75896 27.60639,3.9134 41.01042,3.87426 l -5.76414,-1.03944 10.48883,-2.17336 -5.00819,-0.66146 c 3.63307,-0.13949 8.12866,-1.35713 12.7567,-2.74033 -6.32862,-0.77356 -13.61209,-0.83099 -21.45014,-0.47247 l 12.37871,-2.83482 c -9.6714,0.28483 -19.10932,0.36212 -29.8601,1.6064 0,0 -1.5811,-0.73281 2.36233,-1.79539 l -6.99254,-2.36235 2.74031,-0.75595 c -11.00915,-0.40692 -21.86195,-3.70238 -34.20684,2.17337 3.84914,-0.32807 8.43084,-1.48027 11.38654,-0.8032 z"
       id="path7117"
       inkscape:connector-curvature="0"
       sodipodi:nodetypes="ccccccccccccccccc" />
    <path
       style="display:inline;fill:url(#linearGradient7168);fill-opacity:1;stroke:none;stroke-width:0.26458332px;stroke-linecap:butt;stroke-linejoin:miter;stroke-opacity:1"
       d="m -346.32069,166.6927 c -6.30956,-5.34058 -32.74441,-4.69365 -36.0967,0.47248 l 2.0316,0.33073 c -2.76298,0.60374 -3.601,1.92935 -5.05542,3.0238 7.98459,-1.09809 15.9627,-2.02145 23.85975,-0.75595 4.01442,0.71097 8.13774,1.33345 10.7723,3.16555 l 1.0867,4.15774 19.41851,-1.65364 -5.6224,-1.55916 c 6.9285,-1.76269 13.74928,-3.40419 19.2768,-3.59077 -4.28545,0.96479 -7.95464,2.34042 -10.11086,4.7247 2.36398,-0.80176 4.72534,-1.59739 6.56733,-1.18117 l -3.68525,3.63802 c 12.07462,-4.55293 21.22503,-2.69508 31.13577,-2.5041 l -3.59077,-2.50409 4.63021,0.66146 -7.65403,3.87426 c 10.80382,-1.80867 21.60764,-1.75914 32.41146,-1.84264 -1.72083,0.86507 -3.12392,1.91548 -3.77976,3.40179 25.97749,-6.35797 50.2894,-4.85572 68.27196,-2.69308 l -7.13431,-3.59078 c 15.17766,-1.04894 28.43571,2.16793 42.0971,4.48847 -11.76071,-6.86648 -30.15614,-9.54261 -48.52269,-12.23698 0,0 -7.96481,-1.84962 -11.02222,-1.91699 -8.21112,-3.24628 -53.43859,-0.51837 -65.70695,3.71238 -17.53663,-4.71522 -35.54781,-2.31219 -53.57813,0.37797 z"
       id="path7121"
       inkscape:connector-curvature="0"
       sodipodi:nodetypes="cccccccccccccccccccccccccc" />
    <path
       style="fill:url(#linearGradient7170);fill-opacity:1;stroke:none;stroke-width:0.26458332px;stroke-linecap:butt;stroke-linejoin:miter;stroke-opacity:1"
       d="m -317.2274,196.51476 c 9.18076,-3.4485 20.84387,-4.19979 31.38266,-4.68532 -9.73906,-0.23997 -20.03562,-0.78246 -30.01387,1.84796 l 6.22687,-0.23763 c -3.0354,0.70458 -5.92561,1.50155 -7.59566,3.07499 z"
       id="path7125"
       inkscape:connector-curvature="0"
       sodipodi:nodetypes="ccccc" />
    <path
       style="fill:url(#linearGradient7172);fill-opacity:1;stroke:none;stroke-width:0.26458332px;stroke-linecap:butt;stroke-linejoin:miter;stroke-opacity:1"
       d="m -268.87315,183.54408 c -12.81177,4.14691 -21.87845,10.32686 -30.33509,16.83798 l 24.05428,-4.94448 -3.60815,4.94448 50.64757,-10.82441 -7.08264,-0.93545 c 12.26528,-5.07311 44.52161,9.56736 96.61793,-6.949 -14.8153,2.57487 -28.30395,3.34929 -40.62497,2.53906 l 2.80633,-1.06908 c -4.11348,-1.66238 -9.90149,-1.23161 -15.36799,-1.20272 l 4.00904,-1.87088 c -13.89965,-2.27107 -27.76991,-4.75525 -42.36222,-2.00452 l 4.67722,-3.20724 c -10.42187,1.25724 -20.86916,2.80678 -31.5392,6.91798 1.14104,-1.97493 4.31082,-3.4062 6.81677,-4.51255 -5.12465,1.69944 -8.55443,2.91613 -13.36348,6.78434 l -6.1472,2.00453 z"
       id="path7127"
       inkscape:connector-curvature="0"
       sodipodi:nodetypes="cccccccccccccccccc" />
    <path
       style="fill:url(#linearGradient7174);fill-opacity:1;stroke:none;stroke-width:0.26458332px;stroke-linecap:butt;stroke-linejoin:miter;stroke-opacity:1"
       d="m -360.94749,201.31751 c 4.93656,0.4796 10.61201,-0.14913 16.03616,-0.40091 l 7.88445,-2.53906 c -7.72962,-0.11762 -15.84827,1.51535 -23.92061,2.93997 z"
       id="path7129"
       inkscape:connector-curvature="0"
       sodipodi:nodetypes="cccc" />
    <path
       style="fill:url(#linearGradient7176);fill-opacity:1;stroke:none;stroke-width:0.26458332px;stroke-linecap:butt;stroke-linejoin:miter;stroke-opacity:1"
       d="m 547.10073,178.86687 -5.7463,-2.93997 4.67722,-1.33635 c -27.03454,-5.11414 -36.83154,-11.10312 -60.00202,-16.30344 -14.91626,-2.83893 -23.16781,-10.17879 -77.2409,5.34539 -15.35248,-1.73286 -30.72065,-3.44442 -48.50942,-1.87088 -21.15883,-7.66012 -42.31767,-4.70435 -63.4765,2.53906 -12.74285,4.35085 -25.52628,7.5761 -38.62045,5.21175 l 2.13816,2.00452 -4.67722,-2.53905 c 4.51363,0.17356 9.32236,-0.0463 12.82893,1.46998 l -2.40541,-2.93997 c 3.4174,0.0945 5.22489,0.87891 7.48353,1.46999 -4.05089,-5.1333 -11.95125,-6.30392 -22.04973,-5.21176 -3.77453,0.7842 -6.64281,0.20903 -11.76922,3.02106 l -7.27605,-1.32292 c 5.98462,-0.98457 13.06065,-1.46945 19.04527,-1.69814 -13.11121,-4.24684 -30.66276,-4.17659 -47.20449,-0.47522 -22.77056,-0.44208 -45.49676,-1.46077 -68.50818,1.22842 -8.25495,1.31689 -17.00028,1.91706 -23.71801,5.48066 l -5.19717,-1.22842 c 9.60689,-2.20486 17.52543,-2.06535 28.82068,-6.61459 -5.55165,-2.83287 -11.25701,-5.60744 -31.08854,-3.02381 -10.354321,2.54542 -21.127558,3.83409 -31.844494,5.29167 -9.102927,1.07093 -18.843301,0.97321 -27.308781,3.2128 l 6.614583,1.22842 -4.582959,0.51972 -14.693825,-2.22061 c 19.360092,-5.58458 32.175223,-2.28361 62.082589,-7.74852 -29.998766,-1.84221 -60.228513,-1.56914 -90.808779,0.56697 -10.6790584,4.13938 -14.370226,4.31895 -20.099416,5.6534 l 20.3124845,0.0668 -2.5390606,0.80181 c 9.5996761,1.20688 14.9408801,-2.39741 26.3928671,-0.13363 l -22.6510938,4.14267 -12.8289371,2.07134 5.1449383,3.14042 4.5435819,2.00452 -1.46998234,1.67043 4.14267754,2.47225 c 0,0 -1.6704344,0.80181 -1.2027127,1.06908 0.4677217,0.26727 5.3787992,1.20271 5.3787992,1.20271 l -16.4704846,4.07586 18.0406926,-1.40316 10.022607,2.00452 -11.0916847,3.0736 7.0158247,2.20497 -1.26953,0.60136 3.541321,1.26953 -2.338608,0.53454 7.483547,1.67043 -2.004522,0.60135 c 4.448494,0.83008 8.901069,1.65608 13.964832,1.87089 l -2.071338,-1.00226 1.202713,-1.00226 -1.737251,-0.46772 12.361214,-2.00452 c -7.505819,-1.49301 -15.011638,-1.74112 -22.517457,-1.87089 l 20.245668,-3.4745 -11.292139,-1.87089 4.610399,-0.33409 -10.490328,-3.8754 8.151721,-1.26953 -4.409948,-1.33635 3.541321,-2.13816 -13.76438,-2.93996 15.969354,-1.33635 25.457422,-1.60362 -7.015824,1.60362 5.412206,2.73951 -2.004521,0.40091 2.873148,1.20271 -9.554885,4.20949 c 11.209947,-2.25768 22.690823,-2.21247 34.14368,-2.40542 l -4.744032,-1.33635 c 3.626728,-1.1729 7.484814,-1.42037 11.358954,-1.60362 -2.959829,1.89136 -5.250884,4.16487 -7.817633,6.28084 5.058361,-2.62262 10.134226,-5.20674 15.501633,-7.14946 l 11.626218,-0.46773 -3.14041,2.87315 c 5.70786,-1.97971 11.46877,-3.16351 17.23888,-4.20949 l 1.46999,0.33408 -1.53681,3.67496 3.67496,2.07134 -19.37704,3.40769 -2.13816,1.67043 c 5.56802,2.32962 11.13621,0.11657 16.70435,-0.53454 3.67045,-0.15602 6.74797,-1.79438 11.09168,-0.26727 l -3.40768,3.20724 9.42125,0.0668 c 0.0637,1.89627 1.18074,2.73921 3.00678,2.87315 l -0.0668,1.00226 c 5.24694,-0.23084 8.87443,2.41736 13.09621,4.00904 7.20512,-1.20304 14.33141,-3.66739 21.64883,-3.07359 -0.60159,1.31645 -0.57685,2.53402 1.20271,3.4745 20.50227,-4.20724 31.24479,-12.29263 48.0417,-12.76212 l -1.80407,3.00678 26.32605,-7.34991 -1.06908,0.93544 c 14.0723,1.9611 28.17502,3.73968 42.49586,4.2095 l -7.88445,-1.20271 11.69778,-2.07945 -5.68423,-0.32598 7.81765,-2.93996 -29.73375,-2.13816 -2.07134,-1.26953 c 2.90974,-0.89965 5.5522,-0.59654 8.21854,-0.40091 l -5.34538,2.80634 26.72694,-1.00227 -6.81537,4.00905 c 4.58847,-0.6161 4.62175,0.92117 15.368,-2.60588 l 11.22532,-2.40543 h -5.07812 l 10.55716,-1.80407 -3.80859,2.2718 c 10.65048,-1.57608 20.99435,-1.92568 31.27052,-2.00453 l -3.27404,3.27405 c 13.17409,-2.45384 26.62924,-4.25186 40.55814,-4.94448 l -4.47675,1.13589 22.04971,-0.46772 -7.61716,2.13816 c 14.13453,-0.61254 26.35639,1.2761 37.21727,4.94448 l -9.75532,0.66818 3.67495,-1.67044 c -12.88671,-3.47901 -27.04842,-3.42725 -41.56043,-2.40542 l 5.41221,-2.87315 c -8.50563,0.82224 -17.04933,1.44148 -25.19013,4.2095 l 2.00451,-2.27179 c -4.96138,1.54681 -9.72087,4.30489 -14.43255,7.34991 l 2.07132,-2.6727 c -3.40768,0.50479 -6.81537,2.88833 -10.22305,4.81085 l 2.60588,-2.60588 c -13.07205,2.94316 -21.49493,10.23555 -30.86962,16.63753 l 23.8538,-5.27857 -3.67496,5.27857 50.17984,-10.62396 -6.88218,-0.93544 c 11.60945,-4.15392 18.87733,1.11032 44.29993,0.86862 10.60169,-0.17115 21.20337,0.21814 31.80506,-1.60362 l 19.24341,0.40091 -8.28535,-1.46998 c 14.78606,-0.37748 29.36212,-1.48999 43.89903,-2.73952 l -5.7463,-1.33634 c 13.3245,-0.4899 26.60875,-1.46285 39.75633,-4.07584 z"
       id="path7131"
       inkscape:connector-curvature="0"
       sodipodi:nodetypes="ccccccccccccccccccccccccccccccccccccccccsccccccccccccccccccccccccccccccccccccccccccccccccccccccccccccccccccccccccccccccccccccccccccccccccccccccc" />
    <path
       style="display:inline;fill:url(#linearGradient7178);fill-opacity:1;stroke:none;stroke-width:0.26458332px;stroke-linecap:butt;stroke-linejoin:miter;stroke-opacity:1"
       d="m -149.67093,173.52148 18.04069,-4.40995 -5.07812,-0.13363 c 13.33195,-2.63704 26.76743,-3.92831 40.224061,-4.94449 l -4.543581,1.60362 14.165284,1.46998 -12.428032,4.27631 c 22.350061,-2.27421 29.931354,6.72925 53.453905,2.40543 l -18.575231,-3.47451 3.073598,-1.33634 -5.503344,-0.61421 c 3.759784,-1.64103 11.007128,-1.05609 16.995934,-1.52395 l 4.772107,2.12082 c -4.377168,-0.82874 -6.018911,0.16613 -8.693455,0.47247 l 23.340031,1.7009 -4.913691,1.79538 16.252977,2.64584 -3.212798,1.41741 2.929315,1.88988 -6.709077,2.26785 4.346726,0.56697 -6.80357,2.36235 c 9.598101,-0.5289 19.2446874,-0.57296 28.72618909,-2.26786 l -5.38616059,-2.07887 3.0238094,-1.41741 c -4.6677053,-1.31722 -8.8060639,-1.46987 -12.8511899,-1.41741 l 2.267857,-1.41741 c -1.759531,-1.23133 -3.377606,-2.55696 -5.858631,-3.30729 5.297641,-1.34482 10.9085951,-2.32411 16.9616812,-2.78758 -4.4147844,-0.59179 -11.3782502,-0.0913 -18.3790922,0.42522 -0.942252,-1.07228 -3.688869,-1.24237 -6.614584,-1.32292 1.566191,-0.80951 2.992119,-1.66218 6.142114,-1.98437 -5.557506,-0.18017 -10.370736,-1.31727 -16.725447,-0.47247 -3.608514,-3.64398 -10.601906,-1.59521 -16.819938,-0.85045 -0.216794,-0.78745 1.169994,-1.5749 2.551337,-2.36235 l 12.567708,0.75595 c 8.712605,0.41595 15.754691,-1.46228 27.970239,-0.37797 l 8.976934,0.66146 c -8.557788,-1.87773 -17.246689,-3.49323 -26.552826,-3.87426 -11.883203,-1.80766 -20.041807,-1.27816 -35.151787,1.5119 l -5.953125,0.0945 c -14.714104,-4.83657 -34.309297,-3.21493 -51.310267,-0.47247 l -7.65402,0.18899 c -17.0688,-2.6351 -35.04404,-8.37803 -48.56994,1.13393 l -36.94717,2.17336 3.1183,1.6064 -7.08705,1.98437 c 17.38383,-1.5517 17.29323,1.80589 37.98661,-0.28348 l -6.3311,6.04762 c 5.4246,-3.31976 10.78838,-6.25435 15.68601,-6.23661 l -4.25223,2.64583 27.21428,-3.02381 3.68527,2.55134 z"
       id="path7133"
       inkscape:connector-curvature="0"
       sodipodi:nodetypes="cccccccccccccccccccccccccccccccccccccccccccccccccccccc" />
  </g>
</svg>
