<?xml version="1.0" encoding="UTF-8" standalone="no"?>
<!-- Created with Inkscape (http://www.inkscape.org/) -->

<svg
   xmlns:dc="http://purl.org/dc/elements/1.1/"
   xmlns:cc="http://creativecommons.org/ns#"
   xmlns:rdf="http://www.w3.org/1999/02/22-rdf-syntax-ns#"
   xmlns:svg="http://www.w3.org/2000/svg"
   xmlns="http://www.w3.org/2000/svg"
   xmlns:xlink="http://www.w3.org/1999/xlink"
   xmlns:sodipodi="http://sodipodi.sourceforge.net/DTD/sodipodi-0.dtd"
   xmlns:inkscape="http://www.inkscape.org/namespaces/inkscape"
   width="2141.6194mm"
   height="230.65094mm"
   viewBox="0 0 2141.6194 230.65094"
   version="1.1"
   id="svg1470"
   inkscape:version="0.92.4 5da689c313, 2019-01-14"
   sodipodi:docname="rocks2.svg">
  <defs
     id="defs1464">
    <linearGradient
       id="linearGradient1234"
       inkscape:collect="always">
      <stop
         id="stop1230"
         offset="0"
         style="stop-color:#ac1e1e;stop-opacity:1" />
      <stop
         id="stop1232"
         offset="1"
         style="stop-color:#eb6363;stop-opacity:1" />
    </linearGradient>
    <linearGradient
       inkscape:collect="always"
       id="linearGradient1085">
      <stop
         style="stop-color:#c84545;stop-opacity:1"
         offset="0"
         id="stop1081" />
      <stop
         style="stop-color:#eb6363;stop-opacity:0"
         offset="1"
         id="stop1083" />
    </linearGradient>
    <linearGradient
       inkscape:collect="always"
       id="linearGradient1000">
      <stop
         style="stop-color:#c84545;stop-opacity:1"
         offset="0"
         id="stop996" />
      <stop
         style="stop-color:#eb6363;stop-opacity:0"
         offset="1"
         id="stop998" />
    </linearGradient>
    <linearGradient
       id="linearGradient865"
       inkscape:collect="always">
      <stop
         id="stop861"
         offset="0"
         style="stop-color:#c84545;stop-opacity:1" />
      <stop
         id="stop863"
         offset="1"
         style="stop-color:#eb6363;stop-opacity:0.035" />
    </linearGradient>
    <linearGradient
       inkscape:collect="always"
       id="linearGradient855">
      <stop
         style="stop-color:#c84545;stop-opacity:1"
         offset="0"
         id="stop851" />
      <stop
         style="stop-color:#aa0000;stop-opacity:0;"
         offset="1"
         id="stop853" />
    </linearGradient>
    <linearGradient
       inkscape:collect="always"
       xlink:href="#linearGradient1234"
       id="linearGradient847"
       x1="746.64331"
       y1="184.25021"
       x2="744.12048"
       y2="339.95575"
       gradientUnits="userSpaceOnUse" />
    <linearGradient
       inkscape:collect="always"
       xlink:href="#linearGradient855"
       id="linearGradient857"
       x1="746.05823"
       y1="196.8329"
       x2="734.69928"
       y2="209.52821"
       gradientUnits="userSpaceOnUse" />
    <linearGradient
       inkscape:collect="always"
       xlink:href="#linearGradient865"
       id="linearGradient859"
       x1="752.65875"
       y1="205.16096"
       x2="720.86804"
       y2="228.77162"
       gradientUnits="userSpaceOnUse" />
    <linearGradient
       inkscape:collect="always"
       xlink:href="#linearGradient865"
       id="linearGradient873"
       x1="993.76459"
       y1="239.46774"
       x2="942.29456"
       y2="318.77142"
       gradientUnits="userSpaceOnUse" />
    <linearGradient
       inkscape:collect="always"
       xlink:href="#linearGradient865"
       id="linearGradient883"
       x1="1014.1554"
       y1="261.5936"
       x2="1006.5505"
       y2="297.60477"
       gradientUnits="userSpaceOnUse" />
    <linearGradient
       inkscape:collect="always"
       xlink:href="#linearGradient865"
       id="linearGradient891"
       x1="1007.8294"
       y1="312.36551"
       x2="1015.4304"
       y2="295.98947"
       gradientUnits="userSpaceOnUse" />
    <linearGradient
       inkscape:collect="always"
       xlink:href="#linearGradient865"
       id="linearGradient899"
       x1="999.98151"
       y1="230.64677"
       x2="995.23462"
       y2="237.83072"
       gradientUnits="userSpaceOnUse" />
    <linearGradient
       inkscape:collect="always"
       xlink:href="#linearGradient1234"
       id="linearGradient926"
       x1="1338.8372"
       y1="136.7197"
       x2="1337.0779"
       y2="343.52722"
       gradientUnits="userSpaceOnUse" />
    <linearGradient
       inkscape:collect="always"
       xlink:href="#linearGradient865"
       id="linearGradient934"
       x1="1272.092"
       y1="171.74834"
       x2="1253.1832"
       y2="222.79683"
       gradientUnits="userSpaceOnUse" />
    <linearGradient
       inkscape:collect="always"
       xlink:href="#linearGradient865"
       id="linearGradient948"
       x1="1300.8979"
       y1="204.61374"
       x2="1288.3777"
       y2="230.69409"
       gradientUnits="userSpaceOnUse" />
    <linearGradient
       inkscape:collect="always"
       xlink:href="#linearGradient865"
       id="linearGradient956"
       x1="1317.6705"
       y1="223.55972"
       x2="1309.6752"
       y2="237.52989"
       gradientUnits="userSpaceOnUse" />
    <linearGradient
       inkscape:collect="always"
       xlink:href="#linearGradient865"
       id="linearGradient964"
       x1="1338.8372"
       y1="136.7197"
       x2="1310.8674"
       y2="212.45668"
       gradientUnits="userSpaceOnUse" />
    <linearGradient
       inkscape:collect="always"
       xlink:href="#linearGradient1234"
       id="linearGradient972"
       x1="256.74033"
       y1="149.11681"
       x2="258.52838"
       y2="355.04022"
       gradientUnits="userSpaceOnUse" />
    <linearGradient
       inkscape:collect="always"
       xlink:href="#linearGradient865"
       id="linearGradient980"
       x1="256.74033"
       y1="149.11681"
       x2="227.70329"
       y2="224.63252"
       gradientUnits="userSpaceOnUse" />
    <linearGradient
       inkscape:collect="always"
       xlink:href="#linearGradient1000"
       id="linearGradient994"
       x1="190.2291"
       y1="185.01407"
       x2="155.87695"
       y2="223.47475"
       gradientUnits="userSpaceOnUse" />
    <linearGradient
       inkscape:collect="always"
       xlink:href="#linearGradient865"
       id="linearGradient1008"
       x1="218.28125"
       y1="216.58562"
       x2="199.51468"
       y2="239.19284"
       gradientUnits="userSpaceOnUse" />
    <linearGradient
       inkscape:collect="always"
       xlink:href="#linearGradient865"
       id="linearGradient1016"
       x1="235.57365"
       y1="235.95683"
       x2="225.32104"
       y2="245.17001"
       gradientUnits="userSpaceOnUse" />
    <linearGradient
       inkscape:collect="always"
       xlink:href="#linearGradient1234"
       id="linearGradient1024"
       x1="-331.48511"
       y1="198.15923"
       x2="-332.53641"
       y2="352.332"
       gradientUnits="userSpaceOnUse" />
    <linearGradient
       gradientTransform="translate(-1082.0972,12.397116)"
       inkscape:collect="always"
       xlink:href="#linearGradient865"
       id="linearGradient859-3"
       x1="752.65875"
       y1="205.16096"
       x2="720.86804"
       y2="228.77162"
       gradientUnits="userSpaceOnUse" />
    <linearGradient
       inkscape:collect="always"
       xlink:href="#linearGradient865"
       id="linearGradient1069"
       x1="-341.69049"
       y1="196.17485"
       x2="-382.79355"
       y2="262.78848"
       gradientUnits="userSpaceOnUse" />
    <linearGradient
       inkscape:collect="always"
       xlink:href="#linearGradient1085"
       id="linearGradient1079"
       x1="-333.48553"
       y1="207.66516"
       x2="-344.95026"
       y2="216.46054"
       gradientUnits="userSpaceOnUse" />
    <clipPath
       clipPathUnits="userSpaceOnUse"
       id="clipPath1164">
      <g
         id="use1166"
         inkscape:label="Clip">
        <path
           style="fill:url(#linearGradient1218);fill-opacity:1;stroke:none;stroke-width:0.26458332px;stroke-linecap:butt;stroke-linejoin:miter;stroke-opacity:1"
           d="m -126.26605,241.30795 c 0.47247,-0.0945 24.10871,-20.22328 24.10871,-20.22328 -0.33209,0.78762 -0.75318,1.52717 -1.16921,2.27179 l -1.47004,1.63703 c 1.47047,-0.64556 2.58329,-2.06201 3.54122,-3.0402 l -0.50107,0.63478 -0.2339,0.76839 h 0.50117 l 0.96874,0.20045 1.603506,0.20046 c 0.25577,1.53048 1.93967,1.82253 3.10717,1.26953 -0.727,4.69432 -4.746016,8.54322 -7.182626,11.69304 l -0.73497,1.1359 c 4.111576,-2.74309 7.889596,-6.59249 10.456696,-10.18965 l 0.2004,-0.30069 0.067,0.96886 c -4.4715,7.24921 -10.243676,14.25093 -15.568136,19.97841 6.35716,-4.55608 11.471136,-11.20129 15.568136,-16.838 l -3.2072,5.84652 c 1.7046,-1.32142 3.0526,-2.90177 4.3765,-4.57699 -0.3922,1.76777 -1.2503,3.33174 -2.0379,4.9445 1.0992,-1.53904 2.4931,-2.79785 3.842,-4.10928 l 0.3675,-0.46772 c -1.7302,4.32082 -3.9878,8.84048 -5.5459,12.36121 1.5521,-0.1448 1.931,-0.48044 2.4723,0.60138 2.7859,-1.9377 5.5398,-3.91925 8.2853,-5.91337 -4.9585,7.89492 -9.0726,16.25682 -13.3634,24.52198 h 1.8374 c -8.182076,15.81795 -19.890466,29.32539 -32.205626,40.89227 l -41.62725,0.16702 -29.88208,1.56486 z"
           id="path1208"
           inkscape:connector-curvature="0"
           sodipodi:nodetypes="cccccccccccccccccccccccccccccc" />
        <path
           style="fill:url(#linearGradient1220);fill-opacity:1;stroke:none;stroke-width:0.26458332px;stroke-linecap:butt;stroke-linejoin:miter;stroke-opacity:1"
           d="m -98.916924,223.75737 0.76837,0.33408 c 1.1049,-1.01159 1.7167,-2.04802 1.3364,-3.4745 -0.022,-0.52822 -0.027,-0.91661 0.2669,-1.33635 l 0.9688,0.56795 c 1.0779,0.12157 2.0222,0.64339 2.94,0.83521 l 0.735,0.0668 c 0.4856,0.49433 1.0481,0.73898 1.6704,1.00226 1.1083,0.33587 0.9981,-0.52 2.0381,0 0.4047,-0.14546 0.4432,-0.17048 0.6682,0.16705 0.2779,0.11193 0.597,0.39011 0.8609,0.53084 l 0.5089,-0.16333 c -3.8824,-2.66767 -9.2576,-5.62671 -12.1412,-6.16211 -2.208936,0.63809 -3.390646,2.67099 -8.077546,7.56848 z"
           id="path1210"
           inkscape:connector-curvature="0"
           sodipodi:nodetypes="ccccccccccccccc" />
        <path
           style="fill:url(#linearGradient1222);fill-opacity:1;stroke:none;stroke-width:0.26458332px;stroke-linecap:butt;stroke-linejoin:miter;stroke-opacity:1"
           d="m -93.237454,299.69532 c 0.4309,-2.503 1.4884,-4.68843 2.5725,-6.94901 0.8039,-1.70624 1.8726,-3.23314 2.94,-4.77742 l 0.2004,2.0713 c 0.4558,-0.55746 0.6392,-1.12646 0.8018,-1.80405 l 0.3341,0.66817 c 1.6956,-2.2221 3.5701,-4.91387 5.7797,-6.28084 l -0.4677,1.36975 c -2.0897,5.08915 -4.4217,10.41637 -6.8822,14.83347 -1.0224,1.8562 -2.0557,3.70597 -3.107,5.54586 -0.707,-2.12352 0.013,-4.61081 0.3341,-6.48129 l -0.1671,-0.66818 -0.5679,0.4009 -0.6014,0.66817 z"
           id="path1212"
           inkscape:connector-curvature="0"
           sodipodi:nodetypes="ccccccccccccccc" />
        <path
           style="fill:url(#linearGradient1224);fill-opacity:1;stroke:none;stroke-width:0.26458332px;stroke-linecap:butt;stroke-linejoin:miter;stroke-opacity:1"
           d="m -97.776454,275.56204 c 0,0 2.5041,-4.39397 2.5041,-4.58296 0,-0.18898 2.3624,-4.67746 2.3624,-4.67746 l 1.6536,-4.58295 c 0.1694,-0.73686 -0.2466,-0.32566 -0.7089,-0.0945 2.7923,-6.58873 4.9182,-11.27581 7.7485,-17.67038 l -0.189,3.16556 c 1.0673,-0.31028 1.08,-2.16542 1.3702,-0.42522 l 0.047,1.46465 1.3702,-1.93714 c -0.7394,5.9986 -2.0877,10.31012 -2.6931,15.63878 0.8223,-1.66804 2.1007,-3.24596 3.1655,-4.48848 -0.074,1.19655 -0.095,2.39266 -0.095,3.59078 l 0.6615,-0.66147 c 0.454,1.21667 -0.083,2.05565 -0.472,3.16555 0.013,0.98952 -0.2339,1.68395 -0.7087,2.50411 l 0.3308,0.33072 1.3701,-0.75593 c 1.3074,-0.68059 3.0122,-1.11543 4.205,-0.66142 0.239,0.692 0.2727,1.40388 0.3302,2.1261 -1.4636,4.5263 -4.0947,8.96654 -5.5751,13.08743 l -2.0316,1.41741 c -3.4927,2.94026 -5.5539,5.9519 -8.1265,9.73288 l 1.6064,-7.37053 0.9922,-5.38617 0.8504,-2.83482 -0.3779,-0.18897 -0.567,0.6142 c -1.3601,0.87909 -2.5552,1.30211 -3.9688,1.55916 l -0.2362,-0.18896 c 0.472,-0.69748 0.6429,-1.46734 0.8504,-2.26787 0.02,-1.00007 -0.074,-1.98598 -0.1887,-2.97656 -0.2797,-0.55877 -0.4539,-0.36842 -0.9922,-0.189 -1.4484,0.66677 -2.4293,1.70115 -3.4963,2.83482 l -1.3229,0.85045"
           id="path1214"
           inkscape:connector-curvature="0"
           sodipodi:nodetypes="csccccccccccccccccccccccccccccccccc" />
      </g>
    </clipPath>
    <linearGradient
       inkscape:collect="always"
       xlink:href="#linearGradient865"
       id="linearGradient1200"
       gradientUnits="userSpaceOnUse"
       gradientTransform="translate(-1098.5612,-14.474261)"
       x1="993.76459"
       y1="239.46774"
       x2="942.29456"
       y2="318.77142" />
    <linearGradient
       inkscape:collect="always"
       xlink:href="#linearGradient865"
       id="linearGradient1202"
       gradientUnits="userSpaceOnUse"
       gradientTransform="translate(-1098.5612,-14.474261)"
       x1="999.98151"
       y1="230.64677"
       x2="995.23462"
       y2="237.83072" />
    <linearGradient
       inkscape:collect="always"
       xlink:href="#linearGradient865"
       id="linearGradient1204"
       gradientUnits="userSpaceOnUse"
       gradientTransform="translate(-1098.5612,-14.474261)"
       x1="1007.8294"
       y1="312.36551"
       x2="1015.4304"
       y2="295.98947" />
    <linearGradient
       inkscape:collect="always"
       xlink:href="#linearGradient865"
       id="linearGradient1206"
       gradientUnits="userSpaceOnUse"
       gradientTransform="translate(-1098.5612,-14.474261)"
       x1="1014.1554"
       y1="261.5936"
       x2="1006.5505"
       y2="297.60477" />
    <linearGradient
       inkscape:collect="always"
       xlink:href="#linearGradient865"
       id="linearGradient1218"
       gradientUnits="userSpaceOnUse"
       gradientTransform="translate(-1098.5612,-14.474261)"
       x1="993.76459"
       y1="239.46774"
       x2="942.29456"
       y2="318.77142" />
    <linearGradient
       inkscape:collect="always"
       xlink:href="#linearGradient865"
       id="linearGradient1220"
       gradientUnits="userSpaceOnUse"
       gradientTransform="translate(-1098.5612,-14.474261)"
       x1="999.98151"
       y1="230.64677"
       x2="995.23462"
       y2="237.83072" />
    <linearGradient
       inkscape:collect="always"
       xlink:href="#linearGradient865"
       id="linearGradient1222"
       gradientUnits="userSpaceOnUse"
       gradientTransform="translate(-1098.5612,-14.474261)"
       x1="1007.8294"
       y1="312.36551"
       x2="1015.4304"
       y2="295.98947" />
    <linearGradient
       inkscape:collect="always"
       xlink:href="#linearGradient865"
       id="linearGradient1224"
       gradientUnits="userSpaceOnUse"
       gradientTransform="translate(-1098.5612,-14.474261)"
       x1="1014.1554"
       y1="261.5936"
       x2="1006.5505"
       y2="297.60477" />
    <linearGradient
       inkscape:collect="always"
       xlink:href="#linearGradient865"
       id="linearGradient1242"
       x1="717.42249"
       y1="196.67616"
       x2="642.88892"
       y2="280.96484"
       gradientUnits="userSpaceOnUse" />
  </defs>
  <sodipodi:namedview
     id="base"
     pagecolor="#ffffff"
     bordercolor="#666666"
     borderopacity="1.0"
     inkscape:pageopacity="0.0"
     inkscape:pageshadow="2"
     inkscape:zoom="0.49497476"
     inkscape:cx="7438.5262"
     inkscape:cy="606.52635"
     inkscape:document-units="mm"
     inkscape:current-layer="layer1"
     showgrid="false"
     inkscape:window-width="1080"
     inkscape:window-height="1218"
     inkscape:window-x="0"
     inkscape:window-y="673"
     inkscape:window-maximized="0"
     inkscape:pagecheckerboard="true" />
  <metadata
     id="metadata1467">
    <rdf:RDF>
      <cc:Work
         rdf:about="">
        <dc:format>image/svg+xml</dc:format>
        <dc:type
           rdf:resource="http://purl.org/dc/dcmitype/StillImage" />
        <dc:title></dc:title>
      </cc:Work>
    </rdf:RDF>
  </metadata>
  <g
     inkscape:label="Ebene 1"
     inkscape:groupmode="layer"
     id="layer1"
     transform="translate(601.07663,-136.7197)"
     style="display:inline">
    <path
       style="fill:url(#linearGradient972);fill-opacity:1;stroke:none;stroke-width:0.26458332px;stroke-linecap:butt;stroke-linejoin:miter;stroke-opacity:1"
       d="m 20.416446,355.08041 -3.779762,-57.55636 5.191441,-3.45336 111.408485,-73.04391 56.97991,-37.51413 21.26116,11.81175 45.26264,-46.20759 76.82367,80.13096 78.80802,82.49331 11.3393,-11.81177 34.73467,60.04761 z"
       id="path2048"
       inkscape:connector-curvature="0"
       sodipodi:nodetypes="cccccccccccc" />
    <path
       style="fill:none;stroke:#000000;stroke-width:0.26458332px;stroke-linecap:butt;stroke-linejoin:miter;stroke-opacity:1"
       d="m -366.56015,240.80658 c 7.64762,-4.68837 15.21902,-9.62779 21.76363,-15.80571 2.9915,-2.70666 6.62395,-5.67676 8.59243,-8.87156 l -0.006,3.43282 c 2.28636,-1.437 4.4851,-3.03026 6.84638,-4.33766 0.47704,-0.0642 1.4267,-1.109 1.46512,-0.2632 -3.60421,4.57321 1.24778,4.77431 5.20116,6.349 -0.0157,1.35441 -0.0315,2.70883 -0.0472,4.06324 -2.93676,1.17868 -5.92484,2.24171 -8.82923,3.49331 -2.30693,1.20567 -4.70815,2.24569 -6.9513,3.56339 -2.86904,1.79584 -5.62443,3.78518 -8.66833,5.28335 -2.76444,1.47755 -5.52889,2.9551 -8.29333,4.43265 3.10877,-2.79405 6.0267,-5.36649 9.09246,-8.19559 1.17059,-1.38269 1.72158,-2.63758 2.38857,-3.85241 -5.46725,2.85346 -11.10564,5.36401 -16.68286,7.99277 -1.95725,0.9052 -3.91451,1.8104 -5.87177,2.7156 z"
       id="path2058"
       inkscape:connector-curvature="0"
       sodipodi:nodetypes="ccccccccccccccccc" />
    <path
       style="fill:url(#linearGradient1024);fill-opacity:1;stroke:none;stroke-width:0.26458332px;stroke-linecap:butt;stroke-linejoin:miter;stroke-opacity:1"
       d="m -585.39062,336.6875 -15.68601,7.37052 38.1756,-56.60191 28.53719,1.13392 c 34.78377,-23.38058 73.39438,-39.58887 111.2195,-57.35789 27.06668,-11.89543 53.51844,-25.27986 81.45386,-35.05729 h 3.30729 l 2.92934,0.47247 3.96875,1.5119 3.87424,2.36236 65.76786,41.67187 32.41145,21.07217 70.87054,48.28646 c 24.34505,-21.92582 48.78073,-43.75127 73.043897,-65.76786 l 2.173364,-2.07887 1.228423,-0.66146 0.944941,0.28349 2.929313,1.13393 8.504465,4.53571 c 37.085261,18.12135 73.9737426,36.63419 111.124999,54.61756 l -5.764136,4.34674 c -33.6464425,26.11086 -69.43424,41.46176 -110.558036,51.59375 -51.0011,11.42136 -100.81297,7.82309 -152.3244,4.72471 -53.74643,-4.59362 -107.42673,-10.47821 -160.81717,-18.2358 -63.26603,-8.96065 -128.32722,-18.93502 -191.89951,-7.08266 l -8.06159,1.55321 z"
       id="path2050"
       inkscape:connector-curvature="0"
       sodipodi:nodetypes="ccccccccccccccccccccccccccc" />
    <path
       style="fill:url(#linearGradient1069);fill-opacity:1;stroke:none;stroke-width:0.26458332px;stroke-linecap:butt;stroke-linejoin:miter;stroke-opacity:1"
       d="m -392.90625,302.85862 c 26.21002,-9.10871 62.7571,-17.52131 74.65031,-44.97916 -6.35917,4.01376 -15.13818,7.05664 -22.20334,6.04742 7.59227,-6.1204 11.05938,-13.18611 14.13121,-21.14878 0.20765,-0.55166 0.9997,-2.87199 1.0818,-4.24059 -2.47564,-0.37238 -5.36961,0.26899 -7.96365,0.48801 3.71677,-4.03174 8.40239,-8.29735 12.11916,-12.32909 -13.95603,6.41576 -27.86201,12.93905 -41.76639,19.46577 5.69265,-3.58799 10.5525,-8.2573 15.74086,-12.50508 -10.94772,4.90789 -21.96121,9.75978 -33.51956,13.0681 1.61039,-0.99755 3.96218,-2.32299 5.85716,-3.4464 8.31367,-4.66019 16.50029,-9.58257 24.03465,-15.44182 4.74637,-3.38045 9.50573,-6.80501 13.8508,-10.68377 -3.9717,1.8334 -8.25434,2.94881 -12.46562,4.07098 -1.88062,0.31344 -3.76125,0.62688 -5.64188,0.94032 4.35332,-3.46463 8.79572,-6.82855 13.27106,-10.11835 1.17145,-1.41002 3.10013,-2.43188 3.77616,-4.09586 0.58056,-1.65567 0.0818,-3.14408 -0.81682,-4.57055 -0.908,-1.13226 -2.66794,-2.21421 -4.00281,-1.12682 0.91157,-1.82577 0.65254,-4.09108 1.08267,-6.0781 -176.96344,68.63923 -127.17769,74.25232 -161.77383,103.3198 z"
       id="path2054"
       inkscape:connector-curvature="0"
       sodipodi:nodetypes="cccccccccccccccccccccc" />
    <path
       style="fill:url(#linearGradient1079);fill-opacity:1;stroke:none;stroke-width:0.26458332px;stroke-linecap:butt;stroke-linejoin:miter;stroke-opacity:1"
       d="m -349.88923,220.42728 c 4.03132,-3.09587 8.06263,-6.19175 12.09395,-9.28762 -0.28953,-0.51227 -0.57907,-1.02453 -0.8686,-1.5368 1.8404,-0.34219 3.72277,-1.0397 5.17834,-1.9377 0.0618,0.40093 0.19937,0.81303 0.21375,1.20697 -1.12313,2.61778 -1.63422,3.43418 -1.35767,5.68259 -0.0247,0.0654 -0.0598,0.22582 -0.20505,0.23114 -5.01825,1.88047 -10.03649,3.76095 -15.05474,5.64142 z"
       id="path2062"
       inkscape:connector-curvature="0"
       sodipodi:nodetypes="ccccccccc" />
    <path
       style="fill:url(#linearGradient994);fill-opacity:1;stroke:none;stroke-width:0.26458332px;stroke-linecap:butt;stroke-linejoin:miter;stroke-opacity:1"
       d="m 189.99522,184.14544 0.23387,0.86863 c -0.25006,0.80549 -0.63853,1.81498 -0.16705,2.17156 0.45597,-0.12703 0.52872,-0.16555 0.60134,-0.60136 0.38042,0.67472 0.17529,1.03166 0.80181,1.67044 l -0.7684,0.46772 c 0.80001,0.27863 1.57485,-0.0752 2.20497,-0.3675 l 0.10023,0.33409 c -1.68098,0.6796 -3.0724,2.16217 -4.2095,3.10701 l 1.36976,-0.70158 c 1.76061,-0.56856 3.14174,-1.14715 4.64381,-1.93771 -0.0376,0.6721 -0.15266,1.22399 0.10022,1.73725 l -0.73499,0.63477 c -2.28472,1.70752 -4.31735,3.68429 -6.31424,5.71289 l -0.26727,0.7684 c 3.27385,-1.94938 6.55483,-3.88614 9.82215,-5.84652 l 0.10023,0.13363 -0.3675,1.87089 c 0.79291,-0.27795 1.59313,-0.52309 2.40543,-0.735 -2.04169,2.91317 -5.41272,5.19897 -8.15172,7.61719 l -1.50339,1.26953 c 2.93347,-2.11585 6.48563,-3.86135 9.35443,-5.24517 l 1.30294,-0.56794 c 1.13663,0.46708 0.2745,1.39593 -0.26727,1.9377 0.96767,-0.36151 1.68331,-0.80502 2.60588,-1.03567 l -0.0334,0.4009 c -3.60349,2.3166 -6.84241,5.26388 -10.18965,7.95127 l 4.6104,-2.40542 8.92012,-4.64381 0.26727,0.13363 c -0.37513,3.12423 1.4328,5.0367 4.44337,5.3788 l 0.0668,0.46772 -2.93996,4.34313 5.07812,-2.67269 h 0.63476 c 1.71287,1.09214 3.42591,2.19806 5.27857,3.04019 -0.0821,0.2673 -0.17353,0.37121 -0.4009,0.50113 -14.24811,8.4791 -24.55992,16.06805 -37.75182,25.49083 -0.85439,0.38272 -1.55234,1.12936 -2.50565,1.00228 l 1.40316,-4.77744 c -2.92677,1.11749 -5.81051,2.33421 -8.68626,3.57473 l 1.46999,-6.1472 c -3.77275,0.95475 -6.49797,3.55931 -9.42125,5.98015 1.80528,-10.5426 -5.58138,-6.76849 -11.39236,-2.83975 l -0.53453,-0.33409 c 2.97601,-5.01778 7.39283,-8.70529 11.5594,-12.6953 3.86657,-4.07375 6.83383,-7.19086 9.42125,-11.82668 v -0.33408 c -1.13905,0.0484 -1.30378,0.30152 -2.07134,1.06907 0.0675,-0.85687 0.42066,-1.44131 0.86863,-2.13815 -1.82846,0.61235 -3.27235,2.01401 -4.81085,3.14042 -13.75242,9.201 -24.04381,14.41585 -36.68274,22.71791 l -1.60362,-0.60136 4.27631,-3.34087 c 14.77258,-11.62956 23.09108,-19.70676 37.17537,-30.24535 l 16.54581,-11.18143 z"
       id="path2066"
       inkscape:connector-curvature="0"
       sodipodi:nodetypes="ccccccccccccccccccccccccccccccccccccccccccccccccccccccccc" />
    <path
       style="fill:url(#linearGradient980);fill-opacity:1;stroke:none;stroke-width:0.26458332px;stroke-linecap:butt;stroke-linejoin:miter;stroke-opacity:1"
       d="m 211.47768,195.3244 45.26264,-46.20759 -3.44903,11.38654 2.88207,-0.99219 -8.83519,13.65439 9.59114,-7.27604 -7.37053,15.63876 3.9215,-2.12611 -1.6064,3.30729 c -4.5557,6.1086 -8.21336,11.38503 -13.37091,15.96949 8.38361,-2.79427 15.78543,-10.77479 20.36347,-16.63095 l 0.33073,-0.42522 c 0.71992,0.55062 0.28307,2.06741 0.23623,2.78757 -0.62709,1.84821 -2.20603,5.83801 1.55915,4.58296 l 0.28348,-0.42522 c 0.97445,6.60695 2.49516,13.12503 4.58295,19.46577 l -1.98436,1.22842 0.56696,0.8032 c -14.38311,10.13352 -28.84541,20.14715 -43.42002,30.00186 4.93915,-8.67091 7.77461,-15.2899 10.96132,-24.6157 l -3.11831,0.99219 c 3.63567,-7.38902 -6.87499,-13.67056 -12.00074,-17.57589 z"
       id="path2069"
       inkscape:connector-curvature="0"
       sodipodi:nodetypes="ccccccccccccccccccccccc" />
    <path
       style="fill:url(#linearGradient1008);fill-opacity:1;stroke:none;stroke-width:0.26458332px;stroke-linecap:butt;stroke-linejoin:miter;stroke-opacity:1"
       d="m 206.75297,233.31101 -18.42633,7.1343 c 3.23504,-4.13097 6.45202,-6.66407 10.58333,-9.21317 -1.12195,-0.39152 -2.20489,0.0585 -3.35454,0.33074 1.7584,-1.90073 3.73032,-3.37585 5.90588,-4.7247 l -1.08668,-0.0472 c 6.19531,-3.7669 11.66065,-8.61361 17.90662,-10.20536 1.11051,1.31293 0.41726,3.85203 0.37792,5.6224 0.32339,1.00322 0.94835,1.0192 1.88988,1.32291 1.43146,0.46171 2.8904,0.82381 4.25224,1.46466 0.0254,1.23463 0.25418,2.09132 1.03944,3.02381 -0.19236,1.12607 -1.04069,1.89735 -1.84263,2.64584 0.18535,0.46837 0.36048,0.93972 0.51971,1.41741 -6.64209,3.08346 -12.21433,8.11753 -18.23735,11.00855 -0.91624,-2.67259 0.5371,-4.59193 -3.16555,-3.40178 0.13888,-2.16181 2.43168,-4.52242 3.63806,-6.37841 z"
       id="path2071"
       inkscape:connector-curvature="0"
       sodipodi:nodetypes="cccccccccccccccc" />
    <path
       style="fill:url(#linearGradient1016);fill-opacity:1;stroke:none;stroke-width:0.26458332px;stroke-linecap:butt;stroke-linejoin:miter;stroke-opacity:1"
       d="m 221.58854,243.70535 7.60677,-5.00818 -0.23624,1.18118 1.7009,-1.13393 c 0.43178,0.592 0.47247,1.05342 0.47247,1.74814 0.69448,0.0174 1.28148,-0.5186 1.88988,-0.85045 l 1.18117,-1.22842 1.37017,-2.45685 -0.33073,3.26005 c 1.19627,-1.4924 2.17155,1.48325 2.78757,2.50409 l 0.28349,1.93713 c 0.51848,1.04189 0.39094,1.17249 -0.33073,1.98437 0,0 -3.82701,1.93713 -4.44122,2.22061 -1.5901,1.78494 -2.12719,2.64653 -4.25224,4.016 -1.6471,-2.08136 -2.88061,-4.31518 -3.96875,-6.70908 l -3.54352,-1.41741"
       id="path2073"
       inkscape:connector-curvature="0"
       sodipodi:nodetypes="cccccccccccccccc" />
    <path
       style="fill:url(#linearGradient926);fill-opacity:1;stroke:none;stroke-width:0.26458332px;stroke-linecap:butt;stroke-linejoin:miter;stroke-opacity:1"
       d="m 1102.5133,342.6833 -3.7797,-57.55636 5.1914,-3.45336 111.4085,-73.04391 56.9799,-37.51413 21.2612,11.81175 45.2626,-46.20759 76.8237,80.13096 78.808,82.49332 11.3393,-11.81177 34.7346,60.04761 z"
       id="path2048-7"
       inkscape:connector-curvature="0"
       sodipodi:nodetypes="cccccccccccc" />
    <path
       style="fill:none;stroke:#000000;stroke-width:0.26458332px;stroke-linecap:butt;stroke-linejoin:miter;stroke-opacity:1"
       d="m 715.53702,228.40947 c 7.64762,-4.68837 15.21902,-9.62779 21.76363,-15.80571 2.9915,-2.70666 6.62395,-5.67676 8.59242,-8.87156 l -0.006,3.43282 c 2.28634,-1.437 4.48508,-3.03026 6.84636,-4.33766 0.47704,-0.0642 1.42671,-1.109 1.46513,-0.2632 -0.58383,0.80465 -1.65283,1.47246 -1.5398,2.59681 0.16695,0.54054 0.6196,1.16792 1.15491,1.44652 1.73381,1.05156 3.71766,1.55119 5.58604,2.30567 -0.0156,1.35441 -0.0315,2.70883 -0.0472,4.06324 -2.93674,1.17868 -5.92484,2.24171 -8.82923,3.49331 -2.30693,1.20567 -4.70815,2.24569 -6.95129,3.56339 -2.86904,1.79584 -5.62443,3.78518 -8.66833,5.28335 -2.76444,1.47755 -5.52889,2.9551 -8.29333,4.43265 3.10877,-2.79405 6.0267,-5.36649 9.09246,-8.19559 1.17059,-1.38269 1.72158,-2.63758 2.38857,-3.85241 -5.46725,2.85346 -11.10564,5.36401 -16.68286,7.99277 -1.95725,0.9052 -3.91451,1.8104 -5.87177,2.7156 z"
       id="path2058-2"
       inkscape:connector-curvature="0"
       sodipodi:nodetypes="cccccccccccccccccc" />
    <path
       style="fill:url(#linearGradient847);fill-opacity:1;stroke:none;stroke-width:0.26458332px;stroke-linecap:butt;stroke-linejoin:miter;stroke-opacity:1"
       d="m 496.70655,324.29039 -15.68601,7.37053 38.17561,-56.60191 28.53718,1.13392 c 13.29219,-9.30176 27.78081,-16.54746 41.67187,-24.85194 l 16.81996,-7.65402 12.09524,-5.76413 40.63243,-19.08781 28.25372,-12.7567 15.59153,-7.08705 19.65475,-8.59896 7.9375,-3.1183 6.2366,-2.17336 3.77976,-1.32292 h 3.30729 l 2.92935,0.47247 3.96875,1.5119 3.87424,2.36236 65.76785,41.67187 32.41145,21.07217 70.87056,48.28647 54.23958,-48.75893 13.70163,-12.37873 5.10262,-4.63021 2.17318,-2.07887 1.22834,-0.66146 0.94497,0.28349 2.9293,1.13393 8.5045,4.53571 17.1979,8.40998 c 20.4146,10.19648 41.0071,20.04153 61.3266,30.42708 l 32.6005,15.78051 -5.7642,4.34673 -5.3861,3.96875 c -16.9145,12.32554 -34.4583,22.14058 -52.0662,30.33258 -18.9493,8.18321 -34.0619,12.60046 -53.1057,17.29243 -21.98658,4.11368 -41.02971,6.85046 -61.32633,7.37052 -21.2937,1.32088 -43.2299,0.6073 -62.2716,-0.66144 -16.4441,-1.28226 -34.71749,-2.31233 -48.56993,-3.77976 -33.68413,-2.81717 -68.8537,-7.13912 -98.07666,-10.69411 -43.51611,-5.43472 -89.61884,-12.52865 -128.55665,-16.30344 -18.4091,-1.29012 -31.00188,-1.81147 -48.37577,-2.00454 -22.28368,0.0286 -46.12799,3.2883 -65.92544,7.03223 z"
       id="path2050-8"
       inkscape:connector-curvature="0"
       sodipodi:nodetypes="cccccccccccccccccccccccccccccccccccccccccccc" />
    <path
       style="fill:url(#linearGradient1242);fill-opacity:1;stroke:none;stroke-width:0.26458332px;stroke-linecap:butt;stroke-linejoin:miter;stroke-opacity:1"
       d="m 740.40669,183.77774 c -0.43013,1.98702 -0.1711,4.25233 -1.08266,6.0781 1.33486,-1.08739 3.09481,-0.005 4.00281,1.12682 0.89861,1.42647 1.39737,2.91488 0.81681,4.57055 -0.67602,1.66398 -2.60471,2.68584 -3.77616,4.09586 -4.47534,3.2898 -8.91774,6.65372 -13.27106,10.11835 1.88063,-0.31344 3.76126,-0.62688 5.64188,-0.94032 4.21128,-1.12217 8.49392,-2.23758 12.46562,-4.07098 -4.34506,3.87876 -9.10443,7.30332 -13.8508,10.68377 -7.53435,5.85925 -15.72098,10.78163 -24.03465,15.44182 -1.89498,1.12341 -4.24677,2.44885 -5.85716,3.4464 11.55835,-3.30832 22.57184,-8.16021 33.51956,-13.0681 -5.18836,4.24778 -10.04821,8.91709 -15.74086,12.50508 13.90438,-6.52672 27.81037,-13.05001 41.7664,-19.46577 -3.71676,4.03174 -8.4024,8.29735 -12.11916,12.32909 l 6.54082,-0.55225 c 0.22219,-0.0566 0.76292,-0.0822 1.03483,-0.10195 0.34459,-0.0249 0.39909,-0.0201 0.38799,0.16619 -0.0821,1.3686 -0.87416,3.68893 -1.0818,4.24059 -1.64211,4.2489 -2.87637,7.74905 -5.29003,11.45432 -1.60629,2.52475 -3.4871,4.75093 -5.61961,6.72869 -0.5292,0.93236 -3.22157,2.96577 -3.22157,2.96577 3.70271,0.58402 8.19168,-0.21515 11.78536,-1.08648 3.63154,-1.4651 7.24527,-2.76842 10.41799,-4.96094 -1.57715,3.76029 -4.2732,6.85754 -6.78376,10.01975 -2.23451,3.14104 -5.16995,5.53962 -8.29429,8.08446 -4.74833,4.24602 -9.50028,6.76636 -14.78709,9.7995 -5.33416,2.87914 -9.50401,4.50794 -14.31898,6.63816 -9.88319,4.22315 -20.12045,7.5502 -30.4662,10.4373 L 529.94628,290.11585 C 570.11881,258.06674 636.5208,225.31924 740.40669,183.77774 Z"
       id="path2054-2"
       inkscape:connector-curvature="0"
       sodipodi:nodetypes="cccccccccccsscccccccccccccccccc" />
    <path
       style="fill:url(#linearGradient857);fill-opacity:1;stroke:none;stroke-width:0.26458332px;stroke-linecap:butt;stroke-linejoin:miter;stroke-opacity:1"
       d="m 732.20794,208.03017 c 4.03132,-3.09587 8.06263,-6.19175 12.09395,-9.28762 -0.28952,-0.51227 -0.57907,-1.02453 -0.8686,-1.5368 0.68673,-0.10822 1.35701,-0.27917 2.0078,-0.52449 0.67709,-0.24595 1.38723,-0.42149 2.04319,-0.71243 0.37579,-0.2336 0.75157,-0.46719 1.12736,-0.70078 0.0618,0.40093 0.19936,0.81303 0.21373,1.20697 -0.41135,0.7961 -0.87212,1.57512 -1.19679,2.41033 -0.14809,0.4841 -0.27093,0.96899 -0.34771,1.52204 0.009,0.49535 0,0.93972 0.12784,1.42476 0.0496,0.15682 0.10105,0.21426 0.059,0.32546 -0.0246,0.0654 -0.0598,0.22582 -0.20505,0.23114 -5.01825,1.88047 -10.03649,3.76095 -15.05474,5.64142 z"
       id="path2062-9"
       inkscape:connector-curvature="0"
       sodipodi:nodetypes="ccccccccccscc" />
    <path
       style="fill:url(#linearGradient934);fill-opacity:1;stroke:none;stroke-width:0.26458332px;stroke-linecap:butt;stroke-linejoin:miter;stroke-opacity:1"
       d="m 1272.0921,171.74833 c 0.4165,0.95653 -0.091,1.93232 -0.3007,2.77292 0.4723,0.469 0.9089,0.0116 0.9691,-0.33409 l 0.4009,0.26727 c -0.4397,0.52119 0.1033,0.95679 0.4009,1.40317 l -0.7684,0.46772 c 0.8703,0.24465 1.4196,-0.005 2.2049,-0.3675 l 0.1003,0.33409 c -1.2158,0.41992 -2.2066,1.40989 -3.0402,2.13816 l -1.1693,0.96885 1.3697,-0.70158 c 1.8167,-0.61651 3.1283,-1.14009 4.6439,-1.93771 -0.038,0.67223 -0.1531,1.22404 0.1,1.73725 -2.5061,2.03963 -5.0685,4.33492 -7.0493,6.34766 l -0.2672,0.7684 c 3.52,-2.0917 6.3119,-3.7404 9.8221,-5.84652 0.2114,0.55932 -0.1481,1.3982 -0.2672,2.00452 0.7929,-0.27795 1.5931,-0.52309 2.4054,-0.735 -0.1091,0.45208 -0.4342,0.73283 -0.735,1.06908 l -7.4167,6.54811 -1.5034,1.26953 c 2.9334,-2.11589 6.4856,-3.86135 9.3544,-5.24517 2.1976,-1.20027 2.4534,-0.0481 1.0357,1.36976 0.867,-0.33682 1.8008,-0.8292 2.6059,-1.03567 l -0.033,0.4009 -0.8687,0.46773 -9.321,7.48354 c 4.5078,-2.35426 9.0196,-4.70086 13.5305,-7.04923 l 0.2673,0.13363 c -0.3755,3.12427 1.4327,5.03671 4.4432,5.3788 l 0.067,0.46772 -2.94,4.34313 5.0781,-2.67269 h 0.6348 l 2.6059,1.63703 1.9377,1.06907 0.735,0.33409 c -13.3775,8.15577 -27.1137,18.10274 -38.1527,25.99196 l -2.0046,1.06908 -0.5011,-0.0668 1.4032,-4.77744 c -2.9268,1.11749 -5.8105,2.33421 -8.6863,3.57473 l 1.47,-6.1472 c -3.7728,0.95473 -6.498,3.55929 -9.4213,5.98015 2.035,-11.06172 -5.4306,-6.84391 -11.3923,-2.83975 l -0.5346,-0.33409 c 2.9761,-5.01777 7.3929,-8.70528 11.5595,-12.6953 1.9969,-2.19111 9.3244,-9.64376 9.4212,-12.16076 -0.9969,-0.0128 -1.4778,0.47559 -2.0713,1.06907 0.067,-0.85692 0.4206,-1.4413 0.8686,-2.13815 l -1.0691,0.4009 c -12.8077,9.51621 -27.1176,16.71665 -40.4245,25.45743 l -3.6825,-0.60136 c 14.2405,-11.18927 27.5193,-22.45353 42.0187,-33.30273 l 18.0577,-11.46492 z"
       id="path2066-5"
       inkscape:connector-curvature="0"
       sodipodi:nodetypes="cccccccccccccccccccccccccccccccccccccccccccccccccccccccc" />
    <path
       style="fill:url(#linearGradient964);fill-opacity:1;stroke:none;stroke-width:0.26458332px;stroke-linecap:butt;stroke-linejoin:miter;stroke-opacity:1"
       d="m 1293.5746,182.92729 c 14.8967,-14.95888 30.0436,-31.18987 45.2626,-46.20759 l -3.449,11.38654 2.8821,-0.99219 -8.8352,13.65439 9.5911,-7.27604 -7.3705,15.63876 3.9215,-2.12611 -1.6064,3.30729 c -3.4499,5.18313 -7.3807,9.95728 -11.6701,14.45759 l -1.7009,1.5119 3.4018,-1.22842 c 6.0193,-3.1062 10.8418,-7.95833 15.1663,-13.08743 0.7088,-0.91339 1.4163,-1.8277 2.1261,-2.74032 0.5222,0.26649 0.3308,0.8001 0.3308,1.32291 0.043,1.81226 -0.835,3.39193 -1.0862,5.14993 0.4087,0.94599 0.7553,0.98419 1.7009,1.18117 0.5683,-0.11998 0.8312,-0.25475 1.1339,-0.7087 0.9744,6.60695 2.4952,13.12501 4.5829,19.46577 l -1.9843,1.22842 0.5669,0.8032 -30.1435,21.02493 -13.2765,8.97693 4.0633,-7.79575 3.6852,-7.41779 3.2129,-9.40216 -3.1184,0.99219 c 3.6688,-9.09117 -11.5773,-16.27828 -17.3873,-21.11942 z"
       id="path2069-8"
       inkscape:connector-curvature="0"
       sodipodi:nodetypes="cccccccccccccccccccccccccccc" />
    <path
       style="fill:url(#linearGradient948);fill-opacity:1;stroke:none;stroke-width:0.26458332px;stroke-linecap:butt;stroke-linejoin:miter;stroke-opacity:1"
       d="m 1288.8498,220.9139 -18.4263,7.1343 c 3.2351,-4.13097 6.452,-6.66413 10.5834,-9.21317 -1.0579,-0.45049 -2.4322,0.11074 -3.3546,0.33074 1.7584,-1.90076 3.7303,-3.37586 5.9059,-4.7247 l -1.0867,-0.0472 c 4.3992,-3.50379 9.4914,-6.09379 14.3631,-8.88244 1.2381,-0.38163 2.8879,-1.85926 4.0633,-0.89769 l -0.047,0.94494 -0.094,4.25223 c 0.3234,1.00321 0.9483,1.01919 1.8898,1.32291 l 3.4491,1.08669 0.8032,0.37797 c 0.025,1.23468 0.2537,2.09133 1.0389,3.02381 l -0.2362,0.85045 c -1.3716,1.85911 -1.8017,1.06717 -1.0867,3.2128 l -1.4174,0.8032 c -5.3931,2.91235 -10.5207,6.27512 -15.6387,9.63839 l -1.1812,0.56696 -0.4253,-1.5119 c -0.1415,-1.91404 0.3791,-1.98242 -1.4174,-2.31511 l -1.3229,0.42523 -0.047,-0.70871 z"
       id="path2071-1"
       inkscape:connector-curvature="0"
       sodipodi:nodetypes="cccccccccccccccccccccccc" />
    <path
       style="fill:url(#linearGradient956);fill-opacity:1;stroke:none;stroke-width:0.26458332px;stroke-linecap:butt;stroke-linejoin:miter;stroke-opacity:1"
       d="m 1303.6854,231.30824 7.6068,-5.00818 -0.2362,1.18118 1.7009,-1.13393 c 0.4317,0.59199 0.4724,1.05345 0.4724,1.74814 h 0.4725 c 1.0661,-0.56311 1.746,-1.19219 2.5986,-2.07887 l 1.3701,-2.45685 -0.3307,3.26005 0.3307,-0.56697 h 0.378 l 0.4252,0.33073 1.6537,2.74033 c -0.034,1.7183 1.3216,2.38149 -0.047,3.9215 -3.2753,1.37654 -4.7305,2.11128 -6.5674,4.86645 l -2.1261,1.37017 c -1.6471,-2.08137 -2.8806,-4.31518 -3.9688,-6.70909 l -3.5435,-1.41741"
       id="path2073-6"
       inkscape:connector-curvature="0"
       sodipodi:nodetypes="cccccccccccccccccc" />
    <path
       style="fill:url(#linearGradient873);fill-opacity:1;stroke:none;stroke-width:0.26458332px;stroke-linecap:butt;stroke-linejoin:miter;stroke-opacity:1"
       d="m 972.2951,255.78221 c 0.47247,-0.0945 24.10871,-20.22328 24.10871,-20.22328 -0.33209,0.78762 -0.75318,1.52717 -1.16921,2.27179 l -1.47004,1.63703 c 1.47047,-0.64556 2.58329,-2.06201 3.54122,-3.0402 l -0.50107,0.63478 -0.2339,0.76839 h 0.50117 l 0.96874,0.20045 1.60351,0.20046 c 0.25577,1.53048 1.93967,1.82253 3.10717,1.26953 -0.727,4.69432 -4.74602,8.54322 -7.18263,11.69304 l -0.73497,1.1359 c 4.11158,-2.74309 7.8896,-6.59249 10.4567,-10.18965 l 0.2004,-0.30069 0.067,0.96886 c -4.4715,7.24921 -10.24368,14.25093 -15.56814,19.97841 6.35716,-4.55608 11.47114,-11.20129 15.56814,-16.838 l -3.2072,5.84652 c 1.7046,-1.32142 3.0526,-2.90177 4.3765,-4.57699 -0.3922,1.76777 -1.2503,3.33174 -2.0379,4.9445 1.0992,-1.53904 2.4931,-2.79785 3.842,-4.10928 l 0.3675,-0.46772 c -1.7302,4.32082 -3.9878,8.84048 -5.5459,12.36121 1.5521,-0.1448 1.931,-0.48044 2.4723,0.60138 2.7859,-1.9377 5.5398,-3.91925 8.2853,-5.91337 -4.9585,7.89492 -9.0726,16.25682 -13.3634,24.52198 h 1.8374 c -8.18208,15.81795 -19.89047,29.32539 -32.20563,40.89227 l -41.62725,0.16702 -29.88208,1.56486 z"
       id="path2075-7"
       inkscape:connector-curvature="0"
       sodipodi:nodetypes="cccccccccccccccccccccccccccccc" />
    <path
       style="fill:url(#linearGradient899);fill-opacity:1;stroke:none;stroke-width:0.26458332px;stroke-linecap:butt;stroke-linejoin:miter;stroke-opacity:1"
       d="m 999.64423,238.23163 0.76837,0.33408 c 1.1049,-1.01159 1.7167,-2.04802 1.3364,-3.4745 -0.022,-0.52822 -0.027,-0.91661 0.2669,-1.33635 l 0.9688,0.56795 c 1.0779,0.12157 2.0222,0.64339 2.94,0.83521 l 0.735,0.0668 c 0.4856,0.49433 1.0481,0.73898 1.6704,1.00226 1.1083,0.33587 0.9981,-0.52 2.0381,0 0.4047,-0.14546 0.4432,-0.17048 0.6682,0.16705 0.2779,0.11193 0.597,0.39011 0.8609,0.53084 l 0.5089,-0.16333 c -3.8824,-2.66767 -9.2576,-5.62671 -12.1412,-6.16211 -2.20894,0.63809 -3.39065,2.67099 -8.07755,7.56848 z"
       id="path2077-7"
       inkscape:connector-curvature="0"
       sodipodi:nodetypes="ccccccccccccccc" />
    <path
       style="fill:url(#linearGradient891);fill-opacity:1;stroke:none;stroke-width:0.26458332px;stroke-linecap:butt;stroke-linejoin:miter;stroke-opacity:1"
       d="m 1005.3237,314.16958 c 0.4309,-2.503 1.4884,-4.68843 2.5725,-6.94901 0.8039,-1.70624 1.8726,-3.23314 2.94,-4.77742 l 0.2004,2.0713 c 0.4558,-0.55746 0.6392,-1.12646 0.8018,-1.80405 l 0.3341,0.66817 c 1.6956,-2.2221 3.5701,-4.91387 5.7797,-6.28084 l -0.4677,1.36975 c -2.0897,5.08915 -4.4217,10.41637 -6.8822,14.83347 -1.0224,1.8562 -2.0557,3.70597 -3.107,5.54586 -0.707,-2.12352 0.013,-4.61081 0.3341,-6.48129 l -0.1671,-0.66818 -0.5679,0.4009 -0.6014,0.66817 z"
       id="path2079-1"
       inkscape:connector-curvature="0"
       sodipodi:nodetypes="ccccccccccccccc" />
    <path
       style="fill:url(#linearGradient883);fill-opacity:1;stroke:none;stroke-width:0.26458332px;stroke-linecap:butt;stroke-linejoin:miter;stroke-opacity:1"
       d="m 1000.7847,290.0363 c 0,0 2.5041,-4.39397 2.5041,-4.58296 0,-0.18898 2.3624,-4.67746 2.3624,-4.67746 l 1.6536,-4.58295 c 0.1694,-0.73686 -0.2466,-0.32566 -0.7089,-0.0945 2.7923,-6.58873 4.9182,-11.27581 7.7485,-17.67038 l -0.189,3.16556 c 1.0673,-0.31028 1.08,-2.16542 1.3702,-0.42522 l 0.047,1.46465 1.3702,-1.93714 c -0.7394,5.9986 -2.0877,10.31012 -2.6931,15.63878 0.8223,-1.66804 2.1007,-3.24596 3.1655,-4.48848 -0.074,1.19655 -0.095,2.39266 -0.095,3.59078 l 0.6615,-0.66147 c 0.454,1.21667 -0.083,2.05565 -0.472,3.16555 0.013,0.98952 -0.2339,1.68395 -0.7087,2.50411 l 0.3308,0.33072 1.3701,-0.75593 c 1.3074,-0.68059 3.0122,-1.11543 4.205,-0.66142 0.239,0.692 0.2727,1.40388 0.3302,2.1261 -1.4636,4.5263 -4.0947,8.96654 -5.5751,13.08743 l -2.0316,1.41741 c -3.4927,2.94026 -5.5539,5.9519 -8.1265,9.73288 l 1.6064,-7.37053 0.9922,-5.38617 0.8504,-2.83482 -0.3779,-0.18897 -0.567,0.6142 c -1.3601,0.87909 -2.5552,1.30211 -3.9688,1.55916 l -0.2362,-0.18896 c 0.472,-0.69748 0.6429,-1.46734 0.8504,-2.26787 0.02,-1.00007 -0.074,-1.98598 -0.1887,-2.97656 -0.2797,-0.55877 -0.4539,-0.36842 -0.9922,-0.189 -1.4484,0.66677 -2.4293,1.70115 -3.4963,2.83482 l -1.3229,0.85045"
       id="path2082-9"
       inkscape:connector-curvature="0"
       sodipodi:nodetypes="csccccccccccccccccccccccccccccccccc" />
    <path
       style="fill:url(#linearGradient859);fill-opacity:1;stroke:none;stroke-width:0.26458332px;stroke-linecap:butt;stroke-linejoin:miter;stroke-opacity:1"
       d="m 754.19854,202.56416 c -1.88657,0.20774 -4.64314,1.72046 -8.31149,4.60086 l 0.006,-3.43282 c -9.50336,10.89261 -19.78958,18.39292 -30.35638,24.67727 7.56745,-3.65809 15.77682,-8.47163 22.55464,-10.70837 -0.53892,2.94663 -5.71434,6.98476 -9.67295,10.73643 9.37739,-4.89687 8.91574,-7.088 30.9341,-15.46113 l 0.0472,-4.06324 c -3.39071,-1.02421 -8.75579,-2.1945 -5.20114,-6.349 z"
       id="path849"
       inkscape:connector-curvature="0"
       sodipodi:nodetypes="ccccccccc" />
    <path
       style="fill:url(#linearGradient859-3);fill-opacity:1;stroke:none;stroke-width:0.26458332px;stroke-linecap:butt;stroke-linejoin:miter;stroke-opacity:1"
       d="m -327.8986,214.96127 c -1.88657,0.20774 -4.64314,1.72046 -8.31149,4.60086 l 0.006,-3.43282 c -9.50337,10.89261 -19.78959,18.39292 -30.35639,24.67727 7.56745,-3.65809 15.77682,-8.47163 22.55464,-10.70837 -0.53892,2.94663 -5.71434,6.98476 -9.67295,10.73643 9.37739,-4.89687 8.91574,-7.088 30.9341,-15.46113 l 0.0472,-4.06324 c -3.39071,-1.02421 -8.75579,-2.1945 -5.20114,-6.349 z"
       id="path849-5"
       inkscape:connector-curvature="0"
       sodipodi:nodetypes="ccccccccc" />
    <g
       id="g1162"
       clip-path="url(#clipPath1164)"
       transform="translate(16.180828,26.91862)">
      <path
         style="fill:url(#linearGradient1200);fill-opacity:1;stroke:none;stroke-width:0.26458332px;stroke-linecap:butt;stroke-linejoin:miter;stroke-opacity:1"
         d="m -126.26605,241.30795 c 0.47247,-0.0945 24.10871,-20.22328 24.10871,-20.22328 -0.33209,0.78762 -0.75318,1.52717 -1.16921,2.27179 l -1.47004,1.63703 c 1.47047,-0.64556 2.58329,-2.06201 3.54122,-3.0402 l -0.50107,0.63478 -0.2339,0.76839 h 0.50117 l 0.96874,0.20045 1.603506,0.20046 c 0.25577,1.53048 1.93967,1.82253 3.10717,1.26953 -0.727,4.69432 -4.746016,8.54322 -7.182626,11.69304 l -0.73497,1.1359 c 4.111576,-2.74309 7.889596,-6.59249 10.456696,-10.18965 l 0.2004,-0.30069 0.067,0.96886 c -4.4715,7.24921 -10.243676,14.25093 -15.568136,19.97841 6.35716,-4.55608 11.471136,-11.20129 15.568136,-16.838 l -3.2072,5.84652 c 1.7046,-1.32142 3.0526,-2.90177 4.3765,-4.57699 -0.3922,1.76777 -1.2503,3.33174 -2.0379,4.9445 1.0992,-1.53904 2.4931,-2.79785 3.842,-4.10928 l 0.3675,-0.46772 c -1.7302,4.32082 -3.9878,8.84048 -5.5459,12.36121 1.5521,-0.1448 1.931,-0.48044 2.4723,0.60138 2.7859,-1.9377 5.5398,-3.91925 8.2853,-5.91337 -4.9585,7.89492 -9.0726,16.25682 -13.3634,24.52198 h 1.8374 c -8.182076,15.81795 -19.890466,29.32539 -32.205626,40.89227 l -41.62725,0.16702 -29.88208,1.56486 z"
         id="path2075-7-2"
         inkscape:connector-curvature="0"
         sodipodi:nodetypes="cccccccccccccccccccccccccccccc" />
      <path
         style="fill:url(#linearGradient1202);fill-opacity:1;stroke:none;stroke-width:0.26458332px;stroke-linecap:butt;stroke-linejoin:miter;stroke-opacity:1"
         d="m -98.916924,223.75737 0.76837,0.33408 c 1.1049,-1.01159 1.7167,-2.04802 1.3364,-3.4745 -0.022,-0.52822 -0.027,-0.91661 0.2669,-1.33635 l 0.9688,0.56795 c 1.0779,0.12157 2.0222,0.64339 2.94,0.83521 l 0.735,0.0668 c 0.4856,0.49433 1.0481,0.73898 1.6704,1.00226 1.1083,0.33587 0.9981,-0.52 2.0381,0 0.4047,-0.14546 0.4432,-0.17048 0.6682,0.16705 0.2779,0.11193 0.597,0.39011 0.8609,0.53084 l 0.5089,-0.16333 c -3.8824,-2.66767 -9.2576,-5.62671 -12.1412,-6.16211 -2.208936,0.63809 -3.390646,2.67099 -8.077546,7.56848 z"
         id="path2077-7-7"
         inkscape:connector-curvature="0"
         sodipodi:nodetypes="ccccccccccccccc" />
      <path
         style="fill:url(#linearGradient1204);fill-opacity:1;stroke:none;stroke-width:0.26458332px;stroke-linecap:butt;stroke-linejoin:miter;stroke-opacity:1"
         d="m -93.237454,299.69532 c 0.4309,-2.503 1.4884,-4.68843 2.5725,-6.94901 0.8039,-1.70624 1.8726,-3.23314 2.94,-4.77742 l 0.2004,2.0713 c 0.4558,-0.55746 0.6392,-1.12646 0.8018,-1.80405 l 0.3341,0.66817 c 1.6956,-2.2221 3.5701,-4.91387 5.7797,-6.28084 l -0.4677,1.36975 c -2.0897,5.08915 -4.4217,10.41637 -6.8822,14.83347 -1.0224,1.8562 -2.0557,3.70597 -3.107,5.54586 -0.707,-2.12352 0.013,-4.61081 0.3341,-6.48129 l -0.1671,-0.66818 -0.5679,0.4009 -0.6014,0.66817 z"
         id="path2079-1-0"
         inkscape:connector-curvature="0"
         sodipodi:nodetypes="ccccccccccccccc" />
      <path
         style="fill:url(#linearGradient1206);fill-opacity:1;stroke:none;stroke-width:0.26458332px;stroke-linecap:butt;stroke-linejoin:miter;stroke-opacity:1"
         d="m -97.776454,275.56204 c 0,0 2.5041,-4.39397 2.5041,-4.58296 0,-0.18898 2.3624,-4.67746 2.3624,-4.67746 l 1.6536,-4.58295 c 0.1694,-0.73686 -0.2466,-0.32566 -0.7089,-0.0945 2.7923,-6.58873 4.9182,-11.27581 7.7485,-17.67038 l -0.189,3.16556 c 1.0673,-0.31028 1.08,-2.16542 1.3702,-0.42522 l 0.047,1.46465 1.3702,-1.93714 c -0.7394,5.9986 -2.0877,10.31012 -2.6931,15.63878 0.8223,-1.66804 2.1007,-3.24596 3.1655,-4.48848 -0.074,1.19655 -0.095,2.39266 -0.095,3.59078 l 0.6615,-0.66147 c 0.454,1.21667 -0.083,2.05565 -0.472,3.16555 0.013,0.98952 -0.2339,1.68395 -0.7087,2.50411 l 0.3308,0.33072 1.3701,-0.75593 c 1.3074,-0.68059 3.0122,-1.11543 4.205,-0.66142 0.239,0.692 0.2727,1.40388 0.3302,2.1261 -1.4636,4.5263 -4.0947,8.96654 -5.5751,13.08743 l -2.0316,1.41741 c -3.4927,2.94026 -5.5539,5.9519 -8.1265,9.73288 l 1.6064,-7.37053 0.9922,-5.38617 0.8504,-2.83482 -0.3779,-0.18897 -0.567,0.6142 c -1.3601,0.87909 -2.5552,1.30211 -3.9688,1.55916 l -0.2362,-0.18896 c 0.472,-0.69748 0.6429,-1.46734 0.8504,-2.26787 0.02,-1.00007 -0.074,-1.98598 -0.1887,-2.97656 -0.2797,-0.55877 -0.4539,-0.36842 -0.9922,-0.189 -1.4484,0.66677 -2.4293,1.70115 -3.4963,2.83482 l -1.3229,0.85045"
         id="path2082-9-9"
         inkscape:connector-curvature="0"
         sodipodi:nodetypes="csccccccccccccccccccccccccccccccccc" />
    </g>
  </g>
</svg>
