<?xml version="1.0" encoding="UTF-8" standalone="no"?>
<!-- Created with Inkscape (http://www.inkscape.org/) -->

<svg
   width="62.315643mm"
   height="69.653328mm"
   viewBox="0 0 62.315643 69.653328"
   version="1.1"
   id="svg5"
   xml:space="preserve"
   xmlns:xlink="http://www.w3.org/1999/xlink"
   xmlns="http://www.w3.org/2000/svg"
   xmlns:svg="http://www.w3.org/2000/svg"><defs
     id="defs2"><linearGradient
       id="linearGradient12990"><stop
         style="stop-color:#fedade;stop-opacity:1;"
         offset="0"
         id="stop12986" /><stop
         style="stop-color:#fedade;stop-opacity:0.64879775;"
         offset="1"
         id="stop12988" /></linearGradient><linearGradient
       id="linearGradient12982"><stop
         style="stop-color:#fedade;stop-opacity:1;"
         offset="0"
         id="stop12978" /><stop
         style="stop-color:#fedade;stop-opacity:0;"
         offset="1"
         id="stop12980" /></linearGradient><linearGradient
       id="linearGradient12974"><stop
         style="stop-color:#fedade;stop-opacity:1;"
         offset="0"
         id="stop12970" /><stop
         style="stop-color:#fedade;stop-opacity:0;"
         offset="1"
         id="stop12972" /></linearGradient><linearGradient
       id="linearGradient12964"><stop
         style="stop-color:#fedade;stop-opacity:1;"
         offset="0"
         id="stop12960" /><stop
         style="stop-color:#fedade;stop-opacity:0;"
         offset="1"
         id="stop12962" /></linearGradient><linearGradient
       id="linearGradient12342"><stop
         style="stop-color:#f91329;stop-opacity:1;"
         offset="0"
         id="stop12338" /><stop
         style="stop-color:#c70619;stop-opacity:1;"
         offset="1"
         id="stop12340" /></linearGradient><linearGradient
       id="linearGradient12334"><stop
         style="stop-color:#f91329;stop-opacity:1;"
         offset="0"
         id="stop12330" /><stop
         style="stop-color:#c20517;stop-opacity:1;"
         offset="1"
         id="stop12332" /></linearGradient><linearGradient
       id="linearGradient12326"><stop
         style="stop-color:#f91329;stop-opacity:1;"
         offset="0"
         id="stop12322" /><stop
         style="stop-color:#960613;stop-opacity:1;"
         offset="1"
         id="stop12324" /></linearGradient><linearGradient
       id="linearGradient12318"><stop
         style="stop-color:#f91329;stop-opacity:1;"
         offset="0"
         id="stop12314" /><stop
         style="stop-color:#90040d;stop-opacity:1;"
         offset="1"
         id="stop12316" /></linearGradient><linearGradient
       id="linearGradient12310"><stop
         style="stop-color:#f91329;stop-opacity:1;"
         offset="0"
         id="stop12306" /><stop
         style="stop-color:#be0617;stop-opacity:1;"
         offset="1"
         id="stop12308" /></linearGradient><linearGradient
       id="linearGradient11774"><stop
         style="stop-color:#000000;stop-opacity:1;"
         offset="0"
         id="stop11770" /><stop
         style="stop-color:#000000;stop-opacity:0;"
         offset="1"
         id="stop11772" /></linearGradient><linearGradient
       id="linearGradient11766"><stop
         style="stop-color:#f91329;stop-opacity:1;"
         offset="0"
         id="stop11762" /><stop
         style="stop-color:#ce061a;stop-opacity:1;"
         offset="1"
         id="stop11764" /></linearGradient><linearGradient
       id="linearGradient9412"><stop
         style="stop-color:#f91329;stop-opacity:1;"
         offset="0"
         id="stop9408" /><stop
         style="stop-color:#390306;stop-opacity:1;"
         offset="1"
         id="stop9410" /></linearGradient><linearGradient
       id="linearGradient8444"><stop
         style="stop-color:#000000;stop-opacity:1;"
         offset="0"
         id="stop8440" /><stop
         style="stop-color:#000000;stop-opacity:0;"
         offset="1"
         id="stop8442" /></linearGradient><linearGradient
       id="linearGradient8436"><stop
         style="stop-color:#000000;stop-opacity:1;"
         offset="0"
         id="stop8432" /><stop
         style="stop-color:#000000;stop-opacity:0;"
         offset="1"
         id="stop8434" /></linearGradient><linearGradient
       id="linearGradient6910"><stop
         style="stop-color:#000000;stop-opacity:1;"
         offset="0"
         id="stop6906" /><stop
         style="stop-color:#000000;stop-opacity:0;"
         offset="1"
         id="stop6908" /></linearGradient><linearGradient
       id="linearGradient6899"><stop
         style="stop-color:#000000;stop-opacity:1;"
         offset="0"
         id="stop6895" /><stop
         style="stop-color:#000000;stop-opacity:0;"
         offset="1"
         id="stop6897" /></linearGradient><linearGradient
       id="linearGradient6891"><stop
         style="stop-color:#000000;stop-opacity:1;"
         offset="0"
         id="stop6887" /><stop
         style="stop-color:#000000;stop-opacity:0;"
         offset="1"
         id="stop6889" /></linearGradient><linearGradient
       id="linearGradient6873"><stop
         style="stop-color:#000000;stop-opacity:1;"
         offset="0"
         id="stop6869" /><stop
         style="stop-color:#000000;stop-opacity:0;"
         offset="1"
         id="stop6871" /></linearGradient><linearGradient
       id="linearGradient6865"><stop
         style="stop-color:#000000;stop-opacity:1;"
         offset="0"
         id="stop6861" /><stop
         style="stop-color:#000000;stop-opacity:0;"
         offset="1"
         id="stop6863" /></linearGradient><linearGradient
       id="linearGradient6856"><stop
         style="stop-color:#000000;stop-opacity:1;"
         offset="0"
         id="stop6852" /><stop
         style="stop-color:#000000;stop-opacity:0;"
         offset="1"
         id="stop6854" /></linearGradient><linearGradient
       id="linearGradient6848"><stop
         style="stop-color:#000000;stop-opacity:1;"
         offset="0"
         id="stop6844" /><stop
         style="stop-color:#000000;stop-opacity:0;"
         offset="1"
         id="stop6846" /></linearGradient><linearGradient
       id="linearGradient6840"><stop
         style="stop-color:#000000;stop-opacity:1;"
         offset="0"
         id="stop6836" /><stop
         style="stop-color:#000000;stop-opacity:0;"
         offset="1"
         id="stop6838" /></linearGradient><linearGradient
       xlink:href="#linearGradient6840"
       id="linearGradient6842"
       x1="118.4324"
       y1="182.06551"
       x2="118.44356"
       y2="182.27303"
       gradientUnits="userSpaceOnUse" /><linearGradient
       xlink:href="#linearGradient6848"
       id="linearGradient6850"
       x1="136.46492"
       y1="180.4659"
       x2="136.41576"
       y2="180.30838"
       gradientUnits="userSpaceOnUse" /><linearGradient
       xlink:href="#linearGradient6856"
       id="linearGradient6858"
       x1="127.53342"
       y1="159.95129"
       x2="127.20034"
       y2="159.6144"
       gradientUnits="userSpaceOnUse" /><linearGradient
       xlink:href="#linearGradient6865"
       id="linearGradient6867"
       x1="124.5951"
       y1="156.86462"
       x2="124.62735"
       y2="157.19519"
       gradientUnits="userSpaceOnUse" /><linearGradient
       xlink:href="#linearGradient6873"
       id="linearGradient6875"
       x1="127.57878"
       y1="143.51782"
       x2="127.15606"
       y2="143.12267"
       gradientUnits="userSpaceOnUse" /><linearGradient
       xlink:href="#linearGradient6891"
       id="linearGradient6893"
       x1="121.48617"
       y1="144.79564"
       x2="122.01145"
       y2="143.91412"
       gradientUnits="userSpaceOnUse" /><linearGradient
       xlink:href="#linearGradient6899"
       id="linearGradient6901"
       x1="115.42138"
       y1="144.92909"
       x2="115.71234"
       y2="144.5041"
       gradientUnits="userSpaceOnUse" /><linearGradient
       xlink:href="#linearGradient6910"
       id="linearGradient6912"
       x1="118.79109"
       y1="182.17834"
       x2="118.75377"
       y2="181.94528"
       gradientUnits="userSpaceOnUse" /><linearGradient
       xlink:href="#linearGradient8436"
       id="linearGradient8438"
       x1="120.91465"
       y1="132.1104"
       x2="120.70791"
       y2="132.13043"
       gradientUnits="userSpaceOnUse" /><linearGradient
       xlink:href="#linearGradient8444"
       id="linearGradient8446"
       x1="111.52612"
       y1="132.26228"
       x2="112.01701"
       y2="131.98865"
       gradientUnits="userSpaceOnUse" /><filter
       style="color-interpolation-filters:sRGB"
       id="filter8775"
       x="-0.057981696"
       y="-0.027703566"
       width="1.1144146"
       height="1.0518388"><feGaussianBlur
         stdDeviation="0.13257621"
         id="feGaussianBlur8777" /></filter><filter
       style="color-interpolation-filters:sRGB"
       id="filter21114-5-6-1"
       x="-0.054977283"
       y="-0.03528494"
       width="1.1099546"
       height="1.0705699"><feGaussianBlur
         stdDeviation="0.3 0.3"
         result="blur"
         id="feGaussianBlur21112-3-2-2" /></filter><linearGradient
       xlink:href="#linearGradient9412"
       id="linearGradient9414"
       x1="135.79134"
       y1="153.8734"
       x2="134.10081"
       y2="153.77325"
       gradientUnits="userSpaceOnUse" /><linearGradient
       xlink:href="#linearGradient11766"
       id="linearGradient11768"
       x1="136.39659"
       y1="131.73506"
       x2="137.51335"
       y2="132.9921"
       gradientUnits="userSpaceOnUse" /><linearGradient
       xlink:href="#linearGradient11774"
       id="linearGradient11776"
       x1="114.32949"
       y1="138.58592"
       x2="114.35986"
       y2="138.14211"
       gradientUnits="userSpaceOnUse" /><linearGradient
       xlink:href="#linearGradient12310"
       id="linearGradient12312"
       x1="129.77165"
       y1="150.12679"
       x2="133.74332"
       y2="149.57475"
       gradientUnits="userSpaceOnUse" /><linearGradient
       xlink:href="#linearGradient12318"
       id="linearGradient12320"
       x1="127.02409"
       y1="148.10567"
       x2="134.08406"
       y2="148.20477"
       gradientUnits="userSpaceOnUse" /><linearGradient
       xlink:href="#linearGradient12326"
       id="linearGradient12328"
       x1="130.7803"
       y1="162.21851"
       x2="136.61777"
       y2="159.614"
       gradientUnits="userSpaceOnUse" /><linearGradient
       xlink:href="#linearGradient12334"
       id="linearGradient12336"
       x1="111.08948"
       y1="144.37999"
       x2="112.29707"
       y2="145.76157"
       gradientUnits="userSpaceOnUse" /><linearGradient
       xlink:href="#linearGradient12342"
       id="linearGradient12344"
       x1="118.67496"
       y1="135.86435"
       x2="120.93338"
       y2="137.49628"
       gradientUnits="userSpaceOnUse" /><linearGradient
       xlink:href="#linearGradient12964"
       id="linearGradient12966"
       x1="116.39908"
       y1="133.91953"
       x2="117.38521"
       y2="134.29404"
       gradientUnits="userSpaceOnUse" /><linearGradient
       xlink:href="#linearGradient12990"
       id="linearGradient12968"
       x1="114.82989"
       y1="134.3717"
       x2="115.77092"
       y2="135.34879"
       gradientUnits="userSpaceOnUse" /><linearGradient
       xlink:href="#linearGradient12974"
       id="linearGradient12976"
       x1="115.75094"
       y1="136.08818"
       x2="116.7256"
       y2="136.18765"
       gradientUnits="userSpaceOnUse" /><linearGradient
       xlink:href="#linearGradient12982"
       id="linearGradient12984"
       x1="110.92091"
       y1="134.65257"
       x2="110.30726"
       y2="134.79417"
       gradientUnits="userSpaceOnUse" /></defs><g
     id="layer4"
     style="display:inline"
     transform="translate(-86.580507,-116.10814)"><path
       style="font-variation-settings:normal;display:inline;opacity:1;vector-effect:none;fill:url(#linearGradient9414);fill-opacity:1;stroke:#000000;stroke-width:0.165;stroke-linecap:butt;stroke-linejoin:miter;stroke-miterlimit:4;stroke-dasharray:none;stroke-dashoffset:0;stroke-opacity:1;-inkscape-stroke:none;stop-color:#000000;stop-opacity:1"
       d="m 136.49595,132.69184 c -0.79374,4.96832 -0.11466,6.43693 0.0986,7.57773 0.0547,0.26043 0.0436,0.53657 -0.28861,0.88952 0.28162,0.24079 0.5263,0.49962 1.01123,0.64107 -0.0604,1.50815 1.26479,5.99057 2.53849,7.95628 1.28839,1.98838 2.68681,3.56535 4.03449,5.17282 1.05247,1.25536 2.50304,5.45577 0.93348,7.34853 -2.34824,2.83178 -5.9736,-2.05682 -7.40195,-4.86164 -1.79541,-3.5256 -4.09454,-6.30801 -5.905,-9.73731 l -4.90657,8.49124 c 2.50562,0.86756 6.53261,-0.28204 8.80272,2.58845 0.35964,0.45474 2.59377,3.60557 5.01538,5.273 1.85041,1.27412 5.58411,1.86746 6.62107,-2.05496 0.5956,-2.25289 -0.0237,-5.38028 -1.56739,-7.46243 -2.11562,-2.85357 -4.22024,-4.91072 -5.78793,-8.97283 -1.30758,-3.38815 -0.91423,-4.30808 -0.91423,-4.30808 -0.47519,0.0568 -0.59339,-0.20896 -0.77086,-0.42561 0.35825,-0.1113 0.39239,-0.36814 0.50521,-0.61774 -0.49872,-1.91936 -0.91295,-4.2618 -0.69589,-7.6269 z"
       id="path4650" /><path
       style="font-variation-settings:normal;opacity:1;vector-effect:none;fill:#f91329;fill-opacity:1;stroke:url(#linearGradient6842);stroke-width:0.165;stroke-linecap:butt;stroke-linejoin:miter;stroke-miterlimit:4;stroke-dasharray:none;stroke-dashoffset:0;stroke-opacity:1;-inkscape-stroke:none;stop-color:#000000;stop-opacity:1"
       d="m 117.21889,182.36245 c 1.02363,0.80667 2.02501,0.87001 2.99614,-0.0763 l -3.35789,-11.51018 6.90383,-7.69411 c 1.63517,-4.1219 2.24574,-7.60229 -5.04369,-6.13643 -1.05265,2.22098 -6.82374,7.96631 -6.92888,10.07974 -0.0734,1.47563 -0.54175,3.07275 -0.12697,4.52278 0.31692,1.10793 1.34915,1.87492 1.90984,2.88169 1.41606,2.54269 2.84315,5.07444 3.64762,7.93281 z"
       id="path4247" /><path
       style="font-variation-settings:normal;display:inline;opacity:1;vector-effect:none;fill:url(#linearGradient12320);fill-opacity:1;stroke:url(#linearGradient6867);stroke-width:0.165;stroke-linecap:butt;stroke-linejoin:miter;stroke-miterlimit:4;stroke-dasharray:none;stroke-dashoffset:0;stroke-opacity:1;-inkscape-stroke:none;stop-color:#000000;stop-opacity:1"
       d="m 122.21249,134.15208 c 0.55261,0.284 0.74374,0.67762 2.01838,0.73427 2.31893,0.10306 4.06302,1.12639 5.55983,2.61169 3.3345,3.30887 2.42127,9.16019 2.94055,10.35262 1.50239,3.44992 1.22216,5.03516 1.26648,7.10549 0.11653,5.44389 -2.41223,8.83036 -9.2522,8.27996 -5.17506,-0.41643 -6.84655,-3.4229 -6.41039,-5.52253 0.35634,-1.71537 0.66634,-3.60563 0.7493,-6.35301 -0.64179,-1.21915 -1.25551,-2.28835 -1.98609,-3.98185 l -4.6397,-7.22952 c 1.19572,-8.17082 6.36202,-7.74024 9.75384,-5.99712 z"
       id="path4251" /><path
       style="font-variation-settings:normal;display:inline;opacity:1;vector-effect:none;fill:url(#linearGradient12328);fill-opacity:1;stroke:url(#linearGradient6858);stroke-width:0.165;stroke-linecap:butt;stroke-linejoin:miter;stroke-miterlimit:4;stroke-dasharray:none;stroke-dashoffset:0;stroke-opacity:1;-inkscape-stroke:none;stop-color:#000000;stop-opacity:1"
       d="m 134.68045,181.06397 c 0.81022,1.69971 3.84963,-0.20751 3.41827,-0.79854 -0.75467,-1.03403 -1.5212,-2.30584 -2.04577,-3.44203 -0.62427,-1.35212 -1.36639,-2.69392 -2.40471,-3.76998 -0.59408,-0.61568 -1.73392,-1.98519 -1.73392,-1.98519 1.34659,-5.5677 3.52716,-12.04051 1.39596,-19.5878 -4.7076,0.667 -10.00148,0.32273 -7.84184,9.8743 -0.55393,6.62809 0.16428,10.93179 1.25105,11.79594 2.11759,1.68383 6.72124,5.31258 7.96096,7.9133 z"
       id="path4249" /><path
       style="display:inline;fill:#f91329;fill-opacity:1;stroke:url(#linearGradient6850);stroke-width:0.165;stroke-linecap:butt;stroke-linejoin:miter;stroke-dasharray:none;stroke-opacity:1"
       d="m 130.94747,185.04761 c 0.63101,0.20899 1.92482,0.82826 2.8604,-0.10432 0.79558,0.66607 1.37035,0.66908 1.93931,-0.006 1.17967,0.84294 1.56077,0.21386 2.08278,-0.15548 0,0 1.00566,-2.36437 1.0809,-3.01286 0.0595,-0.51289 -0.12684,-1.17474 -0.51797,-1.49264 -0.92078,-0.7484 -3.19563,-1.45646 -3.59291,0.22036 -0.19369,0.8175 -1.03571,1.97594 -1.20298,2.82806 -1.25165,0.11571 -2.21823,0.58611 -2.64953,1.72251 z"
       id="path1325" /><path
       style="font-variation-settings:normal;opacity:1;vector-effect:none;fill:url(#linearGradient12336);fill-opacity:1;stroke:#000000;stroke-width:0.165;stroke-linecap:butt;stroke-linejoin:miter;stroke-miterlimit:4;stroke-dasharray:none;stroke-dashoffset:0;stroke-opacity:1;-inkscape-stroke:none;stop-color:#000000;stop-opacity:1"
       d="m 110.98859,139.20267 c -1.893,2.79122 -5.02384,6.41239 -7.86677,6.89488 0.69024,-0.30319 0.81767,-1.79905 -1.21355,-1.85778 3.18696,0.90143 0.75812,-3.8409 -1.42327,-2.63597 -1.972428,2.92951 -1.171365,5.22291 0.91681,7.7738 3.0569,3.28413 11.02982,-3.88858 12.37222,-5.02516 2.64935,-2.97451 1.35469,-4.73359 -2.78544,-5.14977 z"
       id="path4348" /><path
       style="font-variation-settings:normal;display:inline;opacity:1;vector-effect:none;fill:#f91329;fill-opacity:1;stroke:#000000;stroke-width:0.165;stroke-linecap:butt;stroke-linejoin:miter;stroke-miterlimit:4;stroke-dasharray:none;stroke-dashoffset:0;stroke-opacity:1;-inkscape-stroke:none;stop-color:#000000;stop-opacity:1"
       d="m 115.4383,185.35231 1.28211,-0.35523 -17.572916,-46.92141 c -0.124104,-0.33137 0.04679,-0.3706 0.195784,-0.42468 1.178422,-0.42776 2.560682,-1.19599 2.694772,-2.69739 0.12785,-1.43146 -1.66706,-5.80896 -2.047089,-6.87232 l 1.013219,-0.46605 -2.537759,-2.0789 -0.538349,3.14815 0.898714,-0.29908 1.601984,4.79747 c 0.40996,1.2277 0.43347,2.27607 -1.865525,3.06968 l -2.815417,-6.82621 0.9927,-0.40398 -2.540552,-2.12589 -0.643929,3.20564 0.999944,-0.30628 2.500516,6.90512 c -1.552408,1.00359 -3.055107,0.17234 -3.555915,-0.95387 l -2.040211,-4.67051 0.764293,-0.24927 -2.418744,-2.0391 -0.448255,2.8866 0.890875,-0.25616 1.992122,4.88897 c 0.144871,0.35553 1.980347,3.35015 4.952747,2.07259 0.151665,-0.0652 0.391822,-0.3007 0.494379,-0.0292 5.918012,15.66666 11.814012,31.34164 17.750502,47.00131 z"
       id="path4253" /><path
       style="display:inline;fill:#f91329;fill-opacity:1;stroke:url(#linearGradient6912);stroke-width:0.165;stroke-linecap:butt;stroke-linejoin:miter;stroke-miterlimit:4;stroke-dasharray:none;stroke-opacity:1"
       d="m 111.8855,185.24181 c 0.81389,-1.6744 3.42295,-1.99073 4.21838,-2.08984 0.36811,-0.0459 0.91427,0.0319 1.14692,-0.92768 0.56273,-2.3212 2.3848,-1.21244 2.89346,-0.32136 0.26138,0.45789 0.48629,1.56435 -0.59433,2.38793 0.57068,-0.40984 0.94098,0.006 1.04182,0.27242 0.10369,0.27441 0.005,0.7211 -0.39024,0.84073 -1.97137,-0.038 -4.19101,0.73604 -5.86473,-0.15831 -0.78025,0.11949 -1.43094,0.51776 -2.45128,-0.004 z"
       id="path1323" /><path
       style="font-variation-settings:normal;opacity:1;vector-effect:none;fill:#f91329;fill-opacity:1;stroke:url(#linearGradient6901);stroke-width:0.165;stroke-linecap:butt;stroke-linejoin:miter;stroke-miterlimit:4;stroke-dasharray:none;stroke-dashoffset:0;stroke-opacity:1;-inkscape-stroke:none;stop-color:#000000;stop-opacity:1"
       d="m 112.90126,142.46037 c 0.5982,1.50493 1.73712,2.99811 2.57892,3.8659 1.33751,1.37881 2.86693,0.87821 4.03208,0.23097 1.16516,-0.64723 2.05595,-2.51289 1.38612,-3.72848 -0.71314,-1.29421 -8.63639,-3.86735 -7.99712,-0.36839 z"
       id="path4447" /><path
       style="font-variation-settings:normal;opacity:1;vector-effect:none;fill:#f91329;fill-opacity:1;stroke:url(#linearGradient6893);stroke-width:0.165;stroke-linecap:butt;stroke-linejoin:miter;stroke-miterlimit:4;stroke-dasharray:none;stroke-dashoffset:0;stroke-opacity:1;-inkscape-stroke:none;stop-color:#000000;stop-opacity:1"
       d="m 118.29615,141.29797 c -1.20541,-0.12558 0.38954,2.88332 1.33262,3.84661 1.83091,1.87014 3.76654,1.70616 5.43339,1.1138 1.66685,-0.59236 2.9012,-3.95334 1.1958,-4.13099 z"
       id="path4449" /><path
       style="font-variation-settings:normal;opacity:1;vector-effect:none;fill:url(#linearGradient12312);fill-opacity:1;stroke:url(#linearGradient6875);stroke-width:0.165;stroke-linecap:butt;stroke-linejoin:miter;stroke-miterlimit:4;stroke-dasharray:none;stroke-dashoffset:0;stroke-opacity:1;-inkscape-stroke:none;stop-color:#000000;stop-opacity:1"
       d="m 128.76744,147.99479 c 0.17772,0.15242 0.30674,0.49419 0.009,0.72818 -1.87323,1.47385 -3.80205,3.006 -5.61115,4.65785 -0.86798,-0.23618 -1.71897,-0.5081 -2.66773,-0.0567 -1.44888,0.68936 -2.11302,1.70478 -3.38477,2.39488 1.26701,0.58247 2.02387,-0.047 2.51195,-0.24805 0.85379,-0.35161 0.79824,0.7685 0.59406,0.87639 -1.54652,0.81718 -3.83546,2.99199 -3.35601,3.62785 1.24091,-0.95633 1.42766,-0.27464 3.14912,-1.70907 -0.65277,1.25405 -2.17688,2.38337 -1.77086,3.36764 0.93043,-0.79902 1.36057,-0.62677 1.68498,-1.10901 0.21886,-0.32534 1.1681,-1.08991 1.59428,-2.00536 -0.59327,1.42452 -0.99488,3.27294 -0.24375,4.00663 0.54089,-1.01751 0.83175,-1.92141 1.19885,-3.18168 0.0617,1.33733 0.16385,1.87031 0.84906,3.02756 0.76975,-1.21245 -0.0662,-1.75241 0.2256,-2.49303 0.3532,-0.8964 0.1404,-1.40572 0.61634,-1.95586 1.97142,-2.27902 4.76052,-1.62554 8.63606,-5.61538 1.5772,-1.6237 1.1899,-4.52933 0.65907,-7.62157 -0.80161,-4.6696 -4.74041,-9.19222 -5.9925,-7.75175 -1.87424,5.57676 -3.13798,7.11369 1.29805,11.06047 z"
       id="path4548" /><path
       style="font-variation-settings:normal;opacity:1;vector-effect:none;fill:url(#linearGradient11768);fill-opacity:1;stroke:#000000;stroke-width:0.165;stroke-linecap:butt;stroke-linejoin:miter;stroke-miterlimit:4;stroke-dasharray:none;stroke-dashoffset:0;stroke-opacity:1;-inkscape-stroke:none;stop-color:#000000;stop-opacity:1"
       d="m 139.37856,127.3964 c -1.88396,1.78078 -3.70207,3.68357 -5.16099,5.73062 1.08293,1.35716 1.96747,1.00743 2.85384,0.38882 0.38301,0.54864 1.4331,1.13271 2.70706,1.72868 -0.5902,-2.60781 -0.58477,-5.22635 -0.39991,-7.84812 z"
       id="path4648" /><path
       style="font-variation-settings:normal;opacity:1;vector-effect:none;fill:#201c2f;fill-opacity:1;stroke:#000000;stroke-width:0.165;stroke-linecap:butt;stroke-linejoin:miter;stroke-miterlimit:4;stroke-dasharray:none;stroke-dashoffset:0;stroke-opacity:1;-inkscape-stroke:none;stop-color:#000000;stop-opacity:1"
       d="m 109.50826,126.45782 c -0.33539,0.29109 -1.98424,-1.78753 -1.91033,-2.8494 0.1577,-2.26562 0.23253,-4.73183 2.87469,-5.99112 -0.0452,2.10149 -0.0633,4.19114 2.21629,5.27233 z"
       id="path4817" /><path
       style="font-variation-settings:normal;opacity:1;vector-effect:none;fill:url(#linearGradient12344);fill-opacity:1;stroke:#000000;stroke-width:0.165;stroke-linecap:butt;stroke-linejoin:miter;stroke-miterlimit:4;stroke-dasharray:none;stroke-dashoffset:0;stroke-opacity:1;-inkscape-stroke:none;stop-color:#000000;stop-opacity:1"
       d="m 107.95495,131.53955 c -0.85419,-2.47822 -1.16642,-5.20525 1.27716,-7.52367 3.21088,-3.04641 5.99558,-2.95047 8.49543,-2.15172 2.31346,0.7392 3.7016,2.55984 4.40286,4.4515 0.73983,1.9957 -0.15919,5.42294 -0.48447,8.26314 -0.2163,1.88863 -1.81561,4.51047 -5.01003,5.02193 -2.90395,0.46496 -5.99532,0.0984 -8.26368,-2.732 -2.24358,-2.79951 -1.5701,-4.55439 -0.41727,-5.32918 z"
       id="path4752" /><path
       style="font-variation-settings:normal;opacity:1;vector-effect:none;fill:#201c2f;fill-opacity:1;stroke:#000000;stroke-width:0.165;stroke-linecap:butt;stroke-linejoin:miter;stroke-miterlimit:4;stroke-dasharray:none;stroke-dashoffset:0;stroke-opacity:1;-inkscape-stroke:none;stop-color:#000000;stop-opacity:1"
       d="m 116.54072,123.13572 c 2.14102,-0.94461 2.46104,-3.436 3.12186,-5.56494 1.29766,0.57856 2.1427,3.4784 1.80627,4.84443 -0.60759,2.46705 0.46096,3.66077 -1.48307,4.81712 -0.64842,0.3857 -1.86628,0.26011 -1.90449,-0.27949 -0.0555,-0.78397 -0.76789,-1.40826 -1.36305,-1.97178 -0.96516,-0.91386 -1.00091,-1.48207 -0.17752,-1.84534 z"
       id="path4819" /><path
       style="font-variation-settings:normal;opacity:1;vector-effect:none;fill:#f91329;fill-opacity:1;stroke:url(#linearGradient8438);stroke-width:0.165;stroke-linecap:butt;stroke-linejoin:miter;stroke-miterlimit:4;stroke-dasharray:none;stroke-dashoffset:0;stroke-opacity:1;-inkscape-stroke:none;stop-color:#000000;stop-opacity:1"
       d="m 119.35104,130.68478 c 2.79391,0.29962 -0.52417,-0.4831 3.40451,-3.53298 1.29017,-1.00157 2.59206,-1.94669 3.75248,-2.4764 -0.53802,2.68184 -1.07682,4.28784 -2.22175,6.39251 -1.42403,2.61776 -2.99159,3.07362 -4.58771,2.61308 -1.87398,-0.5407 -1.74379,-3.14594 -0.34753,-2.99621 z"
       id="path4821" /><path
       style="font-variation-settings:normal;opacity:1;vector-effect:none;fill:#201c2f;fill-opacity:1;stroke:#000000;stroke-width:0.165;stroke-linecap:butt;stroke-linejoin:miter;stroke-miterlimit:4;stroke-dasharray:none;stroke-dashoffset:0;stroke-opacity:1;-inkscape-stroke:none;stop-color:#000000;stop-opacity:1"
       d="m 121.91194,130.27679 c 0.82977,-0.23331 1.50035,-0.73832 1.6057,-1.30124 0.0726,1.03089 -0.38244,1.57713 -1.0039,2.24741 0.13549,-0.45479 0.50687,-0.87924 0.33689,-1.13583 -0.25742,0.16871 -0.55496,0.19973 -0.93869,0.18966 z"
       id="path4823" /><path
       style="font-variation-settings:normal;opacity:1;vector-effect:none;fill:#201c2f;fill-opacity:1;stroke:url(#linearGradient11776);stroke-width:0.165;stroke-linecap:butt;stroke-linejoin:miter;stroke-miterlimit:4;stroke-dasharray:none;stroke-dashoffset:0;stroke-opacity:1;-inkscape-stroke:none;stop-color:#000000;stop-opacity:1"
       d="m 110.04008,138.37803 c 0.86926,1.09195 1.68588,2.23288 2.21067,3.64546 0.63087,-0.12421 1.17281,-0.39961 1.92134,-0.32378 1.44568,-1.22658 2.87782,-1.90499 4.35558,-2.79079 -0.27491,-0.13278 -0.55739,-0.24632 -0.91971,-0.15716 l -0.0525,-0.52502 c -0.78935,0.30384 -0.94856,0.51854 -1.26273,0.75517 l -0.66513,-0.6469 c -0.85594,0.11067 -0.90782,0.30733 -1.12364,0.48646 -0.45661,-0.5205 -0.5065,-0.61728 -1.08139,-0.98538 l -1.35512,0.71462 c -0.26989,-0.26781 -0.46459,-0.56573 -1.01918,-0.71958 -0.51132,0.47874 -0.68238,0.38194 -1.00819,0.5469 z"
       id="path4825" /><path
       style="font-variation-settings:normal;display:inline;opacity:1;vector-effect:none;fill:#f91329;fill-opacity:1;stroke:url(#linearGradient8446);stroke-width:0.165;stroke-linecap:butt;stroke-linejoin:miter;stroke-miterlimit:4;stroke-dasharray:none;stroke-dashoffset:0;stroke-opacity:1;-inkscape-stroke:none;stop-color:#000000;stop-opacity:1"
       d="m 112.64503,129.77567 c -0.66662,0.91892 -0.90097,1.98952 -1.76388,3.06359 -0.61816,0.76941 0.31893,0.88861 0.91119,0.86176 2.86103,-0.12971 2.45064,-0.59369 4.83231,-0.26455 z"
       id="path4835" /><path
       style="font-variation-settings:normal;opacity:1;vector-effect:none;fill:#201c2f;fill-opacity:1;stroke:#000000;stroke-width:0.165;stroke-linecap:butt;stroke-linejoin:miter;stroke-miterlimit:4;stroke-dasharray:none;stroke-dashoffset:0;stroke-opacity:1;-inkscape-stroke:none;stop-color:#000000;stop-opacity:1"
       d="m 109.58413,133.84355 c 0.80009,1.03541 1.24361,2.05093 2.69503,2.94877 0.54954,0.33994 2.04675,0.20157 3.26189,0.0856 0.9659,-0.0922 1.5483,-1.11189 1.97137,-1.94432 0.33105,-0.65137 0.17437,-1.29111 -0.11224,-1.95325 -2.37723,1.63811 -5.79929,1.89689 -7.81605,0.86318 z"
       id="path4827" /><path
       style="display:inline;opacity:0.888992;stroke-width:0.604573"
       id="path489-36"
       d="m 63.25369,162.76474 a 0.65582353,1.0723983 0 0 1 -0.644166,1.07223 0.65582353,1.0723983 0 0 1 -0.667067,-1.03411 0.65582353,1.0723983 0 0 1 0.62045,-1.10899 0.65582353,1.0723983 0 0 1 0.689125,0.99468 l -0.654166,0.0762 z"
       transform="rotate(-20.300573)" /><path
       style="display:inline;opacity:0.888992;stroke-width:0.549387"
       id="path489-7"
       d="m 129.22448,111.14489 a 0.5838812,0.99466735 0 0 1 -0.57351,0.99451 0.5838812,0.99466735 0 0 1 -0.59389,-0.95915 0.5838812,0.99466735 0 0 1 0.55239,-1.02861 0.5838812,0.99466735 0 0 1 0.61353,0.92258 l -0.58241,0.0707 z"
       transform="matrix(0.9865292,0.16358524,-0.15040215,0.98862491,0,0)" /><path
       style="font-variation-settings:normal;opacity:1;vector-effect:none;fill:#201c2f;fill-opacity:1;stroke:#000000;stroke-width:0.165;stroke-linecap:butt;stroke-linejoin:miter;stroke-miterlimit:4;stroke-dasharray:none;stroke-dashoffset:0;stroke-opacity:1;-inkscape-stroke:none;stop-color:#000000;stop-opacity:1"
       d="m 117.19333,128.36672 c -0.55642,0.0191 -0.7814,-0.10004 -1.06243,-0.0731 -0.29165,0.0279 -0.37787,0.1309 -0.7842,0.69225 -0.8174,0.52665 -1.37513,1.20229 -2.34617,1.38665 0.32655,0.57929 0.94334,0.49009 1.55236,0.64789 1.19486,-0.76954 1.59782,-1.04998 2.87963,-1.33524 1.02598,-0.22832 0.1625,-0.96103 -0.23919,-1.31842 z"
       id="path4829" /><path
       id="path8467"
       style="font-variation-settings:normal;display:inline;opacity:0.75;fill:none;fill-opacity:1;stroke:#000000;stroke-width:0.1;stroke-linecap:butt;stroke-linejoin:miter;stroke-miterlimit:4;stroke-dasharray:none;stroke-dashoffset:0;stroke-opacity:1;filter:url(#filter8775);stop-color:#000000;stop-opacity:1"
       d="m 120.56689,138.80157 c 0.41484,-0.16601 0.68244,-0.55888 1.56861,-0.41173 m -1.87983,11.17941 c 0.34265,0.70202 0.7127,1.40749 0.68381,2.06283 m 1.69126,-5.86687 0.2171,0.008 m -5.67088,0.45652 0.24925,0.0542" /><path
       id="path12298"
       style="display:inline;fill:none;stroke:#ffffff;stroke-width:0.265;stroke-linecap:round;stroke-linejoin:miter;stroke-dasharray:none;stroke-opacity:0.781913;filter:url(#filter21114-5-6-1)"
       d="m 97.924168,138.39516 c 2.141412,5.65366 13.136692,35.2182 16.885642,44.5774 m -13.94233,-48.48004 c -0.23173,0.99016 -0.997933,1.63737 -1.975338,1.8853 m -4.53172,-9.0222 c -0.19498,0.82116 -0.293136,1.74849 -0.347069,2.31609 m -4.068377,-0.42865 c -0.140562,0.79181 -0.226478,1.33555 -0.277905,2.09934 m 8.995621,-5.41276 c -0.203818,0.77672 -0.312563,1.54998 -0.411083,2.32822 m -1.078824,8.64206 c -0.298008,0.19016 -0.618259,0.33004 -1.010263,0.42729 m 33.142628,10.73227 c 0.47008,0.58375 -3.78497,3.77407 -5.54223,5.3964 m -1.73588,0.0928 c -0.5553,0.0731 -0.96516,0.13896 -1.35084,0.26302 -0.45915,0.1477 -0.88403,0.37788 -1.47924,0.80092 m 25.37871,0.82919 c 0.87119,1.47706 1.23279,2.95263 1.23392,4.74327 m -8.29532,-18.36431 c 1.06928,4.89616 1.71562,6.65746 3.98821,9.6948 m -4.75287,-17.78581 c -0.37205,2.28124 -0.37922,3.69272 0.0258,5.96908 m 2.10197,-11.46185 c -1.95727,1.853 -2.38614,2.41899 -4.24553,4.83899 m -7.7838,3.02141 c -0.90866,-0.45766 -1.4867,-0.55925 -2.40014,-0.55967 m -14.66832,-17.13543 c -1.3971,1.32364 -1.68205,3.87565 -1.32568,6.14128 m 11.43982,-6.14075 c -0.44899,1.8085 -0.44156,2.5204 -1.23489,3.43539 -0.94086,1.08515 -2.67978,1.70235 -2.35077,2.41583 m -5.31406,8.96773 c 0.52129,-0.65554 0.82845,-1.06787 1.05738,-1.65329 m 2.16511,43.00383 c 1.35569,2.49841 2.52868,4.90968 3.2839,7.37125 m 8.43906,-20.41399 c -0.17579,4.5276 -0.15681,8.56476 0.88438,10.88768 m 3.04387,2.74369 c 2.621,2.32343 2.91224,2.5331 4.59676,4.79758 m 0.35018,1.37164 c -0.46865,0.75856 -0.54953,1.11353 -0.94939,2.08977 M 117.23378,160.0917 c -3.94799,4.76554 -5.32858,5.65356 -4.99245,9.01485" /><path
       style="font-variation-settings:normal;display:inline;opacity:1;vector-effect:none;fill:#f91329;fill-opacity:1;stroke:#000000;stroke-width:0.165;stroke-linecap:butt;stroke-linejoin:miter;stroke-miterlimit:4;stroke-dasharray:none;stroke-dashoffset:0;stroke-opacity:1;-inkscape-stroke:none;stop-color:#000000;stop-opacity:1"
       d="m 98.154531,143.48985 c -0.437912,0.88993 -0.315225,3.41481 1.100485,4.95228 0.612035,0.66467 1.828324,1.03555 2.047874,0.94381 0.42916,-0.17934 0.10389,-0.46946 0.4845,-0.68447 0.53444,-0.30191 1.75903,-0.97412 1.64963,-1.95724 -0.0503,-0.45162 -0.51414,-0.80939 -1.33647,0.0321 0.48811,-0.73 1.11844,-1.40943 0.57507,-2.18051 -0.4297,-0.60977 -0.95727,-0.30016 -2.18002,0.0518 1.39966,-0.54972 1.94495,-0.67761 1.5241,-1.54902 -0.14772,-0.30587 -1.21958,-1.25901 -2.530207,-0.66219 -0.502292,0.22873 -1.048361,0.47102 -1.334962,1.05345 z"
       id="path4350" /><path
       id="path9056"
       style="display:inline;fill:none;stroke:#ffffff;stroke-width:0.265;stroke-linecap:round;stroke-linejoin:miter;stroke-dasharray:none;stroke-opacity:0.781913;filter:url(#filter21114-5-6-1)"
       d="m 110.78482,140.30981 c -2.61274,3.10566 -3.64581,4.05857 -6.27381,5.72004 m -3.67024,-3.45377 c -1.25474,0.0148 -2.420352,0.54165 -2.579745,2.06462 m 15.506405,-22.7713 c -3.64919,1.49647 -7.42416,3.51782 -5.39173,9.81953 -0.59538,0.28442 -0.91465,0.78834 -1.1263,1.57921" /><path
       style="font-variation-settings:normal;display:inline;opacity:1;vector-effect:none;fill:#201c2f;fill-opacity:1;stroke:#000000;stroke-width:0.165;stroke-linecap:butt;stroke-linejoin:miter;stroke-miterlimit:4;stroke-dasharray:none;stroke-dashoffset:0;stroke-opacity:1;-inkscape-stroke:none;stop-color:#000000;stop-opacity:1"
       d="m 108.02257,128.7843 c 0.26991,-0.16746 0.60586,-0.43562 1.08083,-0.24048 0.3682,0.15127 0.6305,0.46499 0.67892,0.93409 0.48003,0.38471 0.94166,0.92936 1.53657,1.31254 -0.56641,-0.14395 -1.2706,-0.23953 -1.61931,-0.37663 -0.89166,-0.35058 -2.38356,-1.19117 -1.67701,-1.62952 z"
       id="path4831" /><g
       id="layer5"
       style="display:inline"><path
         style="font-variation-settings:normal;display:inline;opacity:1;fill:url(#linearGradient12984);fill-opacity:1;stroke:#000000;stroke-width:0.065;stroke-linecap:butt;stroke-linejoin:miter;stroke-miterlimit:4;stroke-dasharray:none;stroke-dashoffset:0;stroke-opacity:1;stop-color:#000000;stop-opacity:1"
         d="m 110.23962,134.21014 c -0.0369,0.28013 0.44247,0.88455 0.68563,1.16283 l 0.64833,0.1188 -0.0267,-0.98258 z"
         id="path4837" /><path
         style="font-variation-settings:normal;opacity:1;fill:#fedade;fill-opacity:1;stroke:#000000;stroke-width:0.065;stroke-linecap:butt;stroke-linejoin:miter;stroke-miterlimit:4;stroke-dasharray:none;stroke-dashoffset:0;stroke-opacity:1;stop-color:#000000;stop-opacity:1"
         d="m 111.57077,134.49821 0.002,0.9472 c 0.42047,0.12283 0.88077,0.17107 1.35759,0.18835 l -0.0494,-1.08684 z"
         id="path12942" /><path
         style="font-variation-settings:normal;opacity:1;fill:#fedade;fill-opacity:1;stroke:#000000;stroke-width:0.065;stroke-linecap:butt;stroke-linejoin:miter;stroke-miterlimit:4;stroke-dasharray:none;stroke-dashoffset:0;stroke-opacity:1;stop-color:#000000;stop-opacity:1"
         d="m 112.96394,135.75405 c 0.47644,-0.071 0.95977,-0.0902 1.46507,0.056 l 7.9e-4,-1.49005 c -0.49474,0.10943 -1.0441,0.13593 -1.51932,0.20152 z"
         id="path12944" /><path
         style="font-variation-settings:normal;opacity:1;fill:url(#linearGradient12968);fill-opacity:1;stroke:#000000;stroke-width:0.065;stroke-linecap:butt;stroke-linejoin:miter;stroke-miterlimit:4;stroke-dasharray:none;stroke-dashoffset:0;stroke-opacity:1;stop-color:#000000;stop-opacity:1"
         d="m 114.45326,134.35124 1.31845,-0.41879 0.0286,1.46606 -1.33304,0.3593 z"
         id="path12946" /><path
         style="font-variation-settings:normal;opacity:1;fill:url(#linearGradient12966);fill-opacity:1;stroke:#000000;stroke-width:0.065;stroke-linecap:butt;stroke-linejoin:miter;stroke-miterlimit:4;stroke-dasharray:none;stroke-dashoffset:0;stroke-opacity:1;stop-color:#000000;stop-opacity:1"
         d="m 115.80712,133.93123 c -0.004,0.51601 0.0677,0.94884 0.0283,1.51559 0.51512,-0.47309 0.85289,-1.00232 1.44177,-1.16712 l 0.072,-1.1618 z"
         id="path12948" /><path
         style="font-variation-settings:normal;opacity:1;fill:#fedade;fill-opacity:0.717096;stroke:#000000;stroke-width:0.065;stroke-linecap:butt;stroke-linejoin:miter;stroke-miterlimit:4;stroke-dasharray:none;stroke-dashoffset:0;stroke-opacity:1;stop-color:#000000;stop-opacity:1"
         d="m 110.97267,135.62219 0.57981,0.0834 0.0144,0.54248 c -0.14674,-0.19063 -0.43263,-0.44799 -0.59424,-0.62591 z"
         id="path12950" /><path
         style="font-variation-settings:normal;opacity:1;fill:#fedade;fill-opacity:1;stroke:#000000;stroke-width:0.065;stroke-linecap:butt;stroke-linejoin:miter;stroke-miterlimit:4;stroke-dasharray:none;stroke-dashoffset:0;stroke-opacity:1;stop-color:#000000;stop-opacity:1"
         d="m 111.58517,135.80937 c 0.39018,0.0838 0.74183,0.25085 1.17401,0.24404 l 0.0774,0.85814 c -0.42176,-0.0663 -0.82941,-0.34996 -1.23972,-0.5927 z"
         id="path12952" /><path
         style="font-variation-settings:normal;opacity:1;fill:#fedade;fill-opacity:1;stroke:#000000;stroke-width:0.065;stroke-linecap:butt;stroke-linejoin:miter;stroke-miterlimit:4;stroke-dasharray:none;stroke-dashoffset:0;stroke-opacity:1;stop-color:#000000;stop-opacity:1"
         d="m 112.86482,136.16688 c 0.46275,0.0156 0.86173,0.055 1.50387,-0.0194 l -0.14958,0.8065 -1.34186,-0.0304 c 0.002,-0.24706 0.0214,-0.48138 -0.0124,-0.75668 z"
         id="path12954" /><path
         style="font-variation-settings:normal;opacity:1;fill:#fedade;fill-opacity:1;stroke:#000000;stroke-width:0.065;stroke-linecap:butt;stroke-linejoin:miter;stroke-miterlimit:4;stroke-dasharray:none;stroke-dashoffset:0;stroke-opacity:1;stop-color:#000000;stop-opacity:1"
         d="m 114.39789,136.23809 -0.0442,0.68284 1.28749,-0.10087 0.12713,-0.79962 z"
         id="path12956" /><path
         style="font-variation-settings:normal;opacity:1;fill:url(#linearGradient12976);fill-opacity:1;stroke:#000000;stroke-width:0.065;stroke-linecap:butt;stroke-linejoin:miter;stroke-miterlimit:4;stroke-dasharray:none;stroke-dashoffset:0;stroke-opacity:1;stop-color:#000000;stop-opacity:1"
         d="m 115.88093,135.90192 c 0.32165,0.061 0.73416,-0.10831 1.11707,-0.20257 -0.27943,0.45827 -0.6968,0.83233 -1.28677,1.10105 z"
         id="path12958" /></g></g></svg>
