<?xml version="1.0" encoding="UTF-8" standalone="no"?>
<!-- Created with Inkscape (http://www.inkscape.org/) -->

<svg
   width="55.406269mm"
   height="52.613831mm"
   viewBox="0 0 55.406269 52.613831"
   version="1.1"
   id="svg5"
   xml:space="preserve"
   xmlns:xlink="http://www.w3.org/1999/xlink"
   xmlns="http://www.w3.org/2000/svg"
   xmlns:svg="http://www.w3.org/2000/svg"><defs
     id="defs2"><linearGradient
       id="linearGradient17869"><stop
         style="stop-color:#fa4413;stop-opacity:1;"
         offset="0"
         id="stop17865" /><stop
         style="stop-color:#f8172c;stop-opacity:1;"
         offset="1"
         id="stop17867" /></linearGradient><linearGradient
       id="linearGradient17378"><stop
         style="stop-color:#fa4413;stop-opacity:1;"
         offset="0"
         id="stop17374" /><stop
         style="stop-color:#f8172c;stop-opacity:1;"
         offset="1"
         id="stop17376" /></linearGradient><linearGradient
       id="linearGradient16818"><stop
         style="stop-color:#fa4413;stop-opacity:1;"
         offset="0"
         id="stop16814" /><stop
         style="stop-color:#f8172c;stop-opacity:1;"
         offset="1"
         id="stop16816" /></linearGradient><linearGradient
       id="linearGradient16102"><stop
         style="stop-color:#000000;stop-opacity:1;"
         offset="0"
         id="stop16098" /><stop
         style="stop-color:#000000;stop-opacity:0;"
         offset="1"
         id="stop16100" /></linearGradient><linearGradient
       id="linearGradient16081"><stop
         style="stop-color:#000000;stop-opacity:1;"
         offset="0"
         id="stop16077" /><stop
         style="stop-color:#000000;stop-opacity:0;"
         offset="1"
         id="stop16079" /></linearGradient><linearGradient
       id="linearGradient16030"><stop
         style="stop-color:#000000;stop-opacity:1;"
         offset="0"
         id="stop16026" /><stop
         style="stop-color:#000000;stop-opacity:0;"
         offset="1"
         id="stop16028" /></linearGradient><linearGradient
       id="linearGradient16011"><stop
         style="stop-color:#000000;stop-opacity:1;"
         offset="0"
         id="stop16007" /><stop
         style="stop-color:#000000;stop-opacity:0;"
         offset="1"
         id="stop16009" /></linearGradient><linearGradient
       id="linearGradient16003"><stop
         style="stop-color:#000000;stop-opacity:1;"
         offset="0"
         id="stop15999" /><stop
         style="stop-color:#000000;stop-opacity:0;"
         offset="1"
         id="stop16001" /></linearGradient><linearGradient
       xlink:href="#linearGradient16003"
       id="linearGradient16005"
       x1="74.579819"
       y1="157.08995"
       x2="73.633736"
       y2="157.39511"
       gradientUnits="userSpaceOnUse" /><linearGradient
       xlink:href="#linearGradient16011"
       id="linearGradient16013"
       x1="67.296867"
       y1="172.94923"
       x2="69.582588"
       y2="171.61317"
       gradientUnits="userSpaceOnUse" /><linearGradient
       xlink:href="#linearGradient16030"
       id="linearGradient16032"
       x1="63.255833"
       y1="149.9828"
       x2="63.561646"
       y2="149.97192"
       gradientUnits="userSpaceOnUse" /><linearGradient
       xlink:href="#linearGradient16081"
       id="linearGradient16083"
       x1="63.195564"
       y1="157.78004"
       x2="64.1465"
       y2="157.92763"
       gradientUnits="userSpaceOnUse" /><linearGradient
       xlink:href="#linearGradient16102"
       id="linearGradient16104"
       x1="58.681938"
       y1="161.4407"
       x2="58.697899"
       y2="161.32652"
       gradientUnits="userSpaceOnUse" /><linearGradient
       xlink:href="#linearGradient16818"
       id="linearGradient16820"
       x1="58.752872"
       y1="162.8421"
       x2="61.459446"
       y2="165.05438"
       gradientUnits="userSpaceOnUse" /><linearGradient
       xlink:href="#linearGradient17378"
       id="linearGradient17380"
       x1="74.579819"
       y1="157.08995"
       x2="78.632912"
       y2="155.1105"
       gradientUnits="userSpaceOnUse" /><linearGradient
       xlink:href="#linearGradient17869"
       id="linearGradient17871"
       x1="72.720116"
       y1="161.14175"
       x2="74.609123"
       y2="162.22562"
       gradientUnits="userSpaceOnUse" /><filter
       style="color-interpolation-filters:sRGB"
       id="filter21106"
       x="-0.084390178"
       y="-0.07134027"
       width="1.1687473"
       height="1.1426805"><feGaussianBlur
         stdDeviation="0.3 0.3"
         result="blur"
         id="feGaussianBlur21104" /></filter><filter
       style="color-interpolation-filters:sRGB"
       id="filter21110"
       x="-0.10997944"
       y="-0.097360253"
       width="1.2199589"
       height="1.1947194"><feGaussianBlur
         stdDeviation="0.3 0.3"
         result="blur"
         id="feGaussianBlur21108" /></filter><filter
       style="color-interpolation-filters:sRGB"
       id="filter21114"
       x="-0.15013584"
       y="-0.20173457"
       width="1.3002717"
       height="1.4034691"><feGaussianBlur
         stdDeviation="0.3 0.3"
         result="blur"
         id="feGaussianBlur21112" /></filter><filter
       style="color-interpolation-filters:sRGB"
       id="filter21118"
       x="-0.16163166"
       y="-0.27703553"
       width="1.3232633"
       height="1.5540711"><feGaussianBlur
         stdDeviation="0.3 0.3"
         result="blur"
         id="feGaussianBlur21116" /></filter><filter
       style="color-interpolation-filters:sRGB"
       id="filter21122"
       x="-0.11505581"
       y="-0.080117494"
       width="1.2301116"
       height="1.160235"><feGaussianBlur
         stdDeviation="0.3 0.3"
         result="blur"
         id="feGaussianBlur21120" /></filter><filter
       style="color-interpolation-filters:sRGB"
       id="filter21126"
       x="-0.91734308"
       y="-0.11152597"
       width="2.834686"
       height="1.2230519"><feGaussianBlur
         stdDeviation="0.3 0.3"
         result="blur"
         id="feGaussianBlur21124" /></filter><filter
       style="color-interpolation-filters:sRGB"
       id="filter21495"
       x="-0.55651581"
       y="-0.78522986"
       width="2.1130316"
       height="2.5704596"><feGaussianBlur
         stdDeviation="0.0002619452"
         id="feGaussianBlur21497"
         result="fbSourceGraphic" /><feColorMatrix
         result="fbSourceGraphicAlpha"
         in="fbSourceGraphic"
         values="0 0 0 -1 0 0 0 0 -1 0 0 0 0 -1 0 0 0 0 1 0"
         id="feColorMatrix21499" /><feGaussianBlur
         id="feGaussianBlur21501"
         stdDeviation="0.3 0.3"
         result="blur"
         in="fbSourceGraphic" /></filter><filter
       style="color-interpolation-filters:sRGB"
       id="filter21505"
       x="-0.33951947"
       y="-2.0662491"
       width="1.6538926"
       height="5.0943656"><feGaussianBlur
         stdDeviation="0.3 0.3"
         result="blur"
         id="feGaussianBlur21503" /></filter></defs><g
     id="layer2"
     style="display:inline"
     transform="translate(-52.280576,-133.80137)"><path
       style="display:inline;fill:#fc1229;fill-opacity:1;stroke:#000000;stroke-width:0.165;stroke-linecap:butt;stroke-linejoin:miter;stroke-dasharray:none;stroke-opacity:1"
       d="m 52.40398,181.90303 c 1.100351,1.17564 1.963424,2.43704 2.688482,3.74833 0.13491,0.22736 0.811429,0.35152 1.803567,0.22169 0.0077,-1.44784 -0.351671,-1.91577 -0.89884,-2.70993 l 1.014523,-0.8746 -1.754095,-2.60509 c -0.747931,0.62265 -1.700667,1.36339 -2.853637,2.2196 z"
       id="path419" /><path
       style="display:inline;fill:#fc1229;fill-opacity:1;stroke:#000000;stroke-width:0.165;stroke-linecap:butt;stroke-linejoin:miter;stroke-dasharray:none;stroke-opacity:1"
       d="m 81.051767,186.31506 c 2.196467,-0.88166 3.59578,-1.84699 4.822198,-2.83046 0.456513,-0.42848 0.627279,-0.7651 -0.05515,-0.82744 -0.987271,-0.09 -1.763757,0.12742 -2.88947,0.6562 l -0.745008,-1.2067 -1.815187,1.62299 c 0.105907,0.82353 -0.09431,1.55076 0.682617,2.58541 z"
       id="path423" /><path
       style="display:inline;fill:none;fill-opacity:1;stroke:#ffffff;stroke-width:0.265;stroke-linecap:round;stroke-linejoin:miter;stroke-dasharray:none;stroke-opacity:1;filter:url(#filter21495)"
       d="m 55.325136,180.20264 c -0.699673,0.54559 -1.132654,0.8319 -1.532982,1.08647"
       id="path21491" /><path
       style="display:inline;fill:none;fill-opacity:1;stroke:#ffffff;stroke-width:0.264583px;stroke-linecap:butt;stroke-linejoin:miter;stroke-opacity:1;filter:url(#filter21505)"
       d="m 83.549452,183.43452 c 0.719796,-0.38595 1.505009,-0.43362 2.30477,-0.40605"
       id="path21493" /><path
       style="fill:#1d1e38;fill-opacity:1;stroke:#000000;stroke-width:0.165;stroke-linecap:butt;stroke-linejoin:miter;stroke-dasharray:none;stroke-opacity:1"
       d="m 80.207798,184.34499 2.71384,-1.73412 c -1.656165,-5.82849 -4.957324,-10.46556 -9.477836,-15.15472 l -7.222225,0.29998 1.124749,3.47425 c 6.005196,1.21664 9.144811,7.69545 12.861472,13.11461 z"
       id="path421" /><path
       style="display:inline;fill:#1d1e38;fill-opacity:1;stroke:url(#linearGradient16013);stroke-width:0.264583px;stroke-linecap:butt;stroke-linejoin:miter;stroke-opacity:1"
       d="m 56.783178,182.91849 c 5.22671,-2.78499 9.274966,-6.48168 12.101669,-11.1234 l 1.875396,-3.57027 -8.463974,-0.41075 c 0.220275,1.29908 0.324091,2.62179 -0.05079,3.44852 -0.686432,1.36377 -1.641745,4.50196 -7.452016,8.28091 0.168397,1.29505 1.43051,2.19482 1.989715,3.37499 z"
       id="path305" /><path
       style="display:inline;fill:url(#linearGradient17871);fill-opacity:1;stroke:#000000;stroke-width:0.165;stroke-linecap:butt;stroke-linejoin:miter;stroke-dasharray:none;stroke-opacity:1"
       d="m 62.09661,168.41661 c 4.02658,1.04305 7.297855,1.27678 12.729314,-0.61624 -0.304325,-4.44394 -0.643154,-8.15734 -0.84253,-12.72421 -1.80344,-0.5901 -4.030948,-1.2254 -7.264656,-0.16875 -0.775418,0.36658 -2.2706,0.80514 -3.768749,1.49446 -0.02191,4.16517 -0.302655,8.17235 -0.853379,12.01474 z"
       id="path429" /><path
       style="display:inline;fill:none;stroke:#ffffff;stroke-width:0.264583px;stroke-linecap:round;stroke-linejoin:miter;stroke-opacity:0.781913;filter:url(#filter21126)"
       d="m 63.507542,160.39086 c -0.223615,2.45784 -0.03061,4.78245 -0.929087,7.64209"
       id="path19460" /><path
       style="display:inline;fill:#fa4413;fill-opacity:1;stroke:url(#linearGradient16083);stroke-width:0.165;stroke-linecap:butt;stroke-linejoin:miter;stroke-dasharray:none;stroke-opacity:1"
       d="m 65.807954,160.59168 c -1.872983,0.0784 -3.773962,-2.09824 -5.738997,0.98859 0.248522,2.23548 -3.012683,1.98134 -3.016581,-0.0866 0.686908,-3.11728 3.259353,-5.08427 6.766269,-5.46807 l 3.349209,0.64482 z"
       id="path16074" /><path
       style="display:inline;fill:url(#linearGradient16820);fill-opacity:1;stroke:url(#linearGradient16104);stroke-width:0.165;stroke-linecap:butt;stroke-linejoin:miter;stroke-dasharray:none;stroke-opacity:1"
       d="m 60.068957,161.58027 c -0.06346,0.92319 1.955739,1.89693 5.187457,3.0599 1.17393,-0.22045 2.728487,-0.78013 2.822779,-0.0384 -0.05208,0.42706 -0.931062,0.43944 -1.406551,0.65416 1.145247,0.60253 2.030608,1.30131 1.858274,2.3918 -0.173962,0.20754 -0.790088,-0.24732 -1.297668,-0.54777 0.09897,0.31733 0.72889,0.96724 0.535652,1.12184 -0.358039,0.24264 -1.152062,-0.28997 -1.514253,-0.31442 0.287921,0.31053 1.126109,0.60383 0.804601,1.05014 -0.129897,0.18364 -0.989619,0.083 -1.255054,-0.12679 -1.129957,-1.0056 -1.257296,-1.27906 -1.50214,-1.74286 -2.281386,-0.752 -4.737969,-1.64395 -6.132236,-2.93425 -0.79916,-0.73957 -1.239836,-1.5582 -1.109229,-2.62133 0.297228,-1.65805 3.357175,-1.14199 3.008368,0.048 z"
       id="path425" /><path
       style="fill:url(#linearGradient17380);fill-opacity:1;stroke:url(#linearGradient16005);stroke-width:0.165;stroke-linecap:butt;stroke-linejoin:miter;stroke-dasharray:none;stroke-opacity:1"
       d="m 72.122111,155.19342 c -0.04918,-0.59276 3.308746,-0.4672 3.978762,-0.83472 1.976598,-0.86972 4.326507,-6.29361 5.823905,-8.49833 -0.0868,-0.41962 -0.758879,-2.82772 -0.489231,-2.88949 0.883359,-0.11038 1.585975,0.89833 1.971306,2.15638 -0.843613,-2.17417 1.090269,-4.52637 1.392238,-4.30946 0.342893,0.2566 0.09059,1.99169 -0.335557,3.17654 0.61895,-1.14391 1.45731,-3.06129 1.778086,-2.91527 0.217113,0.11302 0.02503,2.42476 -0.731065,3.58795 0.583193,-0.61578 1.826161,-1.59524 2.066828,-1.45244 0.262727,0.1822 -1.463183,2.94112 -2.322744,3.62885 -0.431355,0.27153 -1.097426,0.37588 -1.753762,0.36662 -0.46555,2.65426 -2.190043,6.00408 -3.707435,8.07118 -1.177687,1.35417 -3.036855,3.00997 -5.680926,3.6032 l -2.365335,-0.16807 z"
       id="path427" /><path
       style="fill:#f8172c;fill-opacity:1;stroke:#000000;stroke-width:0.165;stroke-linecap:butt;stroke-linejoin:miter;stroke-dasharray:none;stroke-opacity:1"
       d="m 68.191434,154.78816 c -1.935499,-0.40032 -3.371378,-0.60864 -4.873156,-2.51367 l -2.149647,-6.93109 c 4.067179,-0.84798 9.555815,-5.16453 12.201536,-2.54395 0.588922,0.68838 4.452335,9.22319 -2.465316,11.69588 0.0079,0.13481 0.521252,-0.0557 0.718996,0.14667 -0.01694,0.81269 -1.108501,1.75773 -1.922174,1.77266 -1.084467,-0.0376 -1.841717,-0.98059 -2.151256,-1.63678 0.19822,-0.10903 0.748724,0.33095 0.641017,0.0103 z"
       id="path433" /><path
       style="display:inline;fill:#1c1f36;fill-opacity:1;stroke:#000000;stroke-width:0.264583px;stroke-linecap:butt;stroke-linejoin:miter;stroke-opacity:1"
       d="m 63.353505,149.83967 c 0.02821,-0.54796 0.203875,-0.91442 0.07063,-1.57374 -0.153696,-0.69259 -0.823923,-1.54013 -1.233493,-2.26864 2.18254,-0.28268 4.175903,-0.11545 6.812435,-0.91758 2.27379,-1.03128 4.562205,-1.93941 5.591057,-3.94565 1.098671,-2.40213 0.524985,-5.68598 -1.586322,-7.08185 0.02349,0.81821 0.377313,1.87466 -0.448353,2.6088 -0.731563,-0.72059 -1.077483,-2.0249 -2.402628,-2.06599 0.04385,3.58418 -0.580584,4.2192 -4.361238,4.7418 -3.183357,0.58357 -4.222795,2.1277 -4.380308,4.01056 -1.329984,0.84002 -2.328845,1.87448 -0.13914,5.22691 z"
       id="path546" /><path
       style="display:inline;fill:#f8172c;fill-opacity:1;stroke:url(#linearGradient16032);stroke-width:0.165;stroke-linecap:butt;stroke-linejoin:miter;stroke-dasharray:none;stroke-opacity:1"
       d="m 64.079177,152.07596 c -2.847978,0.65908 -3.937914,-1.356 -3.774381,-2.66724 0.332061,-1.79282 2.510628,-1.33753 3.246589,0.22879 z"
       id="path431" /><path
       style="display:inline;opacity:0.888992;stroke-width:0.604573"
       id="path489"
       d="m 47.193044,155.61494 a 0.65582353,1.0723983 0 0 1 -0.644166,1.07223 0.65582353,1.0723983 0 0 1 -0.667067,-1.03411 0.65582353,1.0723983 0 0 1 0.62045,-1.10899 0.65582353,1.0723983 0 0 1 0.689125,0.99468 l -0.654166,0.0762 z"
       transform="rotate(-7.8484603)" /><path
       style="display:inline;opacity:0.888992;stroke-width:0.604573"
       id="path489-3"
       d="m 52.97104,155.03024 a 0.65582353,1.0723983 0 0 1 -0.644166,1.07223 0.65582353,1.0723983 0 0 1 -0.667067,-1.03411 0.65582353,1.0723983 0 0 1 0.62045,-1.10899 0.65582353,1.0723983 0 0 1 0.689125,0.99468 l -0.654166,0.0762 z"
       transform="rotate(-7.8484603)" /><path
       style="fill:#1c1f36;fill-opacity:1;stroke:#000000;stroke-width:0.264583px;stroke-linecap:butt;stroke-linejoin:miter;stroke-opacity:1"
       d="m 62.502001,149.87806 c -0.03637,-0.10626 -0.485481,-0.16511 -0.706588,-0.12106 -0.202569,0.52786 0.200914,0.67014 0.449165,0.78483 -0.09127,-0.3042 -0.265747,-0.42216 -0.164585,-0.50041 0.06341,-0.0634 0.161359,-0.1683 0.422008,-0.16336 z"
       id="path540" /><path
       style="display:inline;fill:#191919;fill-opacity:1;stroke:#000000;stroke-width:0.264583px;stroke-linecap:butt;stroke-linejoin:miter;stroke-opacity:1"
       d="m 70.66413,152.38134 c 1.817967,-0.38204 2.981737,-2.61822 1.825392,-3.28728 -0.218623,-0.13301 -1.09187,0.5478 -2.157576,0.71613 -1.140112,0.18007 -2.224487,0.0612 -2.368792,0.14988 -1.528054,1.06147 1.41841,2.6202 2.700976,2.42127 z"
       id="path542" /><path
       style="display:inline;fill:#d9dbd5;fill-opacity:1;stroke:#000000;stroke-width:0.261238px;stroke-linecap:butt;stroke-linejoin:miter;stroke-opacity:1"
       d="m 68.481848,150.81166 c 0.727145,0.26752 1.595074,0.21207 2.271706,-0.0287 0.676632,-0.24077 1.47328,-0.66487 1.595473,-1.26686 l -0.166746,-0.33222 c -1.317713,0.67271 -2.56485,0.76526 -3.814701,0.75461 -0.147075,0.28394 -0.07635,0.80304 0.114268,0.87317 z"
       id="path544" /><path
       style="fill:none;stroke:#ffffff;stroke-width:0.264583px;stroke-linecap:round;stroke-linejoin:miter;stroke-opacity:0.781913;filter:url(#filter21106)"
       d="m 61.019179,147.31347 c -0.716119,-0.79027 -0.910505,-2.79816 0.67465,-3.53017 0.311574,-1.83101 1.651578,-3.36061 3.567399,-3.69245 5.054703,-0.76631 5.410931,-1.94055 5.312605,-4.72423"
       id="path19146" /><path
       style="fill:none;stroke:#ffffff;stroke-width:0.264583px;stroke-linecap:round;stroke-linejoin:miter;stroke-opacity:0.781913;filter:url(#filter21110)"
       d="m 74.200493,155.00682 c 1.898128,0.0186 3.074787,-0.72927 4.260707,-2.35544 1.425297,-2.10922 2.301005,-4.39171 3.488846,-6.39822"
       id="path19155" /><path
       style="fill:none;stroke:#ffffff;stroke-width:0.265;stroke-linecap:round;stroke-linejoin:miter;stroke-dasharray:none;stroke-opacity:0.781913;filter:url(#filter21114)"
       d="m 63.266285,156.38627 c -2.078263,0.47646 -4.098713,1.24338 -5.678191,4.22585"
       id="path19157" /><path
       style="fill:none;stroke:#ffffff;stroke-width:0.264583px;stroke-linecap:round;stroke-linejoin:miter;stroke-opacity:0.781913;filter:url(#filter21118)"
       d="m 59.665253,161.72762 c 0.785579,1.73127 3.524647,2.51161 5.273048,3.07647"
       id="path19458" /><path
       style="fill:none;stroke:#ffffff;stroke-width:0.264583px;stroke-linecap:round;stroke-linejoin:miter;stroke-opacity:0.781913;filter:url(#filter21122)"
       d="m 62.891164,169.08388 c -0.410698,6.06169 -4.437159,7.99643 -7.407636,10.63802"
       id="path19462" /></g></svg>
